%TF.GenerationSoftware,KiCad,Pcbnew,(6.0.6)*%
%TF.CreationDate,2022-07-08T17:20:42+08:00*%
%TF.ProjectId,Stepper,53746570-7065-4722-9e6b-696361645f70,rev?*%
%TF.SameCoordinates,Original*%
%TF.FileFunction,Copper,L2,Inr*%
%TF.FilePolarity,Positive*%
%FSLAX46Y46*%
G04 Gerber Fmt 4.6, Leading zero omitted, Abs format (unit mm)*
G04 Created by KiCad (PCBNEW (6.0.6)) date 2022-07-08 17:20:42*
%MOMM*%
%LPD*%
G01*
G04 APERTURE LIST*
%TA.AperFunction,ComponentPad*%
%ADD10R,1.700000X1.700000*%
%TD*%
%TA.AperFunction,ComponentPad*%
%ADD11O,1.700000X1.700000*%
%TD*%
%TA.AperFunction,ComponentPad*%
%ADD12C,1.600000*%
%TD*%
%TA.AperFunction,ComponentPad*%
%ADD13O,1.600000X1.600000*%
%TD*%
%TA.AperFunction,ComponentPad*%
%ADD14R,1.600000X1.600000*%
%TD*%
%TA.AperFunction,ViaPad*%
%ADD15C,0.800000*%
%TD*%
%TA.AperFunction,Conductor*%
%ADD16C,0.400000*%
%TD*%
G04 APERTURE END LIST*
D10*
%TO.N,unconnected-(J1-Pad1)*%
%TO.C,J1*%
X127940000Y-97460000D03*
D11*
%TO.N,/IOREF*%
X130480000Y-97460000D03*
%TO.N,/~{RESET}*%
X133020000Y-97460000D03*
%TO.N,+3V3*%
X135560000Y-97460000D03*
%TO.N,+5V*%
X138100000Y-97460000D03*
%TO.N,GND*%
X140640000Y-97460000D03*
X143180000Y-97460000D03*
%TO.N,VCC*%
X145720000Y-97460000D03*
%TD*%
D10*
%TO.N,/A0*%
%TO.C,J3*%
X150800000Y-97460000D03*
D11*
%TO.N,/A1*%
X153340000Y-97460000D03*
%TO.N,/A2*%
X155880000Y-97460000D03*
%TO.N,/A3*%
X158420000Y-97460000D03*
%TO.N,/SDA{slash}A4*%
X160960000Y-97460000D03*
%TO.N,/SCL{slash}A5*%
X163500000Y-97460000D03*
%TD*%
D10*
%TO.N,/SCL{slash}A5*%
%TO.C,J2*%
X118796000Y-49200000D03*
D11*
%TO.N,/SDA{slash}A4*%
X121336000Y-49200000D03*
%TO.N,/AREF*%
X123876000Y-49200000D03*
%TO.N,GND*%
X126416000Y-49200000D03*
%TO.N,/13*%
X128956000Y-49200000D03*
%TO.N,/12*%
X131496000Y-49200000D03*
%TO.N,/\u002A11*%
X134036000Y-49200000D03*
%TO.N,/\u002A10*%
X136576000Y-49200000D03*
%TO.N,/\u002A9*%
X139116000Y-49200000D03*
%TO.N,/8*%
X141656000Y-49200000D03*
%TD*%
D10*
%TO.N,/7*%
%TO.C,J4*%
X145720000Y-49200000D03*
D11*
%TO.N,/\u002A6*%
X148260000Y-49200000D03*
%TO.N,/\u002A5*%
X150800000Y-49200000D03*
%TO.N,/4*%
X153340000Y-49200000D03*
%TO.N,/\u002A3*%
X155880000Y-49200000D03*
%TO.N,/2*%
X158420000Y-49200000D03*
%TO.N,/TX{slash}1*%
X160960000Y-49200000D03*
%TO.N,/RX{slash}0*%
X163500000Y-49200000D03*
%TD*%
%TO.N,N/C*%
%TO.C,*%
X120200000Y-57040000D03*
%TD*%
%TO.N,N/C*%
%TO.C,*%
X134270000Y-67260000D03*
%TD*%
%TO.N,N/C*%
%TO.C,*%
X174900000Y-79860000D03*
%TD*%
%TO.N,N/C*%
%TO.C,*%
X134225799Y-54555827D03*
%TD*%
%TO.N,N/C*%
%TO.C,*%
X131730000Y-67260000D03*
%TD*%
%TO.N,N/C*%
%TO.C,*%
X104960000Y-67200000D03*
%TD*%
%TO.N,N/C*%
%TO.C,*%
X172360000Y-79860000D03*
%TD*%
%TO.N,N/C*%
%TO.C,*%
X117824201Y-77144173D03*
%TD*%
%TO.N,N/C*%
%TO.C,*%
X112700000Y-77140000D03*
%TD*%
%TO.N,N/C*%
%TO.C,*%
X158491710Y-54571710D03*
%TD*%
D12*
%TO.N,N/C*%
%TO.C,REF\u002A\u002A*%
X139350000Y-69800000D03*
X141850000Y-69800000D03*
%TD*%
D11*
%TO.N,N/C*%
%TO.C,*%
X117660000Y-67200000D03*
%TD*%
%TO.N,N/C*%
%TO.C,*%
X148260000Y-54500000D03*
%TD*%
%TO.N,N/C*%
%TO.C,*%
X175000000Y-75960000D03*
%TD*%
%TO.N,N/C*%
%TO.C,*%
X148260000Y-67200000D03*
%TD*%
%TO.N,N/C*%
%TO.C,*%
X172100000Y-59640000D03*
%TD*%
%TO.N,N/C*%
%TO.C,*%
X105124201Y-77144173D03*
%TD*%
%TO.N,N/C*%
%TO.C,*%
X120364201Y-82224173D03*
%TD*%
%TO.N,N/C*%
%TO.C,*%
X139350000Y-67260000D03*
%TD*%
%TO.N,N/C*%
%TO.C,*%
X120200000Y-54500000D03*
%TD*%
%TO.N,N/C*%
%TO.C,*%
X150800000Y-67200000D03*
%TD*%
%TO.N,N/C*%
%TO.C,*%
X172100000Y-57100000D03*
%TD*%
%TO.N,N/C*%
%TO.C,*%
X175000000Y-70880000D03*
%TD*%
%TO.N,N/C*%
%TO.C,*%
X145720000Y-67200000D03*
%TD*%
%TO.N,N/C*%
%TO.C,*%
X163500000Y-67200000D03*
%TD*%
%TO.N,N/C*%
%TO.C,*%
X175000000Y-73420000D03*
%TD*%
%TO.N,N/C*%
%TO.C,*%
X150800000Y-54500000D03*
%TD*%
%TO.N,N/C*%
%TO.C,*%
X163500000Y-59580000D03*
%TD*%
%TO.N,N/C*%
%TO.C,*%
X124110000Y-54560000D03*
%TD*%
%TO.N,N/C*%
%TO.C,*%
X120200000Y-59580000D03*
%TD*%
D12*
%TO.N,N/C*%
%TO.C,REF\u002A\u002A*%
X160960000Y-69740000D03*
X163460000Y-69740000D03*
%TD*%
%TO.N,N/C*%
%TO.C,REF\u002A\u002A*%
X160000000Y-91310000D03*
D13*
X160000000Y-83690000D03*
%TD*%
D11*
%TO.N,N/C*%
%TO.C,*%
X126650000Y-67260000D03*
%TD*%
%TO.N,N/C*%
%TO.C,*%
X115355911Y-77215883D03*
%TD*%
%TO.N,N/C*%
%TO.C,*%
X110040000Y-54500000D03*
%TD*%
%TO.N,N/C*%
%TO.C,*%
X115191710Y-54571710D03*
%TD*%
%TO.N,N/C*%
%TO.C,*%
X141890000Y-67260000D03*
%TD*%
%TO.N,N/C*%
%TO.C,*%
X102584201Y-77144173D03*
%TD*%
%TO.N,N/C*%
%TO.C,*%
X172380000Y-88060000D03*
%TD*%
%TO.N,N/C*%
%TO.C,*%
X172380000Y-85260000D03*
%TD*%
%TO.N,N/C*%
%TO.C,*%
X174900000Y-59640000D03*
%TD*%
%TO.N,N/C*%
%TO.C,*%
X107860000Y-49000000D03*
%TD*%
%TO.N,N/C*%
%TO.C,*%
X172100000Y-62180000D03*
%TD*%
%TO.N,N/C*%
%TO.C,*%
X129190000Y-67260000D03*
%TD*%
%TO.N,N/C*%
%TO.C,*%
X102584201Y-89844173D03*
%TD*%
%TO.N,N/C*%
%TO.C,*%
X160960000Y-67200000D03*
%TD*%
%TO.N,N/C*%
%TO.C,*%
X131730000Y-54560000D03*
%TD*%
D12*
%TO.N,N/C*%
%TO.C,R 10 K*%
X152380000Y-91310000D03*
D13*
X152380000Y-83690000D03*
%TD*%
D11*
%TO.N,N/C*%
%TO.C,*%
X105124201Y-89844173D03*
%TD*%
%TO.N,N/C*%
%TO.C,*%
X172200000Y-70900000D03*
%TD*%
%TO.N,N/C*%
%TO.C,*%
X153340000Y-67200000D03*
%TD*%
%TO.N,N/C*%
%TO.C,*%
X141890000Y-54560000D03*
%TD*%
%TO.N,N/C*%
%TO.C,*%
X120200000Y-67200000D03*
%TD*%
%TO.N,N/C*%
%TO.C,*%
X117824201Y-89844173D03*
%TD*%
D14*
%TO.N,N/C*%
%TO.C,REF\u002A\u002A*%
X138244888Y-91800000D03*
D12*
X140244888Y-91800000D03*
%TD*%
D11*
%TO.N,N/C*%
%TO.C,*%
X104960000Y-54500000D03*
%TD*%
D12*
%TO.N,N/C*%
%TO.C,REF\u002A\u002A*%
X154920000Y-91310000D03*
D13*
X154920000Y-83690000D03*
%TD*%
D11*
%TO.N,N/C*%
%TO.C,*%
X174920000Y-85260000D03*
%TD*%
%TO.N,N/C*%
%TO.C,*%
X102420000Y-54500000D03*
%TD*%
%TO.N,N/C*%
%TO.C,*%
X163500000Y-57040000D03*
%TD*%
%TO.N,N/C*%
%TO.C,*%
X172200000Y-68360000D03*
%TD*%
%TO.N,N/C*%
%TO.C,*%
X174900000Y-64720000D03*
%TD*%
%TO.N,N/C*%
%TO.C,*%
X136881710Y-54631710D03*
%TD*%
%TO.N,N/C*%
%TO.C,*%
X155880000Y-67200000D03*
%TD*%
%TO.N,N/C*%
%TO.C,*%
X174920000Y-88060000D03*
%TD*%
%TO.N,N/C*%
%TO.C,*%
X141890000Y-59640000D03*
%TD*%
D12*
%TO.N,N/C*%
%TO.C,REF\u002A\u002A*%
X157460000Y-91310000D03*
D13*
X157460000Y-83690000D03*
%TD*%
D11*
%TO.N,N/C*%
%TO.C,*%
X110040000Y-67200000D03*
%TD*%
%TO.N,N/C*%
%TO.C,*%
X136810000Y-67260000D03*
%TD*%
%TO.N,N/C*%
%TO.C,*%
X172200000Y-73440000D03*
%TD*%
%TO.N,N/C*%
%TO.C,*%
X174900000Y-57100000D03*
%TD*%
%TO.N,N/C*%
%TO.C,*%
X160960000Y-54500000D03*
%TD*%
%TO.N,N/C*%
%TO.C,*%
X115120000Y-67200000D03*
%TD*%
%TO.N,N/C*%
%TO.C,*%
X124110000Y-67260000D03*
%TD*%
%TO.N,N/C*%
%TO.C,*%
X120364201Y-89844173D03*
%TD*%
%TO.N,N/C*%
%TO.C,*%
X107664201Y-89844173D03*
%TD*%
%TO.N,N/C*%
%TO.C,*%
X129190000Y-54560000D03*
%TD*%
%TO.N,N/C*%
%TO.C,*%
X117660000Y-54500000D03*
%TD*%
%TO.N,N/C*%
%TO.C,*%
X155835799Y-54495827D03*
%TD*%
%TO.N,N/C*%
%TO.C,*%
X163500000Y-54500000D03*
%TD*%
%TO.N,N/C*%
%TO.C,*%
X174900000Y-62180000D03*
%TD*%
D12*
%TO.N,N/C*%
%TO.C,REF\u002A\u002A*%
X145760000Y-69740000D03*
X148260000Y-69740000D03*
%TD*%
D11*
%TO.N,GND*%
%TO.C,*%
X176900000Y-92400000D03*
%TD*%
%TO.N,N/C*%
%TO.C,*%
X115284201Y-89844173D03*
%TD*%
%TO.N,N/C*%
%TO.C,*%
X126650000Y-54560000D03*
%TD*%
D14*
%TO.N,N/C*%
%TO.C,C*%
X171300000Y-95555113D03*
D12*
X171300000Y-93555113D03*
%TD*%
D11*
%TO.N,N/C*%
%TO.C,*%
X112580000Y-67200000D03*
%TD*%
%TO.N,N/C*%
%TO.C,*%
X174920000Y-82660000D03*
%TD*%
D12*
%TO.N,N/C*%
%TO.C,REF\u002A\u002A*%
X124110000Y-69800000D03*
X126610000Y-69800000D03*
%TD*%
D11*
%TO.N,N/C*%
%TO.C,*%
X107500000Y-54500000D03*
%TD*%
%TO.N,N/C*%
%TO.C,*%
X110204201Y-77144173D03*
%TD*%
%TO.N,N/C*%
%TO.C,*%
X153340000Y-54500000D03*
%TD*%
%TO.N,VCC*%
%TO.C,*%
X176900000Y-97000000D03*
%TD*%
%TO.N,N/C*%
%TO.C,*%
X102420000Y-67200000D03*
%TD*%
%TO.N,N/C*%
%TO.C,*%
X110204201Y-89844173D03*
%TD*%
D12*
%TO.N,N/C*%
%TO.C,REF\u002A\u002A*%
X102540000Y-92380000D03*
X105040000Y-92380000D03*
%TD*%
D11*
%TO.N,N/C*%
%TO.C,*%
X172200000Y-75980000D03*
%TD*%
%TO.N,N/C*%
%TO.C,*%
X112744201Y-89844173D03*
%TD*%
%TO.N,N/C*%
%TO.C,*%
X107500000Y-67200000D03*
%TD*%
%TO.N,N/C*%
%TO.C,*%
X141890000Y-57100000D03*
%TD*%
%TO.N,N/C*%
%TO.C,*%
X172100000Y-64720000D03*
%TD*%
%TO.N,N/C*%
%TO.C,*%
X145720000Y-54500000D03*
%TD*%
%TO.N,N/C*%
%TO.C,*%
X120364201Y-79684173D03*
%TD*%
%TO.N,N/C*%
%TO.C,*%
X158420000Y-67200000D03*
%TD*%
D12*
%TO.N,N/C*%
%TO.C,REF\u002A\u002A*%
X117780000Y-92380000D03*
X120280000Y-92380000D03*
%TD*%
%TO.N,N/C*%
%TO.C,REF\u002A\u002A*%
X102446709Y-69771710D03*
X104946709Y-69771710D03*
%TD*%
D11*
%TO.N,N/C*%
%TO.C,*%
X110400000Y-49000000D03*
%TD*%
%TO.N,N/C*%
%TO.C,*%
X112535799Y-54495827D03*
%TD*%
%TO.N,N/C*%
%TO.C,*%
X175000000Y-68340000D03*
%TD*%
%TO.N,N/C*%
%TO.C,*%
X102780000Y-49000000D03*
%TD*%
%TO.N,N/C*%
%TO.C,*%
X120364201Y-77144173D03*
%TD*%
%TO.N,N/C*%
%TO.C,*%
X105320000Y-49000000D03*
%TD*%
%TO.N,N/C*%
%TO.C,*%
X172380000Y-82660000D03*
%TD*%
%TO.N,N/C*%
%TO.C,*%
X139350000Y-54560000D03*
%TD*%
%TO.N,N/C*%
%TO.C,*%
X107664201Y-77144173D03*
%TD*%
D12*
%TO.N,N/C*%
%TO.C,REF\u002A\u002A*%
X117615799Y-69740000D03*
X120115799Y-69740000D03*
%TD*%
D15*
%TO.N,*%
X144300000Y-89500000D03*
X127500000Y-86500000D03*
X152300000Y-62800000D03*
X129100000Y-87800000D03*
X160300000Y-76500000D03*
X120000000Y-73300000D03*
X155900000Y-63300000D03*
X130100000Y-73200000D03*
X149800000Y-63000000D03*
X127500000Y-79600000D03*
X127500000Y-82300000D03*
%TO.N,GND*%
X103600000Y-85800000D03*
%TO.N,+5V*%
X138200000Y-89100000D03*
%TD*%
D16*
%TO.N,+5V*%
X174920000Y-85260000D02*
X174920000Y-88060000D01*
X174920000Y-82660000D02*
X174920000Y-85260000D01*
X174900000Y-82640000D02*
X174920000Y-82660000D01*
X174900000Y-79860000D02*
X174900000Y-82640000D01*
%TO.N,/SCL{slash}A5*%
X163500000Y-94810000D02*
X160000000Y-91310000D01*
X163500000Y-97460000D02*
X163500000Y-94810000D01*
%TO.N,/SDA{slash}A4*%
X160960000Y-94810000D02*
X157460000Y-91310000D01*
X160960000Y-97460000D02*
X160960000Y-94810000D01*
%TO.N,/A3*%
X158420000Y-97460000D02*
X158420000Y-94810000D01*
X158420000Y-94810000D02*
X154920000Y-91310000D01*
%TO.N,/A2*%
X155880000Y-94810000D02*
X152380000Y-91310000D01*
X155880000Y-97460000D02*
X155880000Y-94810000D01*
%TO.N,*%
X158700000Y-82300000D02*
X158700000Y-82400000D01*
X149800000Y-63000000D02*
X151500000Y-61300000D01*
X151500000Y-61300000D02*
X165800000Y-61300000D01*
X170860000Y-73440000D02*
X172200000Y-73440000D01*
X159400000Y-78000000D02*
X162200000Y-78000000D01*
X165800000Y-61300000D02*
X165800000Y-53200000D01*
X164700000Y-82400000D02*
X171120000Y-75980000D01*
X158300000Y-78500000D02*
X159200000Y-79400000D01*
X168800000Y-73700000D02*
X168800000Y-71000000D01*
X158700000Y-82400000D02*
X164700000Y-82400000D01*
X157300000Y-80900000D02*
X158700000Y-82300000D01*
X127500000Y-86500000D02*
X134400000Y-79600000D01*
X176300000Y-53200000D02*
X176500000Y-53400000D01*
X139170000Y-64900000D02*
X171920000Y-64900000D01*
X172020000Y-62100000D02*
X172100000Y-62180000D01*
X134400000Y-79600000D02*
X157800000Y-79600000D01*
X153000000Y-62100000D02*
X172020000Y-62100000D01*
X168900000Y-70900000D02*
X172200000Y-70900000D01*
X127500000Y-82300000D02*
X131300000Y-78500000D01*
X158900000Y-80800000D02*
X163500000Y-80800000D01*
X165800000Y-53200000D02*
X176300000Y-53200000D01*
X158800000Y-77400000D02*
X159400000Y-78000000D01*
X168800000Y-71000000D02*
X168900000Y-70900000D01*
X159200000Y-79400000D02*
X163100000Y-79400000D01*
X163100000Y-79400000D02*
X168800000Y-73700000D01*
X171920000Y-64900000D02*
X172100000Y-64720000D01*
X136810000Y-67260000D02*
X139170000Y-64900000D01*
X163500000Y-80800000D02*
X170860000Y-73440000D01*
X127500000Y-79600000D02*
X129700000Y-77400000D01*
X129100000Y-87800000D02*
X136000000Y-80900000D01*
X131300000Y-78500000D02*
X158300000Y-78500000D01*
X171120000Y-75980000D02*
X172200000Y-75980000D01*
X176500000Y-53400000D02*
X176500000Y-58040000D01*
X167100000Y-68500000D02*
X167240000Y-68360000D01*
X152300000Y-62800000D02*
X153000000Y-62100000D01*
X167100000Y-73100000D02*
X167100000Y-68500000D01*
X158900000Y-80700000D02*
X158900000Y-80800000D01*
X167240000Y-68360000D02*
X172200000Y-68360000D01*
X129700000Y-77400000D02*
X158800000Y-77400000D01*
X162200000Y-78000000D02*
X167100000Y-73100000D01*
X157800000Y-79600000D02*
X158900000Y-80700000D01*
X176500000Y-58040000D02*
X174900000Y-59640000D01*
X136000000Y-80900000D02*
X157300000Y-80900000D01*
%TO.N,GND*%
X127700000Y-92800000D02*
X134500000Y-86000000D01*
X154600000Y-76100000D02*
X160960000Y-69740000D01*
X134500000Y-86000000D02*
X142900000Y-86000000D01*
X120350000Y-85950000D02*
X127200000Y-92800000D01*
X143250000Y-88450000D02*
X142500000Y-87700000D01*
X139350000Y-74450000D02*
X139350000Y-69800000D01*
X144300000Y-89500000D02*
X143250000Y-88450000D01*
X125000000Y-76100000D02*
X137700000Y-76100000D01*
X127200000Y-92800000D02*
X127700000Y-92800000D01*
X103600000Y-85800000D02*
X120200000Y-85800000D01*
X137700000Y-76100000D02*
X154600000Y-76100000D01*
X124800000Y-81500000D02*
X124800000Y-76300000D01*
X124800000Y-76300000D02*
X125000000Y-76100000D01*
X117900000Y-94500000D02*
X117780000Y-94380000D01*
X143250000Y-88450000D02*
X144000000Y-87700000D01*
X120200000Y-85800000D02*
X120350000Y-85950000D01*
X142900000Y-86000000D02*
X143400000Y-86500000D01*
X117780000Y-94380000D02*
X117780000Y-92380000D01*
X142500000Y-87700000D02*
X134900000Y-87700000D01*
X128100000Y-94500000D02*
X117900000Y-94500000D01*
X134900000Y-87700000D02*
X128100000Y-94500000D01*
X143400000Y-86500000D02*
X144600000Y-87700000D01*
X137700000Y-76100000D02*
X139350000Y-74450000D01*
X144000000Y-87700000D02*
X144600000Y-87700000D01*
X120350000Y-85950000D02*
X124800000Y-81500000D01*
%TO.N,/13*%
X101100000Y-51400000D02*
X120600000Y-51400000D01*
X102584201Y-77144173D02*
X100800000Y-75359972D01*
X128956000Y-50844000D02*
X128400000Y-51400000D01*
X100800000Y-75359972D02*
X100800000Y-51700000D01*
X128956000Y-49200000D02*
X128956000Y-50844000D01*
X128400000Y-51400000D02*
X120600000Y-51400000D01*
X100800000Y-51700000D02*
X101100000Y-51400000D01*
%TO.N,/\u002A11*%
X122000000Y-75500000D02*
X122100000Y-75400000D01*
X122100000Y-75400000D02*
X122100000Y-54100000D01*
X122000000Y-75508374D02*
X120364201Y-77144173D01*
X122100000Y-54100000D02*
X123700000Y-52500000D01*
X123700000Y-52500000D02*
X132400000Y-52500000D01*
X134036000Y-50864000D02*
X134036000Y-49200000D01*
X132400000Y-52500000D02*
X134036000Y-50864000D01*
X122000000Y-75500000D02*
X122000000Y-75508374D01*
%TO.N,/\u002A6*%
X126650000Y-54550000D02*
X126650000Y-54560000D01*
%TO.N,/\u002A5*%
X141890000Y-54560000D02*
X143950000Y-52500000D01*
X143950000Y-52500000D02*
X149700000Y-52500000D01*
X150800000Y-51400000D02*
X150800000Y-49200000D01*
X149700000Y-52500000D02*
X150800000Y-51400000D01*
%TD*%
M02*
