M48
; DRILL file {KiCad (6.0.6)} date Fri Jul  8 17:20:44 2022
; FORMAT={-:-/ absolute / inch / decimal}
; #@! TF.CreationDate,2022-07-08T17:20:44+08:00
; #@! TF.GenerationSoftware,Kicad,Pcbnew,(6.0.6)
; #@! TF.FileFunction,Plated,1,4,PTH
FMAT,2
INCH
; #@! TA.AperFunction,Plated,PTH,ViaDrill
T1C0.0157
; #@! TA.AperFunction,Plated,PTH,ComponentDrill
T2C0.0315
; #@! TA.AperFunction,Plated,PTH,ComponentDrill
T3C0.0394
%
G90
G05
T1
X4.0787Y-3.378
X4.7244Y-2.8858
X5.0197Y-3.1339
X5.0197Y-3.2402
X5.0197Y-3.4055
X5.0827Y-3.4567
X5.122Y-2.8819
X5.4409Y-3.5079
X5.6811Y-3.5236
X5.8976Y-2.4803
X5.9961Y-2.4724
X6.1378Y-2.4921
X6.311Y-3.0118
T2
X4.0333Y-2.7469
X4.037Y-3.637
X4.1318Y-2.7469
X4.1354Y-3.637
X4.6305Y-2.7457
X4.637Y-3.637
X4.729Y-2.7457
X4.7354Y-3.637
X4.8862Y-2.748
X4.9846Y-2.748
X5.4427Y-3.6142
X5.4862Y-2.748
X5.5215Y-3.6142
X5.5846Y-2.748
X5.7386Y-2.7457
X5.837Y-2.7457
X5.9992Y-3.2949
X5.9992Y-3.5949
X6.0992Y-3.2949
X6.0992Y-3.5949
X6.1992Y-3.2949
X6.1992Y-3.5949
X6.2992Y-3.2949
X6.2992Y-3.5949
X6.337Y-2.7457
X6.4354Y-2.7457
X6.7441Y-3.6833
X6.7441Y-3.762
T3
X4.0323Y-2.1457
X4.0323Y-2.6457
X4.0387Y-3.0372
X4.0387Y-3.5372
X4.0465Y-1.9291
X4.1323Y-2.1457
X4.1323Y-2.6457
X4.1387Y-3.0372
X4.1387Y-3.5372
X4.1465Y-1.9291
X4.2323Y-2.1457
X4.2323Y-2.6457
X4.2387Y-3.0372
X4.2387Y-3.5372
X4.2465Y-1.9291
X4.3323Y-2.1457
X4.3323Y-2.6457
X4.3387Y-3.0372
X4.3387Y-3.5372
X4.3465Y-1.9291
X4.4305Y-2.1455
X4.4323Y-2.6457
X4.437Y-3.037
X4.4387Y-3.5372
X4.5323Y-2.6457
X4.5351Y-2.1485
X4.5387Y-3.5372
X4.5416Y-3.04
X4.6323Y-2.1457
X4.6323Y-2.6457
X4.6387Y-3.0372
X4.6387Y-3.5372
X4.677Y-1.937
X4.7323Y-2.1457
X4.7323Y-2.2457
X4.7323Y-2.3457
X4.7323Y-2.6457
X4.7387Y-3.0372
X4.7387Y-3.1372
X4.7387Y-3.2372
X4.7387Y-3.5372
X4.777Y-1.937
X4.877Y-1.937
X4.8862Y-2.148
X4.8862Y-2.648
X4.977Y-1.937
X4.9862Y-2.148
X4.9862Y-2.648
X5.037Y-3.837
X5.077Y-1.937
X5.0862Y-2.148
X5.0862Y-2.648
X5.137Y-3.837
X5.177Y-1.937
X5.1862Y-2.148
X5.1862Y-2.648
X5.237Y-3.837
X5.277Y-1.937
X5.2845Y-2.1479
X5.2862Y-2.648
X5.337Y-3.837
X5.377Y-1.937
X5.3862Y-2.648
X5.389Y-2.1509
X5.437Y-3.837
X5.477Y-1.937
X5.4862Y-2.148
X5.4862Y-2.648
X5.537Y-3.837
X5.577Y-1.937
X5.5862Y-2.148
X5.5862Y-2.248
X5.5862Y-2.348
X5.5862Y-2.648
X5.637Y-3.837
X5.737Y-1.937
X5.737Y-2.1457
X5.737Y-2.6457
X5.737Y-3.837
X5.837Y-1.937
X5.837Y-2.1457
X5.837Y-2.6457
X5.937Y-1.937
X5.937Y-2.1457
X5.937Y-2.6457
X5.937Y-3.837
X6.037Y-1.937
X6.037Y-2.1457
X6.037Y-2.6457
X6.037Y-3.837
X6.1353Y-2.1455
X6.137Y-1.937
X6.137Y-2.6457
X6.137Y-3.837
X6.237Y-1.937
X6.237Y-2.6457
X6.237Y-3.837
X6.2398Y-2.1485
X6.337Y-1.937
X6.337Y-2.1457
X6.337Y-2.6457
X6.337Y-3.837
X6.437Y-1.937
X6.437Y-2.1457
X6.437Y-2.2457
X6.437Y-2.3457
X6.437Y-2.6457
X6.437Y-3.837
X6.7756Y-2.248
X6.7756Y-2.348
X6.7756Y-2.448
X6.7756Y-2.548
X6.7795Y-2.6913
X6.7795Y-2.7913
X6.7795Y-2.8913
X6.7795Y-2.9913
X6.7858Y-3.1441
X6.7866Y-3.2543
X6.7866Y-3.3567
X6.7866Y-3.4669
X6.8858Y-2.248
X6.8858Y-2.348
X6.8858Y-2.448
X6.8858Y-2.548
X6.8858Y-3.1441
X6.8866Y-3.2543
X6.8866Y-3.3567
X6.8866Y-3.4669
X6.8898Y-2.6906
X6.8898Y-2.7906
X6.8898Y-2.8906
X6.8898Y-2.9906
X6.9646Y-3.6378
X6.9646Y-3.8189
T0
M30
