%TF.GenerationSoftware,KiCad,Pcbnew,(6.0.6)*%
%TF.CreationDate,2022-07-08T17:20:42+08:00*%
%TF.ProjectId,Stepper,53746570-7065-4722-9e6b-696361645f70,rev?*%
%TF.SameCoordinates,Original*%
%TF.FileFunction,Copper,L1,Top*%
%TF.FilePolarity,Positive*%
%FSLAX46Y46*%
G04 Gerber Fmt 4.6, Leading zero omitted, Abs format (unit mm)*
G04 Created by KiCad (PCBNEW (6.0.6)) date 2022-07-08 17:20:42*
%MOMM*%
%LPD*%
G01*
G04 APERTURE LIST*
%TA.AperFunction,ComponentPad*%
%ADD10R,1.700000X1.700000*%
%TD*%
%TA.AperFunction,ComponentPad*%
%ADD11O,1.700000X1.700000*%
%TD*%
%TA.AperFunction,ComponentPad*%
%ADD12C,1.600000*%
%TD*%
%TA.AperFunction,ComponentPad*%
%ADD13O,1.600000X1.600000*%
%TD*%
%TA.AperFunction,ComponentPad*%
%ADD14R,1.600000X1.600000*%
%TD*%
%TA.AperFunction,ViaPad*%
%ADD15C,0.800000*%
%TD*%
%TA.AperFunction,Conductor*%
%ADD16C,0.400000*%
%TD*%
G04 APERTURE END LIST*
D10*
%TO.P,J1,1,Pin_1*%
%TO.N,unconnected-(J1-Pad1)*%
X127940000Y-97460000D03*
D11*
%TO.P,J1,2,Pin_2*%
%TO.N,/IOREF*%
X130480000Y-97460000D03*
%TO.P,J1,3,Pin_3*%
%TO.N,/~{RESET}*%
X133020000Y-97460000D03*
%TO.P,J1,4,Pin_4*%
%TO.N,+3V3*%
X135560000Y-97460000D03*
%TO.P,J1,5,Pin_5*%
%TO.N,+5V*%
X138100000Y-97460000D03*
%TO.P,J1,6,Pin_6*%
%TO.N,GND*%
X140640000Y-97460000D03*
%TO.P,J1,7,Pin_7*%
X143180000Y-97460000D03*
%TO.P,J1,8,Pin_8*%
%TO.N,VCC*%
X145720000Y-97460000D03*
%TD*%
D10*
%TO.P,J3,1,Pin_1*%
%TO.N,/A0*%
X150800000Y-97460000D03*
D11*
%TO.P,J3,2,Pin_2*%
%TO.N,/A1*%
X153340000Y-97460000D03*
%TO.P,J3,3,Pin_3*%
%TO.N,/A2*%
X155880000Y-97460000D03*
%TO.P,J3,4,Pin_4*%
%TO.N,/A3*%
X158420000Y-97460000D03*
%TO.P,J3,5,Pin_5*%
%TO.N,/SDA{slash}A4*%
X160960000Y-97460000D03*
%TO.P,J3,6,Pin_6*%
%TO.N,/SCL{slash}A5*%
X163500000Y-97460000D03*
%TD*%
D10*
%TO.P,J2,1,Pin_1*%
%TO.N,/SCL{slash}A5*%
X118796000Y-49200000D03*
D11*
%TO.P,J2,2,Pin_2*%
%TO.N,/SDA{slash}A4*%
X121336000Y-49200000D03*
%TO.P,J2,3,Pin_3*%
%TO.N,/AREF*%
X123876000Y-49200000D03*
%TO.P,J2,4,Pin_4*%
%TO.N,GND*%
X126416000Y-49200000D03*
%TO.P,J2,5,Pin_5*%
%TO.N,/13*%
X128956000Y-49200000D03*
%TO.P,J2,6,Pin_6*%
%TO.N,/12*%
X131496000Y-49200000D03*
%TO.P,J2,7,Pin_7*%
%TO.N,/\u002A11*%
X134036000Y-49200000D03*
%TO.P,J2,8,Pin_8*%
%TO.N,/\u002A10*%
X136576000Y-49200000D03*
%TO.P,J2,9,Pin_9*%
%TO.N,/\u002A9*%
X139116000Y-49200000D03*
%TO.P,J2,10,Pin_10*%
%TO.N,/8*%
X141656000Y-49200000D03*
%TD*%
D10*
%TO.P,J4,1,Pin_1*%
%TO.N,/7*%
X145720000Y-49200000D03*
D11*
%TO.P,J4,2,Pin_2*%
%TO.N,/\u002A6*%
X148260000Y-49200000D03*
%TO.P,J4,3,Pin_3*%
%TO.N,/\u002A5*%
X150800000Y-49200000D03*
%TO.P,J4,4,Pin_4*%
%TO.N,/4*%
X153340000Y-49200000D03*
%TO.P,J4,5,Pin_5*%
%TO.N,/\u002A3*%
X155880000Y-49200000D03*
%TO.P,J4,6,Pin_6*%
%TO.N,/2*%
X158420000Y-49200000D03*
%TO.P,J4,7,Pin_7*%
%TO.N,/TX{slash}1*%
X160960000Y-49200000D03*
%TO.P,J4,8,Pin_8*%
%TO.N,/RX{slash}0*%
X163500000Y-49200000D03*
%TD*%
%TO.P,,D1,Pin_4*%
%TO.N,N/C*%
X120200000Y-57040000D03*
%TD*%
%TO.P,,D1,Pin_4*%
%TO.N,N/C*%
X134270000Y-67260000D03*
%TD*%
%TO.P,,D1,Pin_4*%
%TO.N,N/C*%
X174900000Y-79860000D03*
%TD*%
%TO.P,,D1,Pin_4*%
%TO.N,N/C*%
X134225799Y-54555827D03*
%TD*%
%TO.P,,D1,Pin_4*%
%TO.N,N/C*%
X131730000Y-67260000D03*
%TD*%
%TO.P,,D1,Pin_4*%
%TO.N,N/C*%
X104960000Y-67200000D03*
%TD*%
%TO.P,,D1,Pin_4*%
%TO.N,N/C*%
X172360000Y-79860000D03*
%TD*%
%TO.P,,D1,Pin_4*%
%TO.N,N/C*%
X117824201Y-77144173D03*
%TD*%
%TO.P,,D1,Pin_4*%
%TO.N,N/C*%
X112700000Y-77140000D03*
%TD*%
%TO.P,,D1,Pin_4*%
%TO.N,N/C*%
X158491710Y-54571710D03*
%TD*%
D12*
%TO.P,REF\u002A\u002A,1*%
%TO.N,N/C*%
X139350000Y-69800000D03*
%TO.P,REF\u002A\u002A,2*%
X141850000Y-69800000D03*
%TD*%
D11*
%TO.P,,D1,Pin_4*%
%TO.N,N/C*%
X117660000Y-67200000D03*
%TD*%
%TO.P,,D1,Pin_4*%
%TO.N,N/C*%
X148260000Y-54500000D03*
%TD*%
%TO.P,,D1,Pin_4*%
%TO.N,N/C*%
X175000000Y-75960000D03*
%TD*%
%TO.P,,D1,Pin_4*%
%TO.N,N/C*%
X148260000Y-67200000D03*
%TD*%
%TO.P,,D1,Pin_4*%
%TO.N,N/C*%
X172100000Y-59640000D03*
%TD*%
%TO.P,,D1,Pin_4*%
%TO.N,N/C*%
X105124201Y-77144173D03*
%TD*%
%TO.P,,D1,Pin_4*%
%TO.N,N/C*%
X120364201Y-82224173D03*
%TD*%
%TO.P,,D1,Pin_4*%
%TO.N,N/C*%
X139350000Y-67260000D03*
%TD*%
%TO.P,,D1,Pin_4*%
%TO.N,N/C*%
X120200000Y-54500000D03*
%TD*%
%TO.P,,D1,Pin_4*%
%TO.N,N/C*%
X150800000Y-67200000D03*
%TD*%
%TO.P,,D1,Pin_4*%
%TO.N,N/C*%
X172100000Y-57100000D03*
%TD*%
%TO.P,,D1,Pin_4*%
%TO.N,N/C*%
X175000000Y-70880000D03*
%TD*%
%TO.P,,D1,Pin_4*%
%TO.N,N/C*%
X145720000Y-67200000D03*
%TD*%
%TO.P,,D1,Pin_4*%
%TO.N,N/C*%
X163500000Y-67200000D03*
%TD*%
%TO.P,,D1,Pin_4*%
%TO.N,N/C*%
X175000000Y-73420000D03*
%TD*%
%TO.P,,D1,Pin_4*%
%TO.N,N/C*%
X150800000Y-54500000D03*
%TD*%
%TO.P,,D1,Pin_4*%
%TO.N,N/C*%
X163500000Y-59580000D03*
%TD*%
%TO.P,,D1,Pin_4*%
%TO.N,N/C*%
X124110000Y-54560000D03*
%TD*%
%TO.P,,D1,Pin_4*%
%TO.N,N/C*%
X120200000Y-59580000D03*
%TD*%
D12*
%TO.P,REF\u002A\u002A,1*%
%TO.N,N/C*%
X160960000Y-69740000D03*
%TO.P,REF\u002A\u002A,2*%
X163460000Y-69740000D03*
%TD*%
%TO.P,REF\u002A\u002A,1*%
%TO.N,N/C*%
X160000000Y-91310000D03*
D13*
%TO.P,REF\u002A\u002A,2*%
X160000000Y-83690000D03*
%TD*%
D11*
%TO.P,,D1,Pin_4*%
%TO.N,N/C*%
X126650000Y-67260000D03*
%TD*%
%TO.P,,D1,Pin_4*%
%TO.N,N/C*%
X115355911Y-77215883D03*
%TD*%
%TO.P,,D1,Pin_4*%
%TO.N,N/C*%
X110040000Y-54500000D03*
%TD*%
%TO.P,,D1,Pin_4*%
%TO.N,N/C*%
X115191710Y-54571710D03*
%TD*%
%TO.P,,D1,Pin_4*%
%TO.N,N/C*%
X141890000Y-67260000D03*
%TD*%
%TO.P,,D1,Pin_4*%
%TO.N,N/C*%
X102584201Y-77144173D03*
%TD*%
%TO.P,,D1,Pin_4*%
%TO.N,N/C*%
X172380000Y-88060000D03*
%TD*%
%TO.P,,D1,Pin_4*%
%TO.N,N/C*%
X172380000Y-85260000D03*
%TD*%
%TO.P,,D1,Pin_4*%
%TO.N,N/C*%
X174900000Y-59640000D03*
%TD*%
%TO.P,,D1,Pin_4*%
%TO.N,N/C*%
X107860000Y-49000000D03*
%TD*%
%TO.P,,D1,Pin_4*%
%TO.N,N/C*%
X172100000Y-62180000D03*
%TD*%
%TO.P,,D1,Pin_4*%
%TO.N,N/C*%
X129190000Y-67260000D03*
%TD*%
%TO.P,,D1,Pin_4*%
%TO.N,N/C*%
X102584201Y-89844173D03*
%TD*%
%TO.P,,D1,Pin_4*%
%TO.N,N/C*%
X160960000Y-67200000D03*
%TD*%
%TO.P,,D1,Pin_4*%
%TO.N,N/C*%
X131730000Y-54560000D03*
%TD*%
D12*
%TO.P,R 10 K,1*%
%TO.N,N/C*%
X152380000Y-91310000D03*
D13*
%TO.P,R 10 K,2*%
X152380000Y-83690000D03*
%TD*%
D11*
%TO.P,,D1,Pin_4*%
%TO.N,N/C*%
X105124201Y-89844173D03*
%TD*%
%TO.P,,D1,Pin_4*%
%TO.N,N/C*%
X172200000Y-70900000D03*
%TD*%
%TO.P,,D1,Pin_4*%
%TO.N,N/C*%
X153340000Y-67200000D03*
%TD*%
%TO.P,,D1,Pin_4*%
%TO.N,N/C*%
X141890000Y-54560000D03*
%TD*%
%TO.P,,D1,Pin_4*%
%TO.N,N/C*%
X120200000Y-67200000D03*
%TD*%
%TO.P,,D1,Pin_4*%
%TO.N,N/C*%
X117824201Y-89844173D03*
%TD*%
D14*
%TO.P,REF\u002A\u002A,1*%
%TO.N,N/C*%
X138244888Y-91800000D03*
D12*
%TO.P,REF\u002A\u002A,2*%
X140244888Y-91800000D03*
%TD*%
D11*
%TO.P,,D1,Pin_4*%
%TO.N,N/C*%
X104960000Y-54500000D03*
%TD*%
D12*
%TO.P,REF\u002A\u002A,1*%
%TO.N,N/C*%
X154920000Y-91310000D03*
D13*
%TO.P,REF\u002A\u002A,2*%
X154920000Y-83690000D03*
%TD*%
D11*
%TO.P,,D1,Pin_4*%
%TO.N,N/C*%
X174920000Y-85260000D03*
%TD*%
%TO.P,,D1,Pin_4*%
%TO.N,N/C*%
X102420000Y-54500000D03*
%TD*%
%TO.P,,D1,Pin_4*%
%TO.N,N/C*%
X163500000Y-57040000D03*
%TD*%
%TO.P,,D1,Pin_4*%
%TO.N,N/C*%
X172200000Y-68360000D03*
%TD*%
%TO.P,,D1,Pin_4*%
%TO.N,N/C*%
X174900000Y-64720000D03*
%TD*%
%TO.P,,D1,Pin_4*%
%TO.N,N/C*%
X136881710Y-54631710D03*
%TD*%
%TO.P,,D1,Pin_4*%
%TO.N,N/C*%
X155880000Y-67200000D03*
%TD*%
%TO.P,,D1,Pin_4*%
%TO.N,N/C*%
X174920000Y-88060000D03*
%TD*%
%TO.P,,D1,Pin_4*%
%TO.N,N/C*%
X141890000Y-59640000D03*
%TD*%
D12*
%TO.P,REF\u002A\u002A,1*%
%TO.N,N/C*%
X157460000Y-91310000D03*
D13*
%TO.P,REF\u002A\u002A,2*%
X157460000Y-83690000D03*
%TD*%
D11*
%TO.P,,D1,Pin_4*%
%TO.N,N/C*%
X110040000Y-67200000D03*
%TD*%
%TO.P,,D1,Pin_4*%
%TO.N,N/C*%
X136810000Y-67260000D03*
%TD*%
%TO.P,,D1,Pin_4*%
%TO.N,N/C*%
X172200000Y-73440000D03*
%TD*%
%TO.P,,D1,Pin_4*%
%TO.N,N/C*%
X174900000Y-57100000D03*
%TD*%
%TO.P,,D1,Pin_4*%
%TO.N,N/C*%
X160960000Y-54500000D03*
%TD*%
%TO.P,,D1,Pin_4*%
%TO.N,N/C*%
X115120000Y-67200000D03*
%TD*%
%TO.P,,D1,Pin_4*%
%TO.N,N/C*%
X124110000Y-67260000D03*
%TD*%
%TO.P,,D1,Pin_4*%
%TO.N,N/C*%
X120364201Y-89844173D03*
%TD*%
%TO.P,,D1,Pin_4*%
%TO.N,N/C*%
X107664201Y-89844173D03*
%TD*%
%TO.P,,D1,Pin_4*%
%TO.N,N/C*%
X129190000Y-54560000D03*
%TD*%
%TO.P,,D1,Pin_4*%
%TO.N,N/C*%
X117660000Y-54500000D03*
%TD*%
%TO.P,,D1,Pin_4*%
%TO.N,N/C*%
X155835799Y-54495827D03*
%TD*%
%TO.P,,D1,Pin_4*%
%TO.N,N/C*%
X163500000Y-54500000D03*
%TD*%
%TO.P,,D1,Pin_4*%
%TO.N,N/C*%
X174900000Y-62180000D03*
%TD*%
D12*
%TO.P,REF\u002A\u002A,1*%
%TO.N,N/C*%
X145760000Y-69740000D03*
%TO.P,REF\u002A\u002A,2*%
X148260000Y-69740000D03*
%TD*%
D11*
%TO.P,,D1,Pin_4*%
%TO.N,GND*%
X176900000Y-92400000D03*
%TD*%
%TO.P,,D1,Pin_4*%
%TO.N,N/C*%
X115284201Y-89844173D03*
%TD*%
%TO.P,,D1,Pin_4*%
%TO.N,N/C*%
X126650000Y-54560000D03*
%TD*%
D14*
%TO.P,C,1*%
%TO.N,N/C*%
X171300000Y-95555113D03*
D12*
%TO.P,C,2*%
X171300000Y-93555113D03*
%TD*%
D11*
%TO.P,,D1,Pin_4*%
%TO.N,N/C*%
X112580000Y-67200000D03*
%TD*%
%TO.P,,D1,Pin_4*%
%TO.N,N/C*%
X174920000Y-82660000D03*
%TD*%
D12*
%TO.P,REF\u002A\u002A,1*%
%TO.N,N/C*%
X124110000Y-69800000D03*
%TO.P,REF\u002A\u002A,2*%
X126610000Y-69800000D03*
%TD*%
D11*
%TO.P,,D1,Pin_4*%
%TO.N,N/C*%
X107500000Y-54500000D03*
%TD*%
%TO.P,,D1,Pin_4*%
%TO.N,N/C*%
X110204201Y-77144173D03*
%TD*%
%TO.P,,D1,Pin_4*%
%TO.N,N/C*%
X153340000Y-54500000D03*
%TD*%
%TO.P,,D1,Pin_4*%
%TO.N,VCC*%
X176900000Y-97000000D03*
%TD*%
%TO.P,,D1,Pin_4*%
%TO.N,N/C*%
X102420000Y-67200000D03*
%TD*%
%TO.P,,D1,Pin_4*%
%TO.N,N/C*%
X110204201Y-89844173D03*
%TD*%
D12*
%TO.P,REF\u002A\u002A,1*%
%TO.N,N/C*%
X102540000Y-92380000D03*
%TO.P,REF\u002A\u002A,2*%
X105040000Y-92380000D03*
%TD*%
D11*
%TO.P,,D1,Pin_4*%
%TO.N,N/C*%
X172200000Y-75980000D03*
%TD*%
%TO.P,,D1,Pin_4*%
%TO.N,N/C*%
X112744201Y-89844173D03*
%TD*%
%TO.P,,D1,Pin_4*%
%TO.N,N/C*%
X107500000Y-67200000D03*
%TD*%
%TO.P,,D1,Pin_4*%
%TO.N,N/C*%
X141890000Y-57100000D03*
%TD*%
%TO.P,,D1,Pin_4*%
%TO.N,N/C*%
X172100000Y-64720000D03*
%TD*%
%TO.P,,D1,Pin_4*%
%TO.N,N/C*%
X145720000Y-54500000D03*
%TD*%
%TO.P,,D1,Pin_4*%
%TO.N,N/C*%
X120364201Y-79684173D03*
%TD*%
%TO.P,,D1,Pin_4*%
%TO.N,N/C*%
X158420000Y-67200000D03*
%TD*%
D12*
%TO.P,REF\u002A\u002A,1*%
%TO.N,N/C*%
X117780000Y-92380000D03*
%TO.P,REF\u002A\u002A,2*%
X120280000Y-92380000D03*
%TD*%
%TO.P,REF\u002A\u002A,1*%
%TO.N,N/C*%
X102446709Y-69771710D03*
%TO.P,REF\u002A\u002A,2*%
X104946709Y-69771710D03*
%TD*%
D11*
%TO.P,,D1,Pin_4*%
%TO.N,N/C*%
X110400000Y-49000000D03*
%TD*%
%TO.P,,D1,Pin_4*%
%TO.N,N/C*%
X112535799Y-54495827D03*
%TD*%
%TO.P,,D1,Pin_4*%
%TO.N,N/C*%
X175000000Y-68340000D03*
%TD*%
%TO.P,,D1,Pin_4*%
%TO.N,N/C*%
X102780000Y-49000000D03*
%TD*%
%TO.P,,D1,Pin_4*%
%TO.N,N/C*%
X120364201Y-77144173D03*
%TD*%
%TO.P,,D1,Pin_4*%
%TO.N,N/C*%
X105320000Y-49000000D03*
%TD*%
%TO.P,,D1,Pin_4*%
%TO.N,N/C*%
X172380000Y-82660000D03*
%TD*%
%TO.P,,D1,Pin_4*%
%TO.N,N/C*%
X139350000Y-54560000D03*
%TD*%
%TO.P,,D1,Pin_4*%
%TO.N,N/C*%
X107664201Y-77144173D03*
%TD*%
D12*
%TO.P,REF\u002A\u002A,1*%
%TO.N,N/C*%
X117615799Y-69740000D03*
%TO.P,REF\u002A\u002A,2*%
X120115799Y-69740000D03*
%TD*%
D15*
%TO.N,*%
X144300000Y-89500000D03*
X127500000Y-86500000D03*
X152300000Y-62800000D03*
X129100000Y-87800000D03*
X160300000Y-76500000D03*
X120000000Y-73300000D03*
X155900000Y-63300000D03*
X130100000Y-73200000D03*
X149800000Y-63000000D03*
X127500000Y-79600000D03*
X127500000Y-82300000D03*
%TO.N,GND*%
X103600000Y-85800000D03*
%TO.N,+5V*%
X138200000Y-89100000D03*
%TD*%
D16*
%TO.N,*%
X166800000Y-61700000D02*
X166900000Y-61600000D01*
X166900000Y-53100000D02*
X176200000Y-53100000D01*
X161200000Y-63300000D02*
X162800000Y-61700000D01*
X168600000Y-71600000D02*
X168600000Y-56600000D01*
X177300000Y-73900000D02*
X176820000Y-73420000D01*
X138500000Y-73200000D02*
X140100000Y-74800000D01*
X155900000Y-63300000D02*
X161200000Y-63300000D01*
X176200000Y-53100000D02*
X177300000Y-54200000D01*
X168700000Y-77900000D02*
X176900000Y-77900000D01*
X167300000Y-76500000D02*
X168700000Y-77900000D01*
X165400000Y-74800000D02*
X168600000Y-71600000D01*
X160300000Y-76500000D02*
X167300000Y-76500000D01*
X171600000Y-56600000D02*
X172100000Y-57100000D01*
X130100000Y-73200000D02*
X138500000Y-73200000D01*
X168600000Y-56600000D02*
X171600000Y-56600000D01*
X162800000Y-61700000D02*
X166800000Y-61700000D01*
X176820000Y-73420000D02*
X175000000Y-73420000D01*
X177300000Y-54200000D02*
X177300000Y-59780000D01*
X176900000Y-77900000D02*
X177300000Y-77500000D01*
X177300000Y-77500000D02*
X177300000Y-73900000D01*
X166900000Y-61600000D02*
X166900000Y-53100000D01*
X177300000Y-59780000D02*
X174900000Y-62180000D01*
X140100000Y-74800000D02*
X165400000Y-74800000D01*
%TO.N,GND*%
X100800000Y-83000000D02*
X103600000Y-85800000D01*
X104100000Y-74800000D02*
X100800000Y-74800000D01*
X104500000Y-74400000D02*
X104100000Y-74800000D01*
X109160000Y-69740000D02*
X104500000Y-74400000D01*
X100800000Y-74800000D02*
X100800000Y-83000000D01*
X117615799Y-69740000D02*
X109160000Y-69740000D01*
%TO.N,+5V*%
X130200000Y-94400000D02*
X136700000Y-87900000D01*
X129800000Y-94800000D02*
X130200000Y-94400000D01*
X105040000Y-92380000D02*
X105040000Y-94540000D01*
X105300000Y-94800000D02*
X129800000Y-94800000D01*
X105040000Y-94540000D02*
X105300000Y-94800000D01*
X138100000Y-91944888D02*
X138244888Y-91800000D01*
X138200000Y-89100000D02*
X138244888Y-89144888D01*
X137000000Y-87900000D02*
X138200000Y-89100000D01*
X136700000Y-87900000D02*
X137000000Y-87900000D01*
X138100000Y-97460000D02*
X138100000Y-91944888D01*
X138244888Y-89144888D02*
X138244888Y-91800000D01*
%TO.N,/12*%
X122100000Y-71900000D02*
X122100000Y-51500000D01*
X110368374Y-71900000D02*
X122100000Y-71900000D01*
X122100000Y-51500000D02*
X131100000Y-51500000D01*
X106368374Y-75900000D02*
X108134187Y-74134187D01*
X131496000Y-51104000D02*
X131496000Y-49200000D01*
X131100000Y-51500000D02*
X131496000Y-51104000D01*
X108134187Y-74134187D02*
X105124201Y-77144173D01*
X108134187Y-74134187D02*
X110368374Y-71900000D01*
%TO.N,/\u002A6*%
X126650000Y-54560000D02*
X128710000Y-52500000D01*
X128710000Y-52500000D02*
X147000000Y-52500000D01*
X148260000Y-51240000D02*
X148260000Y-49200000D01*
X147000000Y-52500000D02*
X148260000Y-51240000D01*
%TO.N,VCC*%
X166500000Y-95100000D02*
X148080000Y-95100000D01*
X125080000Y-92380000D02*
X120280000Y-92380000D01*
X140600000Y-73300000D02*
X140500000Y-73300000D01*
X125080000Y-92380000D02*
X125080000Y-76020000D01*
X142600000Y-92500000D02*
X142600000Y-86600000D01*
X163460000Y-72440000D02*
X163460000Y-69740000D01*
X166955113Y-95555113D02*
X166500000Y-95100000D01*
X176900000Y-97000000D02*
X172744887Y-97000000D01*
X148080000Y-95100000D02*
X145720000Y-97460000D01*
X127800000Y-73300000D02*
X129600000Y-71500000D01*
X141850000Y-71950000D02*
X141850000Y-69800000D01*
X129600000Y-71500000D02*
X138700000Y-71500000D01*
X162600000Y-73300000D02*
X163460000Y-72440000D01*
X134400000Y-86600000D02*
X128620000Y-92380000D01*
X128620000Y-92380000D02*
X125080000Y-92380000D01*
X127800000Y-73300000D02*
X120000000Y-73300000D01*
X172744887Y-97000000D02*
X171300000Y-95555113D01*
X148080000Y-95100000D02*
X145200000Y-95100000D01*
X145200000Y-95100000D02*
X142600000Y-92500000D01*
X125080000Y-76020000D02*
X127800000Y-73300000D01*
X140500000Y-73300000D02*
X162600000Y-73300000D01*
X138700000Y-71500000D02*
X140500000Y-73300000D01*
X140500000Y-73300000D02*
X141850000Y-71950000D01*
X171300000Y-95555113D02*
X166955113Y-95555113D01*
X142600000Y-86600000D02*
X134400000Y-86600000D01*
%TD*%
M02*
