%TF.GenerationSoftware,KiCad,Pcbnew,(6.0.6)*%
%TF.CreationDate,2022-07-08T17:20:42+08:00*%
%TF.ProjectId,Stepper,53746570-7065-4722-9e6b-696361645f70,rev?*%
%TF.SameCoordinates,Original*%
%TF.FileFunction,Legend,Bot*%
%TF.FilePolarity,Positive*%
%FSLAX46Y46*%
G04 Gerber Fmt 4.6, Leading zero omitted, Abs format (unit mm)*
G04 Created by KiCad (PCBNEW (6.0.6)) date 2022-07-08 17:20:42*
%MOMM*%
%LPD*%
G01*
G04 APERTURE LIST*
%ADD10C,0.150000*%
G04 APERTURE END LIST*
D10*
X175576190Y-98528571D02*
X175433333Y-98576190D01*
X175385714Y-98623809D01*
X175338095Y-98719047D01*
X175338095Y-98861904D01*
X175385714Y-98957142D01*
X175433333Y-99004761D01*
X175528571Y-99052380D01*
X175909523Y-99052380D01*
X175909523Y-98052380D01*
X175576190Y-98052380D01*
X175480952Y-98100000D01*
X175433333Y-98147619D01*
X175385714Y-98242857D01*
X175385714Y-98338095D01*
X175433333Y-98433333D01*
X175480952Y-98480952D01*
X175576190Y-98528571D01*
X175909523Y-98528571D01*
X175004761Y-98385714D02*
X174766666Y-99052380D01*
X174528571Y-98385714D02*
X174766666Y-99052380D01*
X174861904Y-99290476D01*
X174909523Y-99338095D01*
X175004761Y-99385714D01*
X173480952Y-98052380D02*
X173242857Y-99052380D01*
X173052380Y-98338095D01*
X172861904Y-99052380D01*
X172623809Y-98052380D01*
X172242857Y-99052380D02*
X172242857Y-98385714D01*
X172242857Y-98052380D02*
X172290476Y-98100000D01*
X172242857Y-98147619D01*
X172195238Y-98100000D01*
X172242857Y-98052380D01*
X172242857Y-98147619D01*
X171623809Y-99052380D02*
X171719047Y-99004761D01*
X171766666Y-98909523D01*
X171766666Y-98052380D01*
X171338095Y-98385714D02*
X171147619Y-99052380D01*
X170957142Y-98576190D01*
X170766666Y-99052380D01*
X170576190Y-98385714D01*
X170195238Y-99052380D02*
X170195238Y-98385714D01*
X170195238Y-98052380D02*
X170242857Y-98100000D01*
X170195238Y-98147619D01*
X170147619Y-98100000D01*
X170195238Y-98052380D01*
X170195238Y-98147619D01*
X169719047Y-98385714D02*
X169719047Y-99052380D01*
X169719047Y-98480952D02*
X169671428Y-98433333D01*
X169576190Y-98385714D01*
X169433333Y-98385714D01*
X169338095Y-98433333D01*
X169290476Y-98528571D01*
X169290476Y-99052380D01*
X153433333Y-61447142D02*
X153480952Y-61494761D01*
X153623809Y-61542380D01*
X153719047Y-61542380D01*
X153861904Y-61494761D01*
X153957142Y-61399523D01*
X154004761Y-61304285D01*
X154052380Y-61113809D01*
X154052380Y-60970952D01*
X154004761Y-60780476D01*
X153957142Y-60685238D01*
X153861904Y-60590000D01*
X153719047Y-60542380D01*
X153623809Y-60542380D01*
X153480952Y-60590000D01*
X153433333Y-60637619D01*
X152861904Y-61542380D02*
X152957142Y-61494761D01*
X153004761Y-61447142D01*
X153052380Y-61351904D01*
X153052380Y-61066190D01*
X153004761Y-60970952D01*
X152957142Y-60923333D01*
X152861904Y-60875714D01*
X152719047Y-60875714D01*
X152623809Y-60923333D01*
X152576190Y-60970952D01*
X152528571Y-61066190D01*
X152528571Y-61351904D01*
X152576190Y-61447142D01*
X152623809Y-61494761D01*
X152719047Y-61542380D01*
X152861904Y-61542380D01*
X152100000Y-60875714D02*
X152100000Y-61542380D01*
X152100000Y-60970952D02*
X152052380Y-60923333D01*
X151957142Y-60875714D01*
X151814285Y-60875714D01*
X151719047Y-60923333D01*
X151671428Y-61018571D01*
X151671428Y-61542380D01*
X151195238Y-60875714D02*
X151195238Y-61542380D01*
X151195238Y-60970952D02*
X151147619Y-60923333D01*
X151052380Y-60875714D01*
X150909523Y-60875714D01*
X150814285Y-60923333D01*
X150766666Y-61018571D01*
X150766666Y-61542380D01*
X149909523Y-61494761D02*
X150004761Y-61542380D01*
X150195238Y-61542380D01*
X150290476Y-61494761D01*
X150338095Y-61399523D01*
X150338095Y-61018571D01*
X150290476Y-60923333D01*
X150195238Y-60875714D01*
X150004761Y-60875714D01*
X149909523Y-60923333D01*
X149861904Y-61018571D01*
X149861904Y-61113809D01*
X150338095Y-61209047D01*
X149004761Y-61494761D02*
X149100000Y-61542380D01*
X149290476Y-61542380D01*
X149385714Y-61494761D01*
X149433333Y-61447142D01*
X149480952Y-61351904D01*
X149480952Y-61066190D01*
X149433333Y-60970952D01*
X149385714Y-60923333D01*
X149290476Y-60875714D01*
X149100000Y-60875714D01*
X149004761Y-60923333D01*
X148719047Y-60875714D02*
X148338095Y-60875714D01*
X148576190Y-60542380D02*
X148576190Y-61399523D01*
X148528571Y-61494761D01*
X148433333Y-61542380D01*
X148338095Y-61542380D01*
X147385714Y-60875714D02*
X147004761Y-60875714D01*
X147242857Y-60542380D02*
X147242857Y-61399523D01*
X147195238Y-61494761D01*
X147100000Y-61542380D01*
X147004761Y-61542380D01*
X146671428Y-61542380D02*
X146671428Y-60542380D01*
X146242857Y-61542380D02*
X146242857Y-61018571D01*
X146290476Y-60923333D01*
X146385714Y-60875714D01*
X146528571Y-60875714D01*
X146623809Y-60923333D01*
X146671428Y-60970952D01*
X145766666Y-61542380D02*
X145766666Y-60875714D01*
X145766666Y-60542380D02*
X145814285Y-60590000D01*
X145766666Y-60637619D01*
X145719047Y-60590000D01*
X145766666Y-60542380D01*
X145766666Y-60637619D01*
X145338095Y-61494761D02*
X145242857Y-61542380D01*
X145052380Y-61542380D01*
X144957142Y-61494761D01*
X144909523Y-61399523D01*
X144909523Y-61351904D01*
X144957142Y-61256666D01*
X145052380Y-61209047D01*
X145195238Y-61209047D01*
X145290476Y-61161428D01*
X145338095Y-61066190D01*
X145338095Y-61018571D01*
X145290476Y-60923333D01*
X145195238Y-60875714D01*
X145052380Y-60875714D01*
X144957142Y-60923333D01*
X143766666Y-61494761D02*
X143671428Y-61542380D01*
X143480952Y-61542380D01*
X143385714Y-61494761D01*
X143338095Y-61399523D01*
X143338095Y-61351904D01*
X143385714Y-61256666D01*
X143480952Y-61209047D01*
X143623809Y-61209047D01*
X143719047Y-61161428D01*
X143766666Y-61066190D01*
X143766666Y-61018571D01*
X143719047Y-60923333D01*
X143623809Y-60875714D01*
X143480952Y-60875714D01*
X143385714Y-60923333D01*
X142909523Y-61542380D02*
X142909523Y-60542380D01*
X142480952Y-61542380D02*
X142480952Y-61018571D01*
X142528571Y-60923333D01*
X142623809Y-60875714D01*
X142766666Y-60875714D01*
X142861904Y-60923333D01*
X142909523Y-60970952D01*
X142004761Y-61542380D02*
X142004761Y-60875714D01*
X142004761Y-60542380D02*
X142052380Y-60590000D01*
X142004761Y-60637619D01*
X141957142Y-60590000D01*
X142004761Y-60542380D01*
X142004761Y-60637619D01*
X141147619Y-61494761D02*
X141242857Y-61542380D01*
X141433333Y-61542380D01*
X141528571Y-61494761D01*
X141576190Y-61399523D01*
X141576190Y-61018571D01*
X141528571Y-60923333D01*
X141433333Y-60875714D01*
X141242857Y-60875714D01*
X141147619Y-60923333D01*
X141100000Y-61018571D01*
X141100000Y-61113809D01*
X141576190Y-61209047D01*
X140528571Y-61542380D02*
X140623809Y-61494761D01*
X140671428Y-61399523D01*
X140671428Y-60542380D01*
X139719047Y-61542380D02*
X139719047Y-60542380D01*
X139719047Y-61494761D02*
X139814285Y-61542380D01*
X140004761Y-61542380D01*
X140100000Y-61494761D01*
X140147619Y-61447142D01*
X140195238Y-61351904D01*
X140195238Y-61066190D01*
X140147619Y-60970952D01*
X140100000Y-60923333D01*
X140004761Y-60875714D01*
X139814285Y-60875714D01*
X139719047Y-60923333D01*
X138623809Y-60875714D02*
X138242857Y-60875714D01*
X138480952Y-60542380D02*
X138480952Y-61399523D01*
X138433333Y-61494761D01*
X138338095Y-61542380D01*
X138242857Y-61542380D01*
X137766666Y-61542380D02*
X137861904Y-61494761D01*
X137909523Y-61447142D01*
X137957142Y-61351904D01*
X137957142Y-61066190D01*
X137909523Y-60970952D01*
X137861904Y-60923333D01*
X137766666Y-60875714D01*
X137623809Y-60875714D01*
X137528571Y-60923333D01*
X137480952Y-60970952D01*
X137433333Y-61066190D01*
X137433333Y-61351904D01*
X137480952Y-61447142D01*
X137528571Y-61494761D01*
X137623809Y-61542380D01*
X137766666Y-61542380D01*
X135814285Y-61542380D02*
X135814285Y-61018571D01*
X135861904Y-60923333D01*
X135957142Y-60875714D01*
X136147619Y-60875714D01*
X136242857Y-60923333D01*
X135814285Y-61494761D02*
X135909523Y-61542380D01*
X136147619Y-61542380D01*
X136242857Y-61494761D01*
X136290476Y-61399523D01*
X136290476Y-61304285D01*
X136242857Y-61209047D01*
X136147619Y-61161428D01*
X135909523Y-61161428D01*
X135814285Y-61113809D01*
X135338095Y-60875714D02*
X135338095Y-61542380D01*
X135338095Y-60970952D02*
X135290476Y-60923333D01*
X135195238Y-60875714D01*
X135052380Y-60875714D01*
X134957142Y-60923333D01*
X134909523Y-61018571D01*
X134909523Y-61542380D01*
X133719047Y-61256666D02*
X133242857Y-61256666D01*
X133814285Y-61542380D02*
X133480952Y-60542380D01*
X133147619Y-61542380D01*
X132814285Y-61542380D02*
X132814285Y-60875714D01*
X132814285Y-61066190D02*
X132766666Y-60970952D01*
X132719047Y-60923333D01*
X132623809Y-60875714D01*
X132528571Y-60875714D01*
X131766666Y-61542380D02*
X131766666Y-60542380D01*
X131766666Y-61494761D02*
X131861904Y-61542380D01*
X132052380Y-61542380D01*
X132147619Y-61494761D01*
X132195238Y-61447142D01*
X132242857Y-61351904D01*
X132242857Y-61066190D01*
X132195238Y-60970952D01*
X132147619Y-60923333D01*
X132052380Y-60875714D01*
X131861904Y-60875714D01*
X131766666Y-60923333D01*
X130861904Y-60875714D02*
X130861904Y-61542380D01*
X131290476Y-60875714D02*
X131290476Y-61399523D01*
X131242857Y-61494761D01*
X131147619Y-61542380D01*
X131004761Y-61542380D01*
X130909523Y-61494761D01*
X130861904Y-61447142D01*
X130385714Y-61542380D02*
X130385714Y-60875714D01*
X130385714Y-60542380D02*
X130433333Y-60590000D01*
X130385714Y-60637619D01*
X130338095Y-60590000D01*
X130385714Y-60542380D01*
X130385714Y-60637619D01*
X129909523Y-60875714D02*
X129909523Y-61542380D01*
X129909523Y-60970952D02*
X129861904Y-60923333D01*
X129766666Y-60875714D01*
X129623809Y-60875714D01*
X129528571Y-60923333D01*
X129480952Y-61018571D01*
X129480952Y-61542380D01*
X128861904Y-61542380D02*
X128957142Y-61494761D01*
X129004761Y-61447142D01*
X129052380Y-61351904D01*
X129052380Y-61066190D01*
X129004761Y-60970952D01*
X128957142Y-60923333D01*
X128861904Y-60875714D01*
X128719047Y-60875714D01*
X128623809Y-60923333D01*
X128576190Y-60970952D01*
X128528571Y-61066190D01*
X128528571Y-61351904D01*
X128576190Y-61447142D01*
X128623809Y-61494761D01*
X128719047Y-61542380D01*
X128861904Y-61542380D01*
X127338095Y-60542380D02*
X127338095Y-61351904D01*
X127290476Y-61447142D01*
X127242857Y-61494761D01*
X127147619Y-61542380D01*
X126957142Y-61542380D01*
X126861904Y-61494761D01*
X126814285Y-61447142D01*
X126766666Y-61351904D01*
X126766666Y-60542380D01*
X126290476Y-60875714D02*
X126290476Y-61542380D01*
X126290476Y-60970952D02*
X126242857Y-60923333D01*
X126147619Y-60875714D01*
X126004761Y-60875714D01*
X125909523Y-60923333D01*
X125861904Y-61018571D01*
X125861904Y-61542380D01*
X125242857Y-61542380D02*
X125338095Y-61494761D01*
X125385714Y-61447142D01*
X125433333Y-61351904D01*
X125433333Y-61066190D01*
X125385714Y-60970952D01*
X125338095Y-60923333D01*
X125242857Y-60875714D01*
X125100000Y-60875714D01*
X125004761Y-60923333D01*
X124957142Y-60970952D01*
X124909523Y-61066190D01*
X124909523Y-61351904D01*
X124957142Y-61447142D01*
X125004761Y-61494761D01*
X125100000Y-61542380D01*
X125242857Y-61542380D01*
X150980952Y-62152380D02*
X150980952Y-62961904D01*
X150933333Y-63057142D01*
X150885714Y-63104761D01*
X150790476Y-63152380D01*
X150600000Y-63152380D01*
X150504761Y-63104761D01*
X150457142Y-63057142D01*
X150409523Y-62961904D01*
X150409523Y-62152380D01*
X149980952Y-63104761D02*
X149885714Y-63152380D01*
X149695238Y-63152380D01*
X149600000Y-63104761D01*
X149552380Y-63009523D01*
X149552380Y-62961904D01*
X149600000Y-62866666D01*
X149695238Y-62819047D01*
X149838095Y-62819047D01*
X149933333Y-62771428D01*
X149980952Y-62676190D01*
X149980952Y-62628571D01*
X149933333Y-62533333D01*
X149838095Y-62485714D01*
X149695238Y-62485714D01*
X149600000Y-62533333D01*
X148742857Y-63104761D02*
X148838095Y-63152380D01*
X149028571Y-63152380D01*
X149123809Y-63104761D01*
X149171428Y-63009523D01*
X149171428Y-62628571D01*
X149123809Y-62533333D01*
X149028571Y-62485714D01*
X148838095Y-62485714D01*
X148742857Y-62533333D01*
X148695238Y-62628571D01*
X148695238Y-62723809D01*
X149171428Y-62819047D01*
X147552380Y-63104761D02*
X147457142Y-63152380D01*
X147266666Y-63152380D01*
X147171428Y-63104761D01*
X147123809Y-63009523D01*
X147123809Y-62961904D01*
X147171428Y-62866666D01*
X147266666Y-62819047D01*
X147409523Y-62819047D01*
X147504761Y-62771428D01*
X147552380Y-62676190D01*
X147552380Y-62628571D01*
X147504761Y-62533333D01*
X147409523Y-62485714D01*
X147266666Y-62485714D01*
X147171428Y-62533333D01*
X146838095Y-62485714D02*
X146457142Y-62485714D01*
X146695238Y-62152380D02*
X146695238Y-63009523D01*
X146647619Y-63104761D01*
X146552380Y-63152380D01*
X146457142Y-63152380D01*
X145695238Y-63152380D02*
X145695238Y-62628571D01*
X145742857Y-62533333D01*
X145838095Y-62485714D01*
X146028571Y-62485714D01*
X146123809Y-62533333D01*
X145695238Y-63104761D02*
X145790476Y-63152380D01*
X146028571Y-63152380D01*
X146123809Y-63104761D01*
X146171428Y-63009523D01*
X146171428Y-62914285D01*
X146123809Y-62819047D01*
X146028571Y-62771428D01*
X145790476Y-62771428D01*
X145695238Y-62723809D01*
X145219047Y-63152380D02*
X145219047Y-62152380D01*
X145219047Y-62533333D02*
X145123809Y-62485714D01*
X144933333Y-62485714D01*
X144838095Y-62533333D01*
X144790476Y-62580952D01*
X144742857Y-62676190D01*
X144742857Y-62961904D01*
X144790476Y-63057142D01*
X144838095Y-63104761D01*
X144933333Y-63152380D01*
X145123809Y-63152380D01*
X145219047Y-63104761D01*
X144171428Y-63152380D02*
X144266666Y-63104761D01*
X144314285Y-63009523D01*
X144314285Y-62152380D01*
X143409523Y-63104761D02*
X143504761Y-63152380D01*
X143695238Y-63152380D01*
X143790476Y-63104761D01*
X143838095Y-63009523D01*
X143838095Y-62628571D01*
X143790476Y-62533333D01*
X143695238Y-62485714D01*
X143504761Y-62485714D01*
X143409523Y-62533333D01*
X143361904Y-62628571D01*
X143361904Y-62723809D01*
X143838095Y-62819047D01*
X142171428Y-62771428D02*
X141409523Y-62771428D01*
X141790476Y-63152380D02*
X141790476Y-62390476D01*
X140409523Y-63152380D02*
X140980952Y-63152380D01*
X140695238Y-63152380D02*
X140695238Y-62152380D01*
X140790476Y-62295238D01*
X140885714Y-62390476D01*
X140980952Y-62438095D01*
X140028571Y-62247619D02*
X139980952Y-62200000D01*
X139885714Y-62152380D01*
X139647619Y-62152380D01*
X139552380Y-62200000D01*
X139504761Y-62247619D01*
X139457142Y-62342857D01*
X139457142Y-62438095D01*
X139504761Y-62580952D01*
X140076190Y-63152380D01*
X139457142Y-63152380D01*
X138409523Y-62152380D02*
X138076190Y-63152380D01*
X137742857Y-62152380D01*
X136647619Y-62485714D02*
X136647619Y-63485714D01*
X136647619Y-62533333D02*
X136552380Y-62485714D01*
X136361904Y-62485714D01*
X136266666Y-62533333D01*
X136219047Y-62580952D01*
X136171428Y-62676190D01*
X136171428Y-62961904D01*
X136219047Y-63057142D01*
X136266666Y-63104761D01*
X136361904Y-63152380D01*
X136552380Y-63152380D01*
X136647619Y-63104761D01*
X135600000Y-63152380D02*
X135695238Y-63104761D01*
X135742857Y-63057142D01*
X135790476Y-62961904D01*
X135790476Y-62676190D01*
X135742857Y-62580952D01*
X135695238Y-62533333D01*
X135600000Y-62485714D01*
X135457142Y-62485714D01*
X135361904Y-62533333D01*
X135314285Y-62580952D01*
X135266666Y-62676190D01*
X135266666Y-62961904D01*
X135314285Y-63057142D01*
X135361904Y-63104761D01*
X135457142Y-63152380D01*
X135600000Y-63152380D01*
X134933333Y-62485714D02*
X134742857Y-63152380D01*
X134552380Y-62676190D01*
X134361904Y-63152380D01*
X134171428Y-62485714D01*
X133409523Y-63104761D02*
X133504761Y-63152380D01*
X133695238Y-63152380D01*
X133790476Y-63104761D01*
X133838095Y-63009523D01*
X133838095Y-62628571D01*
X133790476Y-62533333D01*
X133695238Y-62485714D01*
X133504761Y-62485714D01*
X133409523Y-62533333D01*
X133361904Y-62628571D01*
X133361904Y-62723809D01*
X133838095Y-62819047D01*
X132933333Y-63152380D02*
X132933333Y-62485714D01*
X132933333Y-62676190D02*
X132885714Y-62580952D01*
X132838095Y-62533333D01*
X132742857Y-62485714D01*
X132647619Y-62485714D01*
X131600000Y-63104761D02*
X131504761Y-63152380D01*
X131314285Y-63152380D01*
X131219047Y-63104761D01*
X131171428Y-63009523D01*
X131171428Y-62961904D01*
X131219047Y-62866666D01*
X131314285Y-62819047D01*
X131457142Y-62819047D01*
X131552380Y-62771428D01*
X131600000Y-62676190D01*
X131600000Y-62628571D01*
X131552380Y-62533333D01*
X131457142Y-62485714D01*
X131314285Y-62485714D01*
X131219047Y-62533333D01*
X130314285Y-62485714D02*
X130314285Y-63152380D01*
X130742857Y-62485714D02*
X130742857Y-63009523D01*
X130695238Y-63104761D01*
X130600000Y-63152380D01*
X130457142Y-63152380D01*
X130361904Y-63104761D01*
X130314285Y-63057142D01*
X129838095Y-62485714D02*
X129838095Y-63485714D01*
X129838095Y-62533333D02*
X129742857Y-62485714D01*
X129552380Y-62485714D01*
X129457142Y-62533333D01*
X129409523Y-62580952D01*
X129361904Y-62676190D01*
X129361904Y-62961904D01*
X129409523Y-63057142D01*
X129457142Y-63104761D01*
X129552380Y-63152380D01*
X129742857Y-63152380D01*
X129838095Y-63104761D01*
X128933333Y-62485714D02*
X128933333Y-63485714D01*
X128933333Y-62533333D02*
X128838095Y-62485714D01*
X128647619Y-62485714D01*
X128552380Y-62533333D01*
X128504761Y-62580952D01*
X128457142Y-62676190D01*
X128457142Y-62961904D01*
X128504761Y-63057142D01*
X128552380Y-63104761D01*
X128647619Y-63152380D01*
X128838095Y-63152380D01*
X128933333Y-63104761D01*
X127885714Y-63152380D02*
X127980952Y-63104761D01*
X128028571Y-63009523D01*
X128028571Y-62152380D01*
X127600000Y-62485714D02*
X127361904Y-63152380D01*
X127123809Y-62485714D02*
X127361904Y-63152380D01*
X127457142Y-63390476D01*
X127504761Y-63438095D01*
X127600000Y-63485714D01*
X151433333Y-64714761D02*
X151290476Y-64762380D01*
X151052380Y-64762380D01*
X150957142Y-64714761D01*
X150909523Y-64667142D01*
X150861904Y-64571904D01*
X150861904Y-64476666D01*
X150909523Y-64381428D01*
X150957142Y-64333809D01*
X151052380Y-64286190D01*
X151242857Y-64238571D01*
X151338095Y-64190952D01*
X151385714Y-64143333D01*
X151433333Y-64048095D01*
X151433333Y-63952857D01*
X151385714Y-63857619D01*
X151338095Y-63810000D01*
X151242857Y-63762380D01*
X151004761Y-63762380D01*
X150861904Y-63810000D01*
X150576190Y-64095714D02*
X150195238Y-64095714D01*
X150433333Y-63762380D02*
X150433333Y-64619523D01*
X150385714Y-64714761D01*
X150290476Y-64762380D01*
X150195238Y-64762380D01*
X149480952Y-64714761D02*
X149576190Y-64762380D01*
X149766666Y-64762380D01*
X149861904Y-64714761D01*
X149909523Y-64619523D01*
X149909523Y-64238571D01*
X149861904Y-64143333D01*
X149766666Y-64095714D01*
X149576190Y-64095714D01*
X149480952Y-64143333D01*
X149433333Y-64238571D01*
X149433333Y-64333809D01*
X149909523Y-64429047D01*
X149004761Y-64095714D02*
X149004761Y-65095714D01*
X149004761Y-64143333D02*
X148909523Y-64095714D01*
X148719047Y-64095714D01*
X148623809Y-64143333D01*
X148576190Y-64190952D01*
X148528571Y-64286190D01*
X148528571Y-64571904D01*
X148576190Y-64667142D01*
X148623809Y-64714761D01*
X148719047Y-64762380D01*
X148909523Y-64762380D01*
X149004761Y-64714761D01*
X148100000Y-64095714D02*
X148100000Y-65095714D01*
X148100000Y-64143333D02*
X148004761Y-64095714D01*
X147814285Y-64095714D01*
X147719047Y-64143333D01*
X147671428Y-64190952D01*
X147623809Y-64286190D01*
X147623809Y-64571904D01*
X147671428Y-64667142D01*
X147719047Y-64714761D01*
X147814285Y-64762380D01*
X148004761Y-64762380D01*
X148100000Y-64714761D01*
X146814285Y-64714761D02*
X146909523Y-64762380D01*
X147100000Y-64762380D01*
X147195238Y-64714761D01*
X147242857Y-64619523D01*
X147242857Y-64238571D01*
X147195238Y-64143333D01*
X147100000Y-64095714D01*
X146909523Y-64095714D01*
X146814285Y-64143333D01*
X146766666Y-64238571D01*
X146766666Y-64333809D01*
X147242857Y-64429047D01*
X146338095Y-64762380D02*
X146338095Y-64095714D01*
X146338095Y-64286190D02*
X146290476Y-64190952D01*
X146242857Y-64143333D01*
X146147619Y-64095714D01*
X146052380Y-64095714D01*
X144957142Y-64762380D02*
X144957142Y-64095714D01*
X144957142Y-64190952D02*
X144909523Y-64143333D01*
X144814285Y-64095714D01*
X144671428Y-64095714D01*
X144576190Y-64143333D01*
X144528571Y-64238571D01*
X144528571Y-64762380D01*
X144528571Y-64238571D02*
X144480952Y-64143333D01*
X144385714Y-64095714D01*
X144242857Y-64095714D01*
X144147619Y-64143333D01*
X144100000Y-64238571D01*
X144100000Y-64762380D01*
X143480952Y-64762380D02*
X143576190Y-64714761D01*
X143623809Y-64667142D01*
X143671428Y-64571904D01*
X143671428Y-64286190D01*
X143623809Y-64190952D01*
X143576190Y-64143333D01*
X143480952Y-64095714D01*
X143338095Y-64095714D01*
X143242857Y-64143333D01*
X143195238Y-64190952D01*
X143147619Y-64286190D01*
X143147619Y-64571904D01*
X143195238Y-64667142D01*
X143242857Y-64714761D01*
X143338095Y-64762380D01*
X143480952Y-64762380D01*
X142861904Y-64095714D02*
X142480952Y-64095714D01*
X142719047Y-63762380D02*
X142719047Y-64619523D01*
X142671428Y-64714761D01*
X142576190Y-64762380D01*
X142480952Y-64762380D01*
X142004761Y-64762380D02*
X142100000Y-64714761D01*
X142147619Y-64667142D01*
X142195238Y-64571904D01*
X142195238Y-64286190D01*
X142147619Y-64190952D01*
X142100000Y-64143333D01*
X142004761Y-64095714D01*
X141861904Y-64095714D01*
X141766666Y-64143333D01*
X141719047Y-64190952D01*
X141671428Y-64286190D01*
X141671428Y-64571904D01*
X141719047Y-64667142D01*
X141766666Y-64714761D01*
X141861904Y-64762380D01*
X142004761Y-64762380D01*
X141242857Y-64762380D02*
X141242857Y-64095714D01*
X141242857Y-64286190D02*
X141195238Y-64190952D01*
X141147619Y-64143333D01*
X141052380Y-64095714D01*
X140957142Y-64095714D01*
X139861904Y-64762380D02*
X139861904Y-64095714D01*
X139861904Y-64190952D02*
X139814285Y-64143333D01*
X139719047Y-64095714D01*
X139576190Y-64095714D01*
X139480952Y-64143333D01*
X139433333Y-64238571D01*
X139433333Y-64762380D01*
X139433333Y-64238571D02*
X139385714Y-64143333D01*
X139290476Y-64095714D01*
X139147619Y-64095714D01*
X139052380Y-64143333D01*
X139004761Y-64238571D01*
X139004761Y-64762380D01*
X138100000Y-64762380D02*
X138100000Y-64238571D01*
X138147619Y-64143333D01*
X138242857Y-64095714D01*
X138433333Y-64095714D01*
X138528571Y-64143333D01*
X138100000Y-64714761D02*
X138195238Y-64762380D01*
X138433333Y-64762380D01*
X138528571Y-64714761D01*
X138576190Y-64619523D01*
X138576190Y-64524285D01*
X138528571Y-64429047D01*
X138433333Y-64381428D01*
X138195238Y-64381428D01*
X138100000Y-64333809D01*
X137719047Y-64762380D02*
X137195238Y-64095714D01*
X137719047Y-64095714D02*
X137195238Y-64762380D01*
X136147619Y-64095714D02*
X135909523Y-64762380D01*
X135671428Y-64095714D01*
X135147619Y-64762380D02*
X135242857Y-64714761D01*
X135290476Y-64667142D01*
X135338095Y-64571904D01*
X135338095Y-64286190D01*
X135290476Y-64190952D01*
X135242857Y-64143333D01*
X135147619Y-64095714D01*
X135004761Y-64095714D01*
X134909523Y-64143333D01*
X134861904Y-64190952D01*
X134814285Y-64286190D01*
X134814285Y-64571904D01*
X134861904Y-64667142D01*
X134909523Y-64714761D01*
X135004761Y-64762380D01*
X135147619Y-64762380D01*
X134242857Y-64762380D02*
X134338095Y-64714761D01*
X134385714Y-64619523D01*
X134385714Y-63762380D01*
X134004761Y-64095714D02*
X133623809Y-64095714D01*
X133861904Y-63762380D02*
X133861904Y-64619523D01*
X133814285Y-64714761D01*
X133719047Y-64762380D01*
X133623809Y-64762380D01*
X132861904Y-64762380D02*
X132861904Y-64238571D01*
X132909523Y-64143333D01*
X133004761Y-64095714D01*
X133195238Y-64095714D01*
X133290476Y-64143333D01*
X132861904Y-64714761D02*
X132957142Y-64762380D01*
X133195238Y-64762380D01*
X133290476Y-64714761D01*
X133338095Y-64619523D01*
X133338095Y-64524285D01*
X133290476Y-64429047D01*
X133195238Y-64381428D01*
X132957142Y-64381428D01*
X132861904Y-64333809D01*
X131957142Y-64095714D02*
X131957142Y-64905238D01*
X132004761Y-65000476D01*
X132052380Y-65048095D01*
X132147619Y-65095714D01*
X132290476Y-65095714D01*
X132385714Y-65048095D01*
X131957142Y-64714761D02*
X132052380Y-64762380D01*
X132242857Y-64762380D01*
X132338095Y-64714761D01*
X132385714Y-64667142D01*
X132433333Y-64571904D01*
X132433333Y-64286190D01*
X132385714Y-64190952D01*
X132338095Y-64143333D01*
X132242857Y-64095714D01*
X132052380Y-64095714D01*
X131957142Y-64143333D01*
X131100000Y-64714761D02*
X131195238Y-64762380D01*
X131385714Y-64762380D01*
X131480952Y-64714761D01*
X131528571Y-64619523D01*
X131528571Y-64238571D01*
X131480952Y-64143333D01*
X131385714Y-64095714D01*
X131195238Y-64095714D01*
X131100000Y-64143333D01*
X131052380Y-64238571D01*
X131052380Y-64333809D01*
X131528571Y-64429047D01*
X129338095Y-64762380D02*
X129909523Y-64762380D01*
X129623809Y-64762380D02*
X129623809Y-63762380D01*
X129719047Y-63905238D01*
X129814285Y-64000476D01*
X129909523Y-64048095D01*
X128957142Y-63857619D02*
X128909523Y-63810000D01*
X128814285Y-63762380D01*
X128576190Y-63762380D01*
X128480952Y-63810000D01*
X128433333Y-63857619D01*
X128385714Y-63952857D01*
X128385714Y-64048095D01*
X128433333Y-64190952D01*
X129004761Y-64762380D01*
X128385714Y-64762380D01*
X127338095Y-63762380D02*
X127004761Y-64762380D01*
X126671428Y-63762380D01*
M02*
