%TF.GenerationSoftware,KiCad,Pcbnew,(6.0.6)*%
%TF.CreationDate,2022-07-08T17:21:04+08:00*%
%TF.ProjectId,Stepper,53746570-7065-4722-9e6b-696361645f70,rev?*%
%TF.SameCoordinates,Original*%
%TF.FileFunction,Soldermask,Top*%
%TF.FilePolarity,Negative*%
%FSLAX46Y46*%
G04 Gerber Fmt 4.6, Leading zero omitted, Abs format (unit mm)*
G04 Created by KiCad (PCBNEW (6.0.6)) date 2022-07-08 17:21:04*
%MOMM*%
%LPD*%
G01*
G04 APERTURE LIST*
%ADD10R,1.700000X1.700000*%
%ADD11O,1.700000X1.700000*%
%ADD12C,1.600000*%
%ADD13O,1.600000X1.600000*%
%ADD14C,3.200000*%
%ADD15R,1.600000X1.600000*%
G04 APERTURE END LIST*
D10*
%TO.C,J1*%
X127940000Y-97460000D03*
D11*
X130480000Y-97460000D03*
X133020000Y-97460000D03*
X135560000Y-97460000D03*
X138100000Y-97460000D03*
X140640000Y-97460000D03*
X143180000Y-97460000D03*
X145720000Y-97460000D03*
%TD*%
D10*
%TO.C,J3*%
X150800000Y-97460000D03*
D11*
X153340000Y-97460000D03*
X155880000Y-97460000D03*
X158420000Y-97460000D03*
X160960000Y-97460000D03*
X163500000Y-97460000D03*
%TD*%
D10*
%TO.C,J2*%
X118796000Y-49200000D03*
D11*
X121336000Y-49200000D03*
X123876000Y-49200000D03*
X126416000Y-49200000D03*
X128956000Y-49200000D03*
X131496000Y-49200000D03*
X134036000Y-49200000D03*
X136576000Y-49200000D03*
X139116000Y-49200000D03*
X141656000Y-49200000D03*
%TD*%
D10*
%TO.C,J4*%
X145720000Y-49200000D03*
D11*
X148260000Y-49200000D03*
X150800000Y-49200000D03*
X153340000Y-49200000D03*
X155880000Y-49200000D03*
X158420000Y-49200000D03*
X160960000Y-49200000D03*
X163500000Y-49200000D03*
%TD*%
%TO.C,*%
X120200000Y-57040000D03*
%TD*%
%TO.C,*%
X134270000Y-67260000D03*
%TD*%
%TO.C,*%
X174900000Y-79860000D03*
%TD*%
%TO.C,*%
X134225799Y-54555827D03*
%TD*%
%TO.C,*%
X131730000Y-67260000D03*
%TD*%
%TO.C,*%
X104960000Y-67200000D03*
%TD*%
%TO.C,*%
X172360000Y-79860000D03*
%TD*%
%TO.C,*%
X117824201Y-77144173D03*
%TD*%
%TO.C,*%
X112700000Y-77140000D03*
%TD*%
%TO.C,*%
X158491710Y-54571710D03*
%TD*%
D12*
%TO.C,REF\u002A\u002A*%
X139350000Y-69800000D03*
X141850000Y-69800000D03*
%TD*%
D11*
%TO.C,*%
X117660000Y-67200000D03*
%TD*%
%TO.C,*%
X148260000Y-54500000D03*
%TD*%
%TO.C,*%
X175000000Y-75960000D03*
%TD*%
%TO.C,*%
X148260000Y-67200000D03*
%TD*%
%TO.C,*%
X172100000Y-59640000D03*
%TD*%
%TO.C,*%
X105124201Y-77144173D03*
%TD*%
%TO.C,*%
X120364201Y-82224173D03*
%TD*%
%TO.C,*%
X139350000Y-67260000D03*
%TD*%
%TO.C,*%
X120200000Y-54500000D03*
%TD*%
%TO.C,*%
X150800000Y-67200000D03*
%TD*%
%TO.C,*%
X172100000Y-57100000D03*
%TD*%
%TO.C,*%
X175000000Y-70880000D03*
%TD*%
%TO.C,*%
X145720000Y-67200000D03*
%TD*%
%TO.C,*%
X163500000Y-67200000D03*
%TD*%
%TO.C,*%
X175000000Y-73420000D03*
%TD*%
%TO.C,*%
X150800000Y-54500000D03*
%TD*%
%TO.C,*%
X163500000Y-59580000D03*
%TD*%
%TO.C,*%
X124110000Y-54560000D03*
%TD*%
%TO.C,*%
X120200000Y-59580000D03*
%TD*%
D12*
%TO.C,REF\u002A\u002A*%
X160960000Y-69740000D03*
X163460000Y-69740000D03*
%TD*%
%TO.C,REF\u002A\u002A*%
X160000000Y-91310000D03*
D13*
X160000000Y-83690000D03*
%TD*%
D11*
%TO.C,*%
X126650000Y-67260000D03*
%TD*%
%TO.C,*%
X115355911Y-77215883D03*
%TD*%
%TO.C,*%
X110040000Y-54500000D03*
%TD*%
%TO.C,*%
X115191710Y-54571710D03*
%TD*%
%TO.C,*%
X141890000Y-67260000D03*
%TD*%
%TO.C,*%
X102584201Y-77144173D03*
%TD*%
%TO.C,*%
X172380000Y-88060000D03*
%TD*%
%TO.C,*%
X172380000Y-85260000D03*
%TD*%
%TO.C,*%
X174900000Y-59640000D03*
%TD*%
%TO.C,*%
X107860000Y-49000000D03*
%TD*%
%TO.C,*%
X172100000Y-62180000D03*
%TD*%
%TO.C,*%
X129190000Y-67260000D03*
%TD*%
%TO.C,*%
X102584201Y-89844173D03*
%TD*%
%TO.C,*%
X160960000Y-67200000D03*
%TD*%
%TO.C,*%
X131730000Y-54560000D03*
%TD*%
D12*
%TO.C,R 10 K*%
X152380000Y-91310000D03*
D13*
X152380000Y-83690000D03*
%TD*%
D11*
%TO.C,*%
X105124201Y-89844173D03*
%TD*%
%TO.C,*%
X172200000Y-70900000D03*
%TD*%
%TO.C,*%
X153340000Y-67200000D03*
%TD*%
%TO.C,*%
X141890000Y-54560000D03*
%TD*%
D14*
%TO.C,MH1*%
X115240000Y-49200000D03*
%TD*%
D11*
%TO.C,*%
X120200000Y-67200000D03*
%TD*%
%TO.C,*%
X117824201Y-89844173D03*
%TD*%
D15*
%TO.C,REF\u002A\u002A*%
X138244888Y-91800000D03*
D12*
X140244888Y-91800000D03*
%TD*%
D11*
%TO.C,*%
X104960000Y-54500000D03*
%TD*%
D12*
%TO.C,REF\u002A\u002A*%
X154920000Y-91310000D03*
D13*
X154920000Y-83690000D03*
%TD*%
D11*
%TO.C,*%
X174920000Y-85260000D03*
%TD*%
%TO.C,*%
X102420000Y-54500000D03*
%TD*%
%TO.C,*%
X163500000Y-57040000D03*
%TD*%
%TO.C,*%
X172200000Y-68360000D03*
%TD*%
%TO.C,*%
X174900000Y-64720000D03*
%TD*%
%TO.C,*%
X136881710Y-54631710D03*
%TD*%
%TO.C,*%
X155880000Y-67200000D03*
%TD*%
%TO.C,*%
X174920000Y-88060000D03*
%TD*%
%TO.C,*%
X141890000Y-59640000D03*
%TD*%
D12*
%TO.C,REF\u002A\u002A*%
X157460000Y-91310000D03*
D13*
X157460000Y-83690000D03*
%TD*%
D11*
%TO.C,*%
X110040000Y-67200000D03*
%TD*%
%TO.C,*%
X136810000Y-67260000D03*
%TD*%
%TO.C,*%
X172200000Y-73440000D03*
%TD*%
%TO.C,*%
X174900000Y-57100000D03*
%TD*%
%TO.C,*%
X160960000Y-54500000D03*
%TD*%
%TO.C,*%
X115120000Y-67200000D03*
%TD*%
%TO.C,*%
X124110000Y-67260000D03*
%TD*%
%TO.C,*%
X120364201Y-89844173D03*
%TD*%
%TO.C,*%
X107664201Y-89844173D03*
%TD*%
%TO.C,*%
X129190000Y-54560000D03*
%TD*%
%TO.C,*%
X117660000Y-54500000D03*
%TD*%
%TO.C,*%
X155835799Y-54495827D03*
%TD*%
%TO.C,*%
X163500000Y-54500000D03*
%TD*%
%TO.C,*%
X174900000Y-62180000D03*
%TD*%
D12*
%TO.C,REF\u002A\u002A*%
X145760000Y-69740000D03*
X148260000Y-69740000D03*
%TD*%
D11*
%TO.C,*%
X176900000Y-92400000D03*
%TD*%
%TO.C,*%
X115284201Y-89844173D03*
%TD*%
%TO.C,*%
X126650000Y-54560000D03*
%TD*%
D15*
%TO.C,C*%
X171300000Y-95555113D03*
D12*
X171300000Y-93555113D03*
%TD*%
D11*
%TO.C,*%
X112580000Y-67200000D03*
%TD*%
%TO.C,*%
X174920000Y-82660000D03*
%TD*%
D12*
%TO.C,REF\u002A\u002A*%
X124110000Y-69800000D03*
X126610000Y-69800000D03*
%TD*%
D11*
%TO.C,*%
X107500000Y-54500000D03*
%TD*%
%TO.C,*%
X110204201Y-77144173D03*
%TD*%
%TO.C,*%
X153340000Y-54500000D03*
%TD*%
%TO.C,*%
X176900000Y-97000000D03*
%TD*%
%TO.C,*%
X102420000Y-67200000D03*
%TD*%
%TO.C,*%
X110204201Y-89844173D03*
%TD*%
D12*
%TO.C,REF\u002A\u002A*%
X102540000Y-92380000D03*
X105040000Y-92380000D03*
%TD*%
D11*
%TO.C,*%
X172200000Y-75980000D03*
%TD*%
%TO.C,*%
X112744201Y-89844173D03*
%TD*%
%TO.C,*%
X107500000Y-67200000D03*
%TD*%
%TO.C,*%
X141890000Y-57100000D03*
%TD*%
%TO.C,*%
X172100000Y-64720000D03*
%TD*%
%TO.C,*%
X145720000Y-54500000D03*
%TD*%
%TO.C,*%
X120364201Y-79684173D03*
%TD*%
%TO.C,*%
X158420000Y-67200000D03*
%TD*%
D12*
%TO.C,REF\u002A\u002A*%
X117780000Y-92380000D03*
X120280000Y-92380000D03*
%TD*%
%TO.C,REF\u002A\u002A*%
X102446709Y-69771710D03*
X104946709Y-69771710D03*
%TD*%
D11*
%TO.C,*%
X110400000Y-49000000D03*
%TD*%
D14*
%TO.C,MH2*%
X113970000Y-97460000D03*
%TD*%
D11*
%TO.C,*%
X112535799Y-54495827D03*
%TD*%
%TO.C,*%
X175000000Y-68340000D03*
%TD*%
%TO.C,*%
X102780000Y-49000000D03*
%TD*%
%TO.C,*%
X120364201Y-77144173D03*
%TD*%
%TO.C,*%
X105320000Y-49000000D03*
%TD*%
%TO.C,*%
X172380000Y-82660000D03*
%TD*%
%TO.C,*%
X139350000Y-54560000D03*
%TD*%
%TO.C,*%
X107664201Y-77144173D03*
%TD*%
D12*
%TO.C,REF\u002A\u002A*%
X117615799Y-69740000D03*
X120115799Y-69740000D03*
%TD*%
M02*
