%TF.GenerationSoftware,KiCad,Pcbnew,(6.0.6)*%
%TF.CreationDate,2022-07-08T17:21:04+08:00*%
%TF.ProjectId,Stepper,53746570-7065-4722-9e6b-696361645f70,rev?*%
%TF.SameCoordinates,Original*%
%TF.FileFunction,Legend,Top*%
%TF.FilePolarity,Positive*%
%FSLAX46Y46*%
G04 Gerber Fmt 4.6, Leading zero omitted, Abs format (unit mm)*
G04 Created by KiCad (PCBNEW (6.0.6)) date 2022-07-08 17:21:04*
%MOMM*%
%LPD*%
G01*
G04 APERTURE LIST*
%ADD10C,0.150000*%
%ADD11C,0.120000*%
G04 APERTURE END LIST*
D10*
X100776190Y-96999761D02*
X100919047Y-97047380D01*
X101157142Y-97047380D01*
X101252380Y-96999761D01*
X101300000Y-96952142D01*
X101347619Y-96856904D01*
X101347619Y-96761666D01*
X101300000Y-96666428D01*
X101252380Y-96618809D01*
X101157142Y-96571190D01*
X100966666Y-96523571D01*
X100871428Y-96475952D01*
X100823809Y-96428333D01*
X100776190Y-96333095D01*
X100776190Y-96237857D01*
X100823809Y-96142619D01*
X100871428Y-96095000D01*
X100966666Y-96047380D01*
X101204761Y-96047380D01*
X101347619Y-96095000D01*
X101776190Y-97047380D02*
X101776190Y-96047380D01*
X102204761Y-97047380D02*
X102204761Y-96523571D01*
X102157142Y-96428333D01*
X102061904Y-96380714D01*
X101919047Y-96380714D01*
X101823809Y-96428333D01*
X101776190Y-96475952D01*
X103109523Y-96380714D02*
X103109523Y-97047380D01*
X102680952Y-96380714D02*
X102680952Y-96904523D01*
X102728571Y-96999761D01*
X102823809Y-97047380D01*
X102966666Y-97047380D01*
X103061904Y-96999761D01*
X103109523Y-96952142D01*
X103442857Y-96380714D02*
X103823809Y-96380714D01*
X103585714Y-96047380D02*
X103585714Y-96904523D01*
X103633333Y-96999761D01*
X103728571Y-97047380D01*
X103823809Y-97047380D01*
X104014285Y-96380714D02*
X104395238Y-96380714D01*
X104157142Y-96047380D02*
X104157142Y-96904523D01*
X104204761Y-96999761D01*
X104300000Y-97047380D01*
X104395238Y-97047380D01*
X105109523Y-96999761D02*
X105014285Y-97047380D01*
X104823809Y-97047380D01*
X104728571Y-96999761D01*
X104680952Y-96904523D01*
X104680952Y-96523571D01*
X104728571Y-96428333D01*
X104823809Y-96380714D01*
X105014285Y-96380714D01*
X105109523Y-96428333D01*
X105157142Y-96523571D01*
X105157142Y-96618809D01*
X104680952Y-96714047D01*
X105585714Y-97047380D02*
X105585714Y-96380714D01*
X105585714Y-96571190D02*
X105633333Y-96475952D01*
X105680952Y-96428333D01*
X105776190Y-96380714D01*
X105871428Y-96380714D01*
X107395238Y-96999761D02*
X107300000Y-97047380D01*
X107109523Y-97047380D01*
X107014285Y-96999761D01*
X106966666Y-96952142D01*
X106919047Y-96856904D01*
X106919047Y-96571190D01*
X106966666Y-96475952D01*
X107014285Y-96428333D01*
X107109523Y-96380714D01*
X107300000Y-96380714D01*
X107395238Y-96428333D01*
X107966666Y-97047380D02*
X107871428Y-96999761D01*
X107823809Y-96952142D01*
X107776190Y-96856904D01*
X107776190Y-96571190D01*
X107823809Y-96475952D01*
X107871428Y-96428333D01*
X107966666Y-96380714D01*
X108109523Y-96380714D01*
X108204761Y-96428333D01*
X108252380Y-96475952D01*
X108300000Y-96571190D01*
X108300000Y-96856904D01*
X108252380Y-96952142D01*
X108204761Y-96999761D01*
X108109523Y-97047380D01*
X107966666Y-97047380D01*
X108728571Y-96380714D02*
X108728571Y-97047380D01*
X108728571Y-96475952D02*
X108776190Y-96428333D01*
X108871428Y-96380714D01*
X109014285Y-96380714D01*
X109109523Y-96428333D01*
X109157142Y-96523571D01*
X109157142Y-97047380D01*
X109490476Y-96380714D02*
X109871428Y-96380714D01*
X109633333Y-96047380D02*
X109633333Y-96904523D01*
X109680952Y-96999761D01*
X109776190Y-97047380D01*
X109871428Y-97047380D01*
X110204761Y-97047380D02*
X110204761Y-96380714D01*
X110204761Y-96571190D02*
X110252380Y-96475952D01*
X110300000Y-96428333D01*
X110395238Y-96380714D01*
X110490476Y-96380714D01*
X110966666Y-97047380D02*
X110871428Y-96999761D01*
X110823809Y-96952142D01*
X110776190Y-96856904D01*
X110776190Y-96571190D01*
X110823809Y-96475952D01*
X110871428Y-96428333D01*
X110966666Y-96380714D01*
X111109523Y-96380714D01*
X111204761Y-96428333D01*
X111252380Y-96475952D01*
X111300000Y-96571190D01*
X111300000Y-96856904D01*
X111252380Y-96952142D01*
X111204761Y-96999761D01*
X111109523Y-97047380D01*
X110966666Y-97047380D01*
X111871428Y-97047380D02*
X111776190Y-96999761D01*
X111728571Y-96904523D01*
X111728571Y-96047380D01*
X101538095Y-98657380D02*
X101538095Y-97657380D01*
X101538095Y-98038333D02*
X101633333Y-97990714D01*
X101823809Y-97990714D01*
X101919047Y-98038333D01*
X101966666Y-98085952D01*
X102014285Y-98181190D01*
X102014285Y-98466904D01*
X101966666Y-98562142D01*
X101919047Y-98609761D01*
X101823809Y-98657380D01*
X101633333Y-98657380D01*
X101538095Y-98609761D01*
X102347619Y-97990714D02*
X102585714Y-98657380D01*
X102823809Y-97990714D02*
X102585714Y-98657380D01*
X102490476Y-98895476D01*
X102442857Y-98943095D01*
X102347619Y-98990714D01*
X104252380Y-97657380D02*
X104252380Y-98371666D01*
X104204761Y-98514523D01*
X104109523Y-98609761D01*
X103966666Y-98657380D01*
X103871428Y-98657380D01*
X105157142Y-98657380D02*
X105157142Y-98133571D01*
X105109523Y-98038333D01*
X105014285Y-97990714D01*
X104823809Y-97990714D01*
X104728571Y-98038333D01*
X105157142Y-98609761D02*
X105061904Y-98657380D01*
X104823809Y-98657380D01*
X104728571Y-98609761D01*
X104680952Y-98514523D01*
X104680952Y-98419285D01*
X104728571Y-98324047D01*
X104823809Y-98276428D01*
X105061904Y-98276428D01*
X105157142Y-98228809D01*
X106014285Y-98609761D02*
X105919047Y-98657380D01*
X105728571Y-98657380D01*
X105633333Y-98609761D01*
X105585714Y-98514523D01*
X105585714Y-98133571D01*
X105633333Y-98038333D01*
X105728571Y-97990714D01*
X105919047Y-97990714D01*
X106014285Y-98038333D01*
X106061904Y-98133571D01*
X106061904Y-98228809D01*
X105585714Y-98324047D01*
X106919047Y-98609761D02*
X106823809Y-98657380D01*
X106633333Y-98657380D01*
X106538095Y-98609761D01*
X106490476Y-98562142D01*
X106442857Y-98466904D01*
X106442857Y-98181190D01*
X106490476Y-98085952D01*
X106538095Y-98038333D01*
X106633333Y-97990714D01*
X106823809Y-97990714D01*
X106919047Y-98038333D01*
X107347619Y-98657380D02*
X107347619Y-97657380D01*
X107442857Y-98276428D02*
X107728571Y-98657380D01*
X107728571Y-97990714D02*
X107347619Y-98371666D01*
X109395238Y-98657380D02*
X108919047Y-98657380D01*
X108919047Y-97657380D01*
X110157142Y-98657380D02*
X110157142Y-98133571D01*
X110109523Y-98038333D01*
X110014285Y-97990714D01*
X109823809Y-97990714D01*
X109728571Y-98038333D01*
X110157142Y-98609761D02*
X110061904Y-98657380D01*
X109823809Y-98657380D01*
X109728571Y-98609761D01*
X109680952Y-98514523D01*
X109680952Y-98419285D01*
X109728571Y-98324047D01*
X109823809Y-98276428D01*
X110061904Y-98276428D01*
X110157142Y-98228809D01*
X110633333Y-98657380D02*
X110633333Y-97657380D01*
X110633333Y-98038333D02*
X110728571Y-97990714D01*
X110919047Y-97990714D01*
X111014285Y-98038333D01*
X111061904Y-98085952D01*
X111109523Y-98181190D01*
X111109523Y-98466904D01*
X111061904Y-98562142D01*
X111014285Y-98609761D01*
X110919047Y-98657380D01*
X110728571Y-98657380D01*
X110633333Y-98609761D01*
X135157142Y-77799285D02*
X135585714Y-77942142D01*
X136300000Y-77942142D01*
X136585714Y-77799285D01*
X136728571Y-77656428D01*
X136871428Y-77370714D01*
X136871428Y-77085000D01*
X136728571Y-76799285D01*
X136585714Y-76656428D01*
X136300000Y-76513571D01*
X135728571Y-76370714D01*
X135442857Y-76227857D01*
X135300000Y-76085000D01*
X135157142Y-75799285D01*
X135157142Y-75513571D01*
X135300000Y-75227857D01*
X135442857Y-75085000D01*
X135728571Y-74942142D01*
X136442857Y-74942142D01*
X136871428Y-75085000D01*
X138157142Y-77942142D02*
X138157142Y-74942142D01*
X139442857Y-77942142D02*
X139442857Y-76370714D01*
X139300000Y-76085000D01*
X139014285Y-75942142D01*
X138585714Y-75942142D01*
X138300000Y-76085000D01*
X138157142Y-76227857D01*
X142157142Y-75942142D02*
X142157142Y-77942142D01*
X140871428Y-75942142D02*
X140871428Y-77513571D01*
X141014285Y-77799285D01*
X141300000Y-77942142D01*
X141728571Y-77942142D01*
X142014285Y-77799285D01*
X142157142Y-77656428D01*
X143157142Y-75942142D02*
X144300000Y-75942142D01*
X143585714Y-74942142D02*
X143585714Y-77513571D01*
X143728571Y-77799285D01*
X144014285Y-77942142D01*
X144300000Y-77942142D01*
X144871428Y-75942142D02*
X146014285Y-75942142D01*
X145300000Y-74942142D02*
X145300000Y-77513571D01*
X145442857Y-77799285D01*
X145728571Y-77942142D01*
X146014285Y-77942142D01*
X148157142Y-77799285D02*
X147871428Y-77942142D01*
X147300000Y-77942142D01*
X147014285Y-77799285D01*
X146871428Y-77513571D01*
X146871428Y-76370714D01*
X147014285Y-76085000D01*
X147300000Y-75942142D01*
X147871428Y-75942142D01*
X148157142Y-76085000D01*
X148300000Y-76370714D01*
X148300000Y-76656428D01*
X146871428Y-76942142D01*
X149585714Y-77942142D02*
X149585714Y-75942142D01*
X149585714Y-76513571D02*
X149728571Y-76227857D01*
X149871428Y-76085000D01*
X150157142Y-75942142D01*
X150442857Y-75942142D01*
X132085714Y-82486428D02*
X131942857Y-82629285D01*
X131514285Y-82772142D01*
X131228571Y-82772142D01*
X130800000Y-82629285D01*
X130514285Y-82343571D01*
X130371428Y-82057857D01*
X130228571Y-81486428D01*
X130228571Y-81057857D01*
X130371428Y-80486428D01*
X130514285Y-80200714D01*
X130800000Y-79915000D01*
X131228571Y-79772142D01*
X131514285Y-79772142D01*
X131942857Y-79915000D01*
X132085714Y-80057857D01*
X133800000Y-82772142D02*
X133514285Y-82629285D01*
X133371428Y-82486428D01*
X133228571Y-82200714D01*
X133228571Y-81343571D01*
X133371428Y-81057857D01*
X133514285Y-80915000D01*
X133800000Y-80772142D01*
X134228571Y-80772142D01*
X134514285Y-80915000D01*
X134657142Y-81057857D01*
X134800000Y-81343571D01*
X134800000Y-82200714D01*
X134657142Y-82486428D01*
X134514285Y-82629285D01*
X134228571Y-82772142D01*
X133800000Y-82772142D01*
X136085714Y-80772142D02*
X136085714Y-82772142D01*
X136085714Y-81057857D02*
X136228571Y-80915000D01*
X136514285Y-80772142D01*
X136942857Y-80772142D01*
X137228571Y-80915000D01*
X137371428Y-81200714D01*
X137371428Y-82772142D01*
X138371428Y-80772142D02*
X139514285Y-80772142D01*
X138800000Y-79772142D02*
X138800000Y-82343571D01*
X138942857Y-82629285D01*
X139228571Y-82772142D01*
X139514285Y-82772142D01*
X140514285Y-82772142D02*
X140514285Y-80772142D01*
X140514285Y-81343571D02*
X140657142Y-81057857D01*
X140800000Y-80915000D01*
X141085714Y-80772142D01*
X141371428Y-80772142D01*
X142800000Y-82772142D02*
X142514285Y-82629285D01*
X142371428Y-82486428D01*
X142228571Y-82200714D01*
X142228571Y-81343571D01*
X142371428Y-81057857D01*
X142514285Y-80915000D01*
X142800000Y-80772142D01*
X143228571Y-80772142D01*
X143514285Y-80915000D01*
X143657142Y-81057857D01*
X143800000Y-81343571D01*
X143800000Y-82200714D01*
X143657142Y-82486428D01*
X143514285Y-82629285D01*
X143228571Y-82772142D01*
X142800000Y-82772142D01*
X145514285Y-82772142D02*
X145228571Y-82629285D01*
X145085714Y-82343571D01*
X145085714Y-79772142D01*
X148514285Y-79772142D02*
X149514285Y-82772142D01*
X150514285Y-79772142D01*
X153085714Y-82772142D02*
X151371428Y-82772142D01*
X152228571Y-82772142D02*
X152228571Y-79772142D01*
X151942857Y-80200714D01*
X151657142Y-80486428D01*
X151371428Y-80629285D01*
X154371428Y-82486428D02*
X154514285Y-82629285D01*
X154371428Y-82772142D01*
X154228571Y-82629285D01*
X154371428Y-82486428D01*
X154371428Y-82772142D01*
X156371428Y-79772142D02*
X156657142Y-79772142D01*
X156942857Y-79915000D01*
X157085714Y-80057857D01*
X157228571Y-80343571D01*
X157371428Y-80915000D01*
X157371428Y-81629285D01*
X157228571Y-82200714D01*
X157085714Y-82486428D01*
X156942857Y-82629285D01*
X156657142Y-82772142D01*
X156371428Y-82772142D01*
X156085714Y-82629285D01*
X155942857Y-82486428D01*
X155800000Y-82200714D01*
X155657142Y-81629285D01*
X155657142Y-80915000D01*
X155800000Y-80343571D01*
X155942857Y-80057857D01*
X156085714Y-79915000D01*
X156371428Y-79772142D01*
X177072380Y-88098095D02*
X177072380Y-87431428D01*
X178072380Y-88098095D01*
X178072380Y-87431428D01*
X178024761Y-86669523D02*
X178072380Y-86764761D01*
X178072380Y-86955238D01*
X178024761Y-87050476D01*
X177929523Y-87098095D01*
X177548571Y-87098095D01*
X177453333Y-87050476D01*
X177405714Y-86955238D01*
X177405714Y-86764761D01*
X177453333Y-86669523D01*
X177548571Y-86621904D01*
X177643809Y-86621904D01*
X177739047Y-87098095D01*
X178072380Y-86193333D02*
X177405714Y-86193333D01*
X177596190Y-86193333D02*
X177500952Y-86145714D01*
X177453333Y-86098095D01*
X177405714Y-86002857D01*
X177405714Y-85907619D01*
X178072380Y-85431428D02*
X178024761Y-85526666D01*
X177977142Y-85574285D01*
X177881904Y-85621904D01*
X177596190Y-85621904D01*
X177500952Y-85574285D01*
X177453333Y-85526666D01*
X177405714Y-85431428D01*
X177405714Y-85288571D01*
X177453333Y-85193333D01*
X177500952Y-85145714D01*
X177596190Y-85098095D01*
X177881904Y-85098095D01*
X177977142Y-85145714D01*
X178024761Y-85193333D01*
X178072380Y-85288571D01*
X178072380Y-85431428D01*
X178024761Y-83955238D02*
X178072380Y-83860000D01*
X178072380Y-83669523D01*
X178024761Y-83574285D01*
X177929523Y-83526666D01*
X177881904Y-83526666D01*
X177786666Y-83574285D01*
X177739047Y-83669523D01*
X177739047Y-83812380D01*
X177691428Y-83907619D01*
X177596190Y-83955238D01*
X177548571Y-83955238D01*
X177453333Y-83907619D01*
X177405714Y-83812380D01*
X177405714Y-83669523D01*
X177453333Y-83574285D01*
X177405714Y-83193333D02*
X178072380Y-83002857D01*
X177596190Y-82812380D01*
X178072380Y-82621904D01*
X177405714Y-82431428D01*
X178072380Y-82050476D02*
X177405714Y-82050476D01*
X177072380Y-82050476D02*
X177120000Y-82098095D01*
X177167619Y-82050476D01*
X177120000Y-82002857D01*
X177072380Y-82050476D01*
X177167619Y-82050476D01*
X177405714Y-81717142D02*
X177405714Y-81336190D01*
X177072380Y-81574285D02*
X177929523Y-81574285D01*
X178024761Y-81526666D01*
X178072380Y-81431428D01*
X178072380Y-81336190D01*
X178024761Y-80574285D02*
X178072380Y-80669523D01*
X178072380Y-80860000D01*
X178024761Y-80955238D01*
X177977142Y-81002857D01*
X177881904Y-81050476D01*
X177596190Y-81050476D01*
X177500952Y-81002857D01*
X177453333Y-80955238D01*
X177405714Y-80860000D01*
X177405714Y-80669523D01*
X177453333Y-80574285D01*
X178072380Y-80145714D02*
X177072380Y-80145714D01*
X178072380Y-79717142D02*
X177548571Y-79717142D01*
X177453333Y-79764761D01*
X177405714Y-79860000D01*
X177405714Y-80002857D01*
X177453333Y-80098095D01*
X177500952Y-80145714D01*
X170172380Y-87774285D02*
X170172380Y-88345714D01*
X170172380Y-88060000D02*
X169172380Y-88060000D01*
X169315238Y-88155238D01*
X169410476Y-88250476D01*
X169458095Y-88345714D01*
X169838095Y-50052380D02*
X169838095Y-50766666D01*
X169790476Y-50909523D01*
X169695238Y-51004761D01*
X169552380Y-51052380D01*
X169457142Y-51052380D01*
X170742857Y-51052380D02*
X170742857Y-50528571D01*
X170695238Y-50433333D01*
X170600000Y-50385714D01*
X170409523Y-50385714D01*
X170314285Y-50433333D01*
X170742857Y-51004761D02*
X170647619Y-51052380D01*
X170409523Y-51052380D01*
X170314285Y-51004761D01*
X170266666Y-50909523D01*
X170266666Y-50814285D01*
X170314285Y-50719047D01*
X170409523Y-50671428D01*
X170647619Y-50671428D01*
X170742857Y-50623809D01*
X171600000Y-51004761D02*
X171504761Y-51052380D01*
X171314285Y-51052380D01*
X171219047Y-51004761D01*
X171171428Y-50909523D01*
X171171428Y-50528571D01*
X171219047Y-50433333D01*
X171314285Y-50385714D01*
X171504761Y-50385714D01*
X171600000Y-50433333D01*
X171647619Y-50528571D01*
X171647619Y-50623809D01*
X171171428Y-50719047D01*
X172504761Y-51004761D02*
X172409523Y-51052380D01*
X172219047Y-51052380D01*
X172123809Y-51004761D01*
X172076190Y-50957142D01*
X172028571Y-50861904D01*
X172028571Y-50576190D01*
X172076190Y-50480952D01*
X172123809Y-50433333D01*
X172219047Y-50385714D01*
X172409523Y-50385714D01*
X172504761Y-50433333D01*
X172933333Y-51052380D02*
X172933333Y-50052380D01*
X173028571Y-50671428D02*
X173314285Y-51052380D01*
X173314285Y-50385714D02*
X172933333Y-50766666D01*
X174980952Y-51052380D02*
X174504761Y-51052380D01*
X174504761Y-50052380D01*
X175742857Y-51052380D02*
X175742857Y-50528571D01*
X175695238Y-50433333D01*
X175600000Y-50385714D01*
X175409523Y-50385714D01*
X175314285Y-50433333D01*
X175742857Y-51004761D02*
X175647619Y-51052380D01*
X175409523Y-51052380D01*
X175314285Y-51004761D01*
X175266666Y-50909523D01*
X175266666Y-50814285D01*
X175314285Y-50719047D01*
X175409523Y-50671428D01*
X175647619Y-50671428D01*
X175742857Y-50623809D01*
X176219047Y-51052380D02*
X176219047Y-50052380D01*
X176219047Y-50433333D02*
X176314285Y-50385714D01*
X176504761Y-50385714D01*
X176600000Y-50433333D01*
X176647619Y-50480952D01*
X176695238Y-50576190D01*
X176695238Y-50861904D01*
X176647619Y-50957142D01*
X176600000Y-51004761D01*
X176504761Y-51052380D01*
X176314285Y-51052380D01*
X176219047Y-51004761D01*
X169405714Y-79669523D02*
X170072380Y-79669523D01*
X169024761Y-79907619D02*
X169739047Y-80145714D01*
X169739047Y-79526666D01*
X177847380Y-98390476D02*
X178847380Y-98057142D01*
X177847380Y-97723809D01*
X178799761Y-96961904D02*
X178847380Y-97057142D01*
X178847380Y-97247619D01*
X178799761Y-97342857D01*
X178752142Y-97390476D01*
X178656904Y-97438095D01*
X178371190Y-97438095D01*
X178275952Y-97390476D01*
X178228333Y-97342857D01*
X178180714Y-97247619D01*
X178180714Y-97057142D01*
X178228333Y-96961904D01*
X178799761Y-96104761D02*
X178847380Y-96200000D01*
X178847380Y-96390476D01*
X178799761Y-96485714D01*
X178752142Y-96533333D01*
X178656904Y-96580952D01*
X178371190Y-96580952D01*
X178275952Y-96533333D01*
X178228333Y-96485714D01*
X178180714Y-96390476D01*
X178180714Y-96200000D01*
X178228333Y-96104761D01*
X180076428Y-98961904D02*
X180076428Y-98200000D01*
X180457380Y-98580952D02*
X179695476Y-98580952D01*
X180457380Y-97200000D02*
X180457380Y-97771428D01*
X180457380Y-97485714D02*
X179457380Y-97485714D01*
X179600238Y-97580952D01*
X179695476Y-97676190D01*
X179743095Y-97771428D01*
X179552619Y-96819047D02*
X179505000Y-96771428D01*
X179457380Y-96676190D01*
X179457380Y-96438095D01*
X179505000Y-96342857D01*
X179552619Y-96295238D01*
X179647857Y-96247619D01*
X179743095Y-96247619D01*
X179885952Y-96295238D01*
X180457380Y-96866666D01*
X180457380Y-96247619D01*
X179457380Y-95961904D02*
X180457380Y-95628571D01*
X179457380Y-95295238D01*
X169704761Y-64720000D02*
X169752380Y-64577142D01*
X169752380Y-64339047D01*
X169704761Y-64243809D01*
X169657142Y-64196190D01*
X169561904Y-64148571D01*
X169466666Y-64148571D01*
X169371428Y-64196190D01*
X169323809Y-64243809D01*
X169276190Y-64339047D01*
X169228571Y-64529523D01*
X169180952Y-64624761D01*
X169133333Y-64672380D01*
X169038095Y-64720000D01*
X168942857Y-64720000D01*
X168847619Y-64672380D01*
X168800000Y-64624761D01*
X168752380Y-64529523D01*
X168752380Y-64291428D01*
X168800000Y-64148571D01*
X169085714Y-63862857D02*
X169085714Y-63481904D01*
X168752380Y-63720000D02*
X169609523Y-63720000D01*
X169704761Y-63672380D01*
X169752380Y-63577142D01*
X169752380Y-63481904D01*
X169704761Y-62767619D02*
X169752380Y-62862857D01*
X169752380Y-63053333D01*
X169704761Y-63148571D01*
X169609523Y-63196190D01*
X169228571Y-63196190D01*
X169133333Y-63148571D01*
X169085714Y-63053333D01*
X169085714Y-62862857D01*
X169133333Y-62767619D01*
X169228571Y-62720000D01*
X169323809Y-62720000D01*
X169419047Y-63196190D01*
X169085714Y-62291428D02*
X170085714Y-62291428D01*
X169133333Y-62291428D02*
X169085714Y-62196190D01*
X169085714Y-62005714D01*
X169133333Y-61910476D01*
X169180952Y-61862857D01*
X169276190Y-61815238D01*
X169561904Y-61815238D01*
X169657142Y-61862857D01*
X169704761Y-61910476D01*
X169752380Y-62005714D01*
X169752380Y-62196190D01*
X169704761Y-62291428D01*
X169085714Y-61386666D02*
X170085714Y-61386666D01*
X169133333Y-61386666D02*
X169085714Y-61291428D01*
X169085714Y-61100952D01*
X169133333Y-61005714D01*
X169180952Y-60958095D01*
X169276190Y-60910476D01*
X169561904Y-60910476D01*
X169657142Y-60958095D01*
X169704761Y-61005714D01*
X169752380Y-61100952D01*
X169752380Y-61291428D01*
X169704761Y-61386666D01*
X169704761Y-60100952D02*
X169752380Y-60196190D01*
X169752380Y-60386666D01*
X169704761Y-60481904D01*
X169609523Y-60529523D01*
X169228571Y-60529523D01*
X169133333Y-60481904D01*
X169085714Y-60386666D01*
X169085714Y-60196190D01*
X169133333Y-60100952D01*
X169228571Y-60053333D01*
X169323809Y-60053333D01*
X169419047Y-60529523D01*
X169752380Y-59624761D02*
X169085714Y-59624761D01*
X169276190Y-59624761D02*
X169180952Y-59577142D01*
X169133333Y-59529523D01*
X169085714Y-59434285D01*
X169085714Y-59339047D01*
X168752380Y-58339047D02*
X168752380Y-57720000D01*
X169133333Y-58053333D01*
X169133333Y-57910476D01*
X169180952Y-57815238D01*
X169228571Y-57767619D01*
X169323809Y-57720000D01*
X169561904Y-57720000D01*
X169657142Y-57767619D01*
X169704761Y-57815238D01*
X169752380Y-57910476D01*
X169752380Y-58196190D01*
X169704761Y-58291428D01*
X169657142Y-58339047D01*
X178104761Y-75820000D02*
X178152380Y-75677142D01*
X178152380Y-75439047D01*
X178104761Y-75343809D01*
X178057142Y-75296190D01*
X177961904Y-75248571D01*
X177866666Y-75248571D01*
X177771428Y-75296190D01*
X177723809Y-75343809D01*
X177676190Y-75439047D01*
X177628571Y-75629523D01*
X177580952Y-75724761D01*
X177533333Y-75772380D01*
X177438095Y-75820000D01*
X177342857Y-75820000D01*
X177247619Y-75772380D01*
X177200000Y-75724761D01*
X177152380Y-75629523D01*
X177152380Y-75391428D01*
X177200000Y-75248571D01*
X177485714Y-74962857D02*
X177485714Y-74581904D01*
X177152380Y-74820000D02*
X178009523Y-74820000D01*
X178104761Y-74772380D01*
X178152380Y-74677142D01*
X178152380Y-74581904D01*
X178104761Y-73867619D02*
X178152380Y-73962857D01*
X178152380Y-74153333D01*
X178104761Y-74248571D01*
X178009523Y-74296190D01*
X177628571Y-74296190D01*
X177533333Y-74248571D01*
X177485714Y-74153333D01*
X177485714Y-73962857D01*
X177533333Y-73867619D01*
X177628571Y-73820000D01*
X177723809Y-73820000D01*
X177819047Y-74296190D01*
X177485714Y-73391428D02*
X178485714Y-73391428D01*
X177533333Y-73391428D02*
X177485714Y-73296190D01*
X177485714Y-73105714D01*
X177533333Y-73010476D01*
X177580952Y-72962857D01*
X177676190Y-72915238D01*
X177961904Y-72915238D01*
X178057142Y-72962857D01*
X178104761Y-73010476D01*
X178152380Y-73105714D01*
X178152380Y-73296190D01*
X178104761Y-73391428D01*
X177485714Y-72486666D02*
X178485714Y-72486666D01*
X177533333Y-72486666D02*
X177485714Y-72391428D01*
X177485714Y-72200952D01*
X177533333Y-72105714D01*
X177580952Y-72058095D01*
X177676190Y-72010476D01*
X177961904Y-72010476D01*
X178057142Y-72058095D01*
X178104761Y-72105714D01*
X178152380Y-72200952D01*
X178152380Y-72391428D01*
X178104761Y-72486666D01*
X178104761Y-71200952D02*
X178152380Y-71296190D01*
X178152380Y-71486666D01*
X178104761Y-71581904D01*
X178009523Y-71629523D01*
X177628571Y-71629523D01*
X177533333Y-71581904D01*
X177485714Y-71486666D01*
X177485714Y-71296190D01*
X177533333Y-71200952D01*
X177628571Y-71153333D01*
X177723809Y-71153333D01*
X177819047Y-71629523D01*
X178152380Y-70724761D02*
X177485714Y-70724761D01*
X177676190Y-70724761D02*
X177580952Y-70677142D01*
X177533333Y-70629523D01*
X177485714Y-70534285D01*
X177485714Y-70439047D01*
X177247619Y-69391428D02*
X177200000Y-69343809D01*
X177152380Y-69248571D01*
X177152380Y-69010476D01*
X177200000Y-68915238D01*
X177247619Y-68867619D01*
X177342857Y-68820000D01*
X177438095Y-68820000D01*
X177580952Y-68867619D01*
X178152380Y-69439047D01*
X178152380Y-68820000D01*
X169267619Y-85645714D02*
X169220000Y-85598095D01*
X169172380Y-85502857D01*
X169172380Y-85264761D01*
X169220000Y-85169523D01*
X169267619Y-85121904D01*
X169362857Y-85074285D01*
X169458095Y-85074285D01*
X169600952Y-85121904D01*
X170172380Y-85693333D01*
X170172380Y-85074285D01*
X177904761Y-64720000D02*
X177952380Y-64577142D01*
X177952380Y-64339047D01*
X177904761Y-64243809D01*
X177857142Y-64196190D01*
X177761904Y-64148571D01*
X177666666Y-64148571D01*
X177571428Y-64196190D01*
X177523809Y-64243809D01*
X177476190Y-64339047D01*
X177428571Y-64529523D01*
X177380952Y-64624761D01*
X177333333Y-64672380D01*
X177238095Y-64720000D01*
X177142857Y-64720000D01*
X177047619Y-64672380D01*
X177000000Y-64624761D01*
X176952380Y-64529523D01*
X176952380Y-64291428D01*
X177000000Y-64148571D01*
X177285714Y-63862857D02*
X177285714Y-63481904D01*
X176952380Y-63720000D02*
X177809523Y-63720000D01*
X177904761Y-63672380D01*
X177952380Y-63577142D01*
X177952380Y-63481904D01*
X177904761Y-62767619D02*
X177952380Y-62862857D01*
X177952380Y-63053333D01*
X177904761Y-63148571D01*
X177809523Y-63196190D01*
X177428571Y-63196190D01*
X177333333Y-63148571D01*
X177285714Y-63053333D01*
X177285714Y-62862857D01*
X177333333Y-62767619D01*
X177428571Y-62720000D01*
X177523809Y-62720000D01*
X177619047Y-63196190D01*
X177285714Y-62291428D02*
X178285714Y-62291428D01*
X177333333Y-62291428D02*
X177285714Y-62196190D01*
X177285714Y-62005714D01*
X177333333Y-61910476D01*
X177380952Y-61862857D01*
X177476190Y-61815238D01*
X177761904Y-61815238D01*
X177857142Y-61862857D01*
X177904761Y-61910476D01*
X177952380Y-62005714D01*
X177952380Y-62196190D01*
X177904761Y-62291428D01*
X177285714Y-61386666D02*
X178285714Y-61386666D01*
X177333333Y-61386666D02*
X177285714Y-61291428D01*
X177285714Y-61100952D01*
X177333333Y-61005714D01*
X177380952Y-60958095D01*
X177476190Y-60910476D01*
X177761904Y-60910476D01*
X177857142Y-60958095D01*
X177904761Y-61005714D01*
X177952380Y-61100952D01*
X177952380Y-61291428D01*
X177904761Y-61386666D01*
X177904761Y-60100952D02*
X177952380Y-60196190D01*
X177952380Y-60386666D01*
X177904761Y-60481904D01*
X177809523Y-60529523D01*
X177428571Y-60529523D01*
X177333333Y-60481904D01*
X177285714Y-60386666D01*
X177285714Y-60196190D01*
X177333333Y-60100952D01*
X177428571Y-60053333D01*
X177523809Y-60053333D01*
X177619047Y-60529523D01*
X177952380Y-59624761D02*
X177285714Y-59624761D01*
X177476190Y-59624761D02*
X177380952Y-59577142D01*
X177333333Y-59529523D01*
X177285714Y-59434285D01*
X177285714Y-59339047D01*
X177285714Y-57815238D02*
X177952380Y-57815238D01*
X176904761Y-58053333D02*
X177619047Y-58291428D01*
X177619047Y-57672380D01*
X169172380Y-83093333D02*
X169172380Y-82474285D01*
X169553333Y-82807619D01*
X169553333Y-82664761D01*
X169600952Y-82569523D01*
X169648571Y-82521904D01*
X169743809Y-82474285D01*
X169981904Y-82474285D01*
X170077142Y-82521904D01*
X170124761Y-82569523D01*
X170172380Y-82664761D01*
X170172380Y-82950476D01*
X170124761Y-83045714D01*
X170077142Y-83093333D01*
X169804761Y-75820000D02*
X169852380Y-75677142D01*
X169852380Y-75439047D01*
X169804761Y-75343809D01*
X169757142Y-75296190D01*
X169661904Y-75248571D01*
X169566666Y-75248571D01*
X169471428Y-75296190D01*
X169423809Y-75343809D01*
X169376190Y-75439047D01*
X169328571Y-75629523D01*
X169280952Y-75724761D01*
X169233333Y-75772380D01*
X169138095Y-75820000D01*
X169042857Y-75820000D01*
X168947619Y-75772380D01*
X168900000Y-75724761D01*
X168852380Y-75629523D01*
X168852380Y-75391428D01*
X168900000Y-75248571D01*
X169185714Y-74962857D02*
X169185714Y-74581904D01*
X168852380Y-74820000D02*
X169709523Y-74820000D01*
X169804761Y-74772380D01*
X169852380Y-74677142D01*
X169852380Y-74581904D01*
X169804761Y-73867619D02*
X169852380Y-73962857D01*
X169852380Y-74153333D01*
X169804761Y-74248571D01*
X169709523Y-74296190D01*
X169328571Y-74296190D01*
X169233333Y-74248571D01*
X169185714Y-74153333D01*
X169185714Y-73962857D01*
X169233333Y-73867619D01*
X169328571Y-73820000D01*
X169423809Y-73820000D01*
X169519047Y-74296190D01*
X169185714Y-73391428D02*
X170185714Y-73391428D01*
X169233333Y-73391428D02*
X169185714Y-73296190D01*
X169185714Y-73105714D01*
X169233333Y-73010476D01*
X169280952Y-72962857D01*
X169376190Y-72915238D01*
X169661904Y-72915238D01*
X169757142Y-72962857D01*
X169804761Y-73010476D01*
X169852380Y-73105714D01*
X169852380Y-73296190D01*
X169804761Y-73391428D01*
X169185714Y-72486666D02*
X170185714Y-72486666D01*
X169233333Y-72486666D02*
X169185714Y-72391428D01*
X169185714Y-72200952D01*
X169233333Y-72105714D01*
X169280952Y-72058095D01*
X169376190Y-72010476D01*
X169661904Y-72010476D01*
X169757142Y-72058095D01*
X169804761Y-72105714D01*
X169852380Y-72200952D01*
X169852380Y-72391428D01*
X169804761Y-72486666D01*
X169804761Y-71200952D02*
X169852380Y-71296190D01*
X169852380Y-71486666D01*
X169804761Y-71581904D01*
X169709523Y-71629523D01*
X169328571Y-71629523D01*
X169233333Y-71581904D01*
X169185714Y-71486666D01*
X169185714Y-71296190D01*
X169233333Y-71200952D01*
X169328571Y-71153333D01*
X169423809Y-71153333D01*
X169519047Y-71629523D01*
X169852380Y-70724761D02*
X169185714Y-70724761D01*
X169376190Y-70724761D02*
X169280952Y-70677142D01*
X169233333Y-70629523D01*
X169185714Y-70534285D01*
X169185714Y-70439047D01*
X169852380Y-68820000D02*
X169852380Y-69391428D01*
X169852380Y-69105714D02*
X168852380Y-69105714D01*
X168995238Y-69200952D01*
X169090476Y-69296190D01*
X169138095Y-69391428D01*
X178500000Y-92238095D02*
X178452380Y-92333333D01*
X178452380Y-92476190D01*
X178500000Y-92619047D01*
X178595238Y-92714285D01*
X178690476Y-92761904D01*
X178880952Y-92809523D01*
X179023809Y-92809523D01*
X179214285Y-92761904D01*
X179309523Y-92714285D01*
X179404761Y-92619047D01*
X179452380Y-92476190D01*
X179452380Y-92380952D01*
X179404761Y-92238095D01*
X179357142Y-92190476D01*
X179023809Y-92190476D01*
X179023809Y-92380952D01*
%TO.C,*%
%TO.C,REF\u002A\u002A*%
X139266666Y-67752380D02*
X138933333Y-67276190D01*
X138695238Y-67752380D02*
X138695238Y-66752380D01*
X139076190Y-66752380D01*
X139171428Y-66800000D01*
X139219047Y-66847619D01*
X139266666Y-66942857D01*
X139266666Y-67085714D01*
X139219047Y-67180952D01*
X139171428Y-67228571D01*
X139076190Y-67276190D01*
X138695238Y-67276190D01*
X139695238Y-67228571D02*
X140028571Y-67228571D01*
X140171428Y-67752380D02*
X139695238Y-67752380D01*
X139695238Y-66752380D01*
X140171428Y-66752380D01*
X140933333Y-67228571D02*
X140600000Y-67228571D01*
X140600000Y-67752380D02*
X140600000Y-66752380D01*
X141076190Y-66752380D01*
X141600000Y-66752380D02*
X141600000Y-66990476D01*
X141361904Y-66895238D02*
X141600000Y-66990476D01*
X141838095Y-66895238D01*
X141457142Y-67180952D02*
X141600000Y-66990476D01*
X141742857Y-67180952D01*
X142361904Y-66752380D02*
X142361904Y-66990476D01*
X142123809Y-66895238D02*
X142361904Y-66990476D01*
X142600000Y-66895238D01*
X142219047Y-67180952D02*
X142361904Y-66990476D01*
X142504761Y-67180952D01*
%TO.C,*%
%TO.C,REF\u002A\u002A*%
X160876666Y-67692380D02*
X160543333Y-67216190D01*
X160305238Y-67692380D02*
X160305238Y-66692380D01*
X160686190Y-66692380D01*
X160781428Y-66740000D01*
X160829047Y-66787619D01*
X160876666Y-66882857D01*
X160876666Y-67025714D01*
X160829047Y-67120952D01*
X160781428Y-67168571D01*
X160686190Y-67216190D01*
X160305238Y-67216190D01*
X161305238Y-67168571D02*
X161638571Y-67168571D01*
X161781428Y-67692380D02*
X161305238Y-67692380D01*
X161305238Y-66692380D01*
X161781428Y-66692380D01*
X162543333Y-67168571D02*
X162210000Y-67168571D01*
X162210000Y-67692380D02*
X162210000Y-66692380D01*
X162686190Y-66692380D01*
X163210000Y-66692380D02*
X163210000Y-66930476D01*
X162971904Y-66835238D02*
X163210000Y-66930476D01*
X163448095Y-66835238D01*
X163067142Y-67120952D02*
X163210000Y-66930476D01*
X163352857Y-67120952D01*
X163971904Y-66692380D02*
X163971904Y-66930476D01*
X163733809Y-66835238D02*
X163971904Y-66930476D01*
X164210000Y-66835238D01*
X163829047Y-67120952D02*
X163971904Y-66930476D01*
X164114761Y-67120952D01*
X158082380Y-88833333D02*
X157606190Y-89166666D01*
X158082380Y-89404761D02*
X157082380Y-89404761D01*
X157082380Y-89023809D01*
X157130000Y-88928571D01*
X157177619Y-88880952D01*
X157272857Y-88833333D01*
X157415714Y-88833333D01*
X157510952Y-88880952D01*
X157558571Y-88928571D01*
X157606190Y-89023809D01*
X157606190Y-89404761D01*
X157558571Y-88404761D02*
X157558571Y-88071428D01*
X158082380Y-87928571D02*
X158082380Y-88404761D01*
X157082380Y-88404761D01*
X157082380Y-87928571D01*
X157558571Y-87166666D02*
X157558571Y-87500000D01*
X158082380Y-87500000D02*
X157082380Y-87500000D01*
X157082380Y-87023809D01*
X157082380Y-86500000D02*
X157320476Y-86500000D01*
X157225238Y-86738095D02*
X157320476Y-86500000D01*
X157225238Y-86261904D01*
X157510952Y-86642857D02*
X157320476Y-86500000D01*
X157510952Y-86357142D01*
X157082380Y-85738095D02*
X157320476Y-85738095D01*
X157225238Y-85976190D02*
X157320476Y-85738095D01*
X157225238Y-85500000D01*
X157510952Y-85880952D02*
X157320476Y-85738095D01*
X157510952Y-85595238D01*
%TO.C,*%
%TO.C,R 10 K*%
X150292380Y-89404761D02*
X149816190Y-89738095D01*
X150292380Y-89976190D02*
X149292380Y-89976190D01*
X149292380Y-89595238D01*
X149340000Y-89500000D01*
X149387619Y-89452380D01*
X149482857Y-89404761D01*
X149625714Y-89404761D01*
X149720952Y-89452380D01*
X149768571Y-89500000D01*
X149816190Y-89595238D01*
X149816190Y-89976190D01*
X150292380Y-87690476D02*
X150292380Y-88261904D01*
X150292380Y-87976190D02*
X149292380Y-87976190D01*
X149435238Y-88071428D01*
X149530476Y-88166666D01*
X149578095Y-88261904D01*
X149292380Y-87071428D02*
X149292380Y-86976190D01*
X149340000Y-86880952D01*
X149387619Y-86833333D01*
X149482857Y-86785714D01*
X149673333Y-86738095D01*
X149911428Y-86738095D01*
X150101904Y-86785714D01*
X150197142Y-86833333D01*
X150244761Y-86880952D01*
X150292380Y-86976190D01*
X150292380Y-87071428D01*
X150244761Y-87166666D01*
X150197142Y-87214285D01*
X150101904Y-87261904D01*
X149911428Y-87309523D01*
X149673333Y-87309523D01*
X149482857Y-87261904D01*
X149387619Y-87214285D01*
X149340000Y-87166666D01*
X149292380Y-87071428D01*
X150292380Y-85547619D02*
X149292380Y-85547619D01*
X150292380Y-84976190D02*
X149720952Y-85404761D01*
X149292380Y-84976190D02*
X149863809Y-85547619D01*
%TO.C,*%
%TO.C,REF\u002A\u002A*%
X137911554Y-88502380D02*
X137578221Y-88026190D01*
X137340126Y-88502380D02*
X137340126Y-87502380D01*
X137721078Y-87502380D01*
X137816316Y-87550000D01*
X137863935Y-87597619D01*
X137911554Y-87692857D01*
X137911554Y-87835714D01*
X137863935Y-87930952D01*
X137816316Y-87978571D01*
X137721078Y-88026190D01*
X137340126Y-88026190D01*
X138340126Y-87978571D02*
X138673459Y-87978571D01*
X138816316Y-88502380D02*
X138340126Y-88502380D01*
X138340126Y-87502380D01*
X138816316Y-87502380D01*
X139578221Y-87978571D02*
X139244888Y-87978571D01*
X139244888Y-88502380D02*
X139244888Y-87502380D01*
X139721078Y-87502380D01*
X140244888Y-87502380D02*
X140244888Y-87740476D01*
X140006792Y-87645238D02*
X140244888Y-87740476D01*
X140482983Y-87645238D01*
X140102030Y-87930952D02*
X140244888Y-87740476D01*
X140387745Y-87930952D01*
X141006792Y-87502380D02*
X141006792Y-87740476D01*
X140768697Y-87645238D02*
X141006792Y-87740476D01*
X141244888Y-87645238D01*
X140863935Y-87930952D02*
X141006792Y-87740476D01*
X141149649Y-87930952D01*
%TO.C,*%
%TO.C,REF\u002A\u002A*%
X153002380Y-88833333D02*
X152526190Y-89166666D01*
X153002380Y-89404761D02*
X152002380Y-89404761D01*
X152002380Y-89023809D01*
X152050000Y-88928571D01*
X152097619Y-88880952D01*
X152192857Y-88833333D01*
X152335714Y-88833333D01*
X152430952Y-88880952D01*
X152478571Y-88928571D01*
X152526190Y-89023809D01*
X152526190Y-89404761D01*
X152478571Y-88404761D02*
X152478571Y-88071428D01*
X153002380Y-87928571D02*
X153002380Y-88404761D01*
X152002380Y-88404761D01*
X152002380Y-87928571D01*
X152478571Y-87166666D02*
X152478571Y-87500000D01*
X153002380Y-87500000D02*
X152002380Y-87500000D01*
X152002380Y-87023809D01*
X152002380Y-86500000D02*
X152240476Y-86500000D01*
X152145238Y-86738095D02*
X152240476Y-86500000D01*
X152145238Y-86261904D01*
X152430952Y-86642857D02*
X152240476Y-86500000D01*
X152430952Y-86357142D01*
X152002380Y-85738095D02*
X152240476Y-85738095D01*
X152145238Y-85976190D02*
X152240476Y-85738095D01*
X152145238Y-85500000D01*
X152430952Y-85880952D02*
X152240476Y-85738095D01*
X152430952Y-85595238D01*
%TO.C,*%
%TO.C,REF\u002A\u002A*%
X155542380Y-88833333D02*
X155066190Y-89166666D01*
X155542380Y-89404761D02*
X154542380Y-89404761D01*
X154542380Y-89023809D01*
X154590000Y-88928571D01*
X154637619Y-88880952D01*
X154732857Y-88833333D01*
X154875714Y-88833333D01*
X154970952Y-88880952D01*
X155018571Y-88928571D01*
X155066190Y-89023809D01*
X155066190Y-89404761D01*
X155018571Y-88404761D02*
X155018571Y-88071428D01*
X155542380Y-87928571D02*
X155542380Y-88404761D01*
X154542380Y-88404761D01*
X154542380Y-87928571D01*
X155018571Y-87166666D02*
X155018571Y-87500000D01*
X155542380Y-87500000D02*
X154542380Y-87500000D01*
X154542380Y-87023809D01*
X154542380Y-86500000D02*
X154780476Y-86500000D01*
X154685238Y-86738095D02*
X154780476Y-86500000D01*
X154685238Y-86261904D01*
X154970952Y-86642857D02*
X154780476Y-86500000D01*
X154970952Y-86357142D01*
X154542380Y-85738095D02*
X154780476Y-85738095D01*
X154685238Y-85976190D02*
X154780476Y-85738095D01*
X154685238Y-85500000D01*
X154970952Y-85880952D02*
X154780476Y-85738095D01*
X154970952Y-85595238D01*
%TO.C,*%
%TO.C,REF\u002A\u002A*%
X145676666Y-67692380D02*
X145343333Y-67216190D01*
X145105238Y-67692380D02*
X145105238Y-66692380D01*
X145486190Y-66692380D01*
X145581428Y-66740000D01*
X145629047Y-66787619D01*
X145676666Y-66882857D01*
X145676666Y-67025714D01*
X145629047Y-67120952D01*
X145581428Y-67168571D01*
X145486190Y-67216190D01*
X145105238Y-67216190D01*
X146105238Y-67168571D02*
X146438571Y-67168571D01*
X146581428Y-67692380D02*
X146105238Y-67692380D01*
X146105238Y-66692380D01*
X146581428Y-66692380D01*
X147343333Y-67168571D02*
X147010000Y-67168571D01*
X147010000Y-67692380D02*
X147010000Y-66692380D01*
X147486190Y-66692380D01*
X148010000Y-66692380D02*
X148010000Y-66930476D01*
X147771904Y-66835238D02*
X148010000Y-66930476D01*
X148248095Y-66835238D01*
X147867142Y-67120952D02*
X148010000Y-66930476D01*
X148152857Y-67120952D01*
X148771904Y-66692380D02*
X148771904Y-66930476D01*
X148533809Y-66835238D02*
X148771904Y-66930476D01*
X149010000Y-66835238D01*
X148629047Y-67120952D02*
X148771904Y-66930476D01*
X148914761Y-67120952D01*
%TO.C,*%
%TO.C,C*%
X167907142Y-94245589D02*
X167954761Y-94293208D01*
X168002380Y-94436065D01*
X168002380Y-94531303D01*
X167954761Y-94674160D01*
X167859523Y-94769398D01*
X167764285Y-94817017D01*
X167573809Y-94864636D01*
X167430952Y-94864636D01*
X167240476Y-94817017D01*
X167145238Y-94769398D01*
X167050000Y-94674160D01*
X167002380Y-94531303D01*
X167002380Y-94436065D01*
X167050000Y-94293208D01*
X167097619Y-94245589D01*
%TO.C,*%
%TO.C,REF\u002A\u002A*%
X124026666Y-67752380D02*
X123693333Y-67276190D01*
X123455238Y-67752380D02*
X123455238Y-66752380D01*
X123836190Y-66752380D01*
X123931428Y-66800000D01*
X123979047Y-66847619D01*
X124026666Y-66942857D01*
X124026666Y-67085714D01*
X123979047Y-67180952D01*
X123931428Y-67228571D01*
X123836190Y-67276190D01*
X123455238Y-67276190D01*
X124455238Y-67228571D02*
X124788571Y-67228571D01*
X124931428Y-67752380D02*
X124455238Y-67752380D01*
X124455238Y-66752380D01*
X124931428Y-66752380D01*
X125693333Y-67228571D02*
X125360000Y-67228571D01*
X125360000Y-67752380D02*
X125360000Y-66752380D01*
X125836190Y-66752380D01*
X126360000Y-66752380D02*
X126360000Y-66990476D01*
X126121904Y-66895238D02*
X126360000Y-66990476D01*
X126598095Y-66895238D01*
X126217142Y-67180952D02*
X126360000Y-66990476D01*
X126502857Y-67180952D01*
X127121904Y-66752380D02*
X127121904Y-66990476D01*
X126883809Y-66895238D02*
X127121904Y-66990476D01*
X127360000Y-66895238D01*
X126979047Y-67180952D02*
X127121904Y-66990476D01*
X127264761Y-67180952D01*
%TO.C,*%
%TO.C,REF\u002A\u002A*%
X102456666Y-90332380D02*
X102123333Y-89856190D01*
X101885238Y-90332380D02*
X101885238Y-89332380D01*
X102266190Y-89332380D01*
X102361428Y-89380000D01*
X102409047Y-89427619D01*
X102456666Y-89522857D01*
X102456666Y-89665714D01*
X102409047Y-89760952D01*
X102361428Y-89808571D01*
X102266190Y-89856190D01*
X101885238Y-89856190D01*
X102885238Y-89808571D02*
X103218571Y-89808571D01*
X103361428Y-90332380D02*
X102885238Y-90332380D01*
X102885238Y-89332380D01*
X103361428Y-89332380D01*
X104123333Y-89808571D02*
X103790000Y-89808571D01*
X103790000Y-90332380D02*
X103790000Y-89332380D01*
X104266190Y-89332380D01*
X104790000Y-89332380D02*
X104790000Y-89570476D01*
X104551904Y-89475238D02*
X104790000Y-89570476D01*
X105028095Y-89475238D01*
X104647142Y-89760952D02*
X104790000Y-89570476D01*
X104932857Y-89760952D01*
X105551904Y-89332380D02*
X105551904Y-89570476D01*
X105313809Y-89475238D02*
X105551904Y-89570476D01*
X105790000Y-89475238D01*
X105409047Y-89760952D02*
X105551904Y-89570476D01*
X105694761Y-89760952D01*
%TO.C,*%
%TO.C,REF\u002A\u002A*%
X117696666Y-90332380D02*
X117363333Y-89856190D01*
X117125238Y-90332380D02*
X117125238Y-89332380D01*
X117506190Y-89332380D01*
X117601428Y-89380000D01*
X117649047Y-89427619D01*
X117696666Y-89522857D01*
X117696666Y-89665714D01*
X117649047Y-89760952D01*
X117601428Y-89808571D01*
X117506190Y-89856190D01*
X117125238Y-89856190D01*
X118125238Y-89808571D02*
X118458571Y-89808571D01*
X118601428Y-90332380D02*
X118125238Y-90332380D01*
X118125238Y-89332380D01*
X118601428Y-89332380D01*
X119363333Y-89808571D02*
X119030000Y-89808571D01*
X119030000Y-90332380D02*
X119030000Y-89332380D01*
X119506190Y-89332380D01*
X120030000Y-89332380D02*
X120030000Y-89570476D01*
X119791904Y-89475238D02*
X120030000Y-89570476D01*
X120268095Y-89475238D01*
X119887142Y-89760952D02*
X120030000Y-89570476D01*
X120172857Y-89760952D01*
X120791904Y-89332380D02*
X120791904Y-89570476D01*
X120553809Y-89475238D02*
X120791904Y-89570476D01*
X121030000Y-89475238D01*
X120649047Y-89760952D02*
X120791904Y-89570476D01*
X120934761Y-89760952D01*
X102402465Y-66332380D02*
X102069132Y-65856190D01*
X101831037Y-66332380D02*
X101831037Y-65332380D01*
X102211989Y-65332380D01*
X102307227Y-65380000D01*
X102354846Y-65427619D01*
X102402465Y-65522857D01*
X102402465Y-65665714D01*
X102354846Y-65760952D01*
X102307227Y-65808571D01*
X102211989Y-65856190D01*
X101831037Y-65856190D01*
X102831037Y-65808571D02*
X103164370Y-65808571D01*
X103307227Y-66332380D02*
X102831037Y-66332380D01*
X102831037Y-65332380D01*
X103307227Y-65332380D01*
X104069132Y-65808571D02*
X103735799Y-65808571D01*
X103735799Y-66332380D02*
X103735799Y-65332380D01*
X104211989Y-65332380D01*
X104735799Y-65332380D02*
X104735799Y-65570476D01*
X104497703Y-65475238D02*
X104735799Y-65570476D01*
X104973894Y-65475238D01*
X104592941Y-65760952D02*
X104735799Y-65570476D01*
X104878656Y-65760952D01*
X105497703Y-65332380D02*
X105497703Y-65570476D01*
X105259608Y-65475238D02*
X105497703Y-65570476D01*
X105735799Y-65475238D01*
X105354846Y-65760952D02*
X105497703Y-65570476D01*
X105640560Y-65760952D01*
%TO.C,*%
%TO.C,REF\u002A\u002A*%
X117532465Y-67692380D02*
X117199132Y-67216190D01*
X116961037Y-67692380D02*
X116961037Y-66692380D01*
X117341989Y-66692380D01*
X117437227Y-66740000D01*
X117484846Y-66787619D01*
X117532465Y-66882857D01*
X117532465Y-67025714D01*
X117484846Y-67120952D01*
X117437227Y-67168571D01*
X117341989Y-67216190D01*
X116961037Y-67216190D01*
X117961037Y-67168571D02*
X118294370Y-67168571D01*
X118437227Y-67692380D02*
X117961037Y-67692380D01*
X117961037Y-66692380D01*
X118437227Y-66692380D01*
X119199132Y-67168571D02*
X118865799Y-67168571D01*
X118865799Y-67692380D02*
X118865799Y-66692380D01*
X119341989Y-66692380D01*
X119865799Y-66692380D02*
X119865799Y-66930476D01*
X119627703Y-66835238D02*
X119865799Y-66930476D01*
X120103894Y-66835238D01*
X119722941Y-67120952D02*
X119865799Y-66930476D01*
X120008656Y-67120952D01*
X120627703Y-66692380D02*
X120627703Y-66930476D01*
X120389608Y-66835238D02*
X120627703Y-66930476D01*
X120865799Y-66835238D01*
X120484846Y-67120952D02*
X120627703Y-66930476D01*
X120770560Y-67120952D01*
D11*
%TO.C,J1*%
X147050000Y-98790000D02*
X147050000Y-96130000D01*
X129210000Y-96130000D02*
X147050000Y-96130000D01*
X129210000Y-98790000D02*
X129210000Y-96130000D01*
X126610000Y-97460000D02*
X126610000Y-96130000D01*
X126610000Y-96130000D02*
X127940000Y-96130000D01*
X129210000Y-98790000D02*
X147050000Y-98790000D01*
%TO.C,J3*%
X152070000Y-96130000D02*
X164830000Y-96130000D01*
X149470000Y-97460000D02*
X149470000Y-96130000D01*
X152070000Y-98790000D02*
X152070000Y-96130000D01*
X152070000Y-98790000D02*
X164830000Y-98790000D01*
X164830000Y-98790000D02*
X164830000Y-96130000D01*
X149470000Y-96130000D02*
X150800000Y-96130000D01*
%TO.C,J2*%
X142986000Y-50530000D02*
X142986000Y-47870000D01*
X120066000Y-50530000D02*
X142986000Y-50530000D01*
X117466000Y-47870000D02*
X118796000Y-47870000D01*
X117466000Y-49200000D02*
X117466000Y-47870000D01*
X120066000Y-47870000D02*
X142986000Y-47870000D01*
X120066000Y-50530000D02*
X120066000Y-47870000D01*
%TO.C,J4*%
X164830000Y-50530000D02*
X164830000Y-47870000D01*
X146990000Y-50530000D02*
X164830000Y-50530000D01*
X144390000Y-49200000D02*
X144390000Y-47870000D01*
X146990000Y-50530000D02*
X146990000Y-47870000D01*
X144390000Y-47870000D02*
X145720000Y-47870000D01*
X146990000Y-47870000D02*
X164830000Y-47870000D01*
%TO.C,REF\u002A\u002A*%
X143220000Y-68430000D02*
X143220000Y-71170000D01*
X137980000Y-68430000D02*
X143220000Y-68430000D01*
X137980000Y-71170000D02*
X143220000Y-71170000D01*
X137980000Y-68430000D02*
X137980000Y-71170000D01*
X164830000Y-68370000D02*
X164830000Y-71110000D01*
X159590000Y-71110000D02*
X164830000Y-71110000D01*
X159590000Y-68370000D02*
X164830000Y-68370000D01*
X159590000Y-68370000D02*
X159590000Y-71110000D01*
X158960000Y-90770000D02*
X158630000Y-90770000D01*
X161370000Y-90770000D02*
X161370000Y-84230000D01*
X161040000Y-90770000D02*
X161370000Y-90770000D01*
X158630000Y-84230000D02*
X158960000Y-84230000D01*
X158630000Y-90770000D02*
X158630000Y-84230000D01*
X161370000Y-84230000D02*
X161040000Y-84230000D01*
%TO.C,R 10 K*%
X153750000Y-90770000D02*
X153750000Y-84230000D01*
X153750000Y-84230000D02*
X153420000Y-84230000D01*
X153420000Y-90770000D02*
X153750000Y-90770000D01*
X151010000Y-90770000D02*
X151010000Y-84230000D01*
X151010000Y-84230000D02*
X151340000Y-84230000D01*
X151340000Y-90770000D02*
X151010000Y-90770000D01*
%TO.C,REF\u002A\u002A*%
X141405888Y-90357000D02*
X141405888Y-93243000D01*
X139524888Y-89235000D02*
X139524888Y-90760000D01*
X141085888Y-89974000D02*
X141085888Y-90760000D01*
X136690113Y-90075000D02*
X136690113Y-90575000D01*
X140605888Y-92840000D02*
X140605888Y-94000000D01*
X139684888Y-92840000D02*
X139684888Y-94343000D01*
X141205888Y-92840000D02*
X141205888Y-93499000D01*
X140485888Y-89532000D02*
X140485888Y-90760000D01*
X141725888Y-90995000D02*
X141725888Y-92605000D01*
X141645888Y-90789000D02*
X141645888Y-92811000D01*
X139444888Y-92840000D02*
X139444888Y-94373000D01*
X136440113Y-90325000D02*
X136940113Y-90325000D01*
X140965888Y-89863000D02*
X140965888Y-90760000D01*
X139604888Y-92840000D02*
X139604888Y-94356000D01*
X139324888Y-92840000D02*
X139324888Y-94379000D01*
X141005888Y-92840000D02*
X141005888Y-93701000D01*
X139444888Y-89227000D02*
X139444888Y-90760000D01*
X139804888Y-92840000D02*
X139804888Y-94320000D01*
X139965888Y-92840000D02*
X139965888Y-94280000D01*
X140445888Y-89510000D02*
X140445888Y-90760000D01*
X140685888Y-89651000D02*
X140685888Y-90760000D01*
X140245888Y-92840000D02*
X140245888Y-94182000D01*
X139924888Y-89309000D02*
X139924888Y-90760000D01*
X139764888Y-89272000D02*
X139764888Y-90760000D01*
X140125888Y-89372000D02*
X140125888Y-90760000D01*
X140245888Y-89418000D02*
X140245888Y-90760000D01*
X141445888Y-90417000D02*
X141445888Y-93183000D01*
X139884888Y-92840000D02*
X139884888Y-94301000D01*
X140125888Y-92840000D02*
X140125888Y-94228000D01*
X140725888Y-92840000D02*
X140725888Y-93922000D01*
X140605888Y-89600000D02*
X140605888Y-90760000D01*
X139804888Y-89280000D02*
X139804888Y-90760000D01*
X139644888Y-89250000D02*
X139644888Y-90760000D01*
X140805888Y-89735000D02*
X140805888Y-90760000D01*
X139724888Y-92840000D02*
X139724888Y-94336000D01*
X141605888Y-90702000D02*
X141605888Y-92898000D01*
X140325888Y-92840000D02*
X140325888Y-94148000D01*
X140565888Y-89576000D02*
X140565888Y-90760000D01*
X139844888Y-89289000D02*
X139844888Y-90760000D01*
X140645888Y-92840000D02*
X140645888Y-93975000D01*
X139604888Y-89244000D02*
X139604888Y-90760000D01*
X140205888Y-92840000D02*
X140205888Y-94198000D01*
X140485888Y-92840000D02*
X140485888Y-94068000D01*
X140365888Y-92840000D02*
X140365888Y-94129000D01*
X140965888Y-92840000D02*
X140965888Y-93737000D01*
X140765888Y-92840000D02*
X140765888Y-93895000D01*
X141325888Y-90246000D02*
X141325888Y-93354000D01*
X139564888Y-89239000D02*
X139564888Y-90760000D01*
X140765888Y-89705000D02*
X140765888Y-90760000D01*
X139524888Y-92840000D02*
X139524888Y-94365000D01*
X140885888Y-92840000D02*
X140885888Y-93804000D01*
X140685888Y-92840000D02*
X140685888Y-93949000D01*
X141525888Y-90549000D02*
X141525888Y-93051000D01*
X139764888Y-92840000D02*
X139764888Y-94328000D01*
X139244888Y-89220000D02*
X139244888Y-90760000D01*
X139284888Y-92840000D02*
X139284888Y-94380000D01*
X141285888Y-90195000D02*
X141285888Y-93405000D01*
X141805888Y-91282000D02*
X141805888Y-92318000D01*
X140005888Y-92840000D02*
X140005888Y-94268000D01*
X141565888Y-90622000D02*
X141565888Y-92978000D01*
X140085888Y-89358000D02*
X140085888Y-90760000D01*
X139404888Y-92840000D02*
X139404888Y-94376000D01*
X139844888Y-92840000D02*
X139844888Y-94311000D01*
X141045888Y-89936000D02*
X141045888Y-90760000D01*
X140285888Y-89435000D02*
X140285888Y-90760000D01*
X139884888Y-89299000D02*
X139884888Y-90760000D01*
X141125888Y-90015000D02*
X141125888Y-90760000D01*
X140205888Y-89402000D02*
X140205888Y-90760000D01*
X139684888Y-89257000D02*
X139684888Y-90760000D01*
X140845888Y-92840000D02*
X140845888Y-93835000D01*
X141765888Y-91123000D02*
X141765888Y-92477000D01*
X141205888Y-90101000D02*
X141205888Y-90760000D01*
X140645888Y-89625000D02*
X140645888Y-90760000D01*
X141005888Y-89899000D02*
X141005888Y-90760000D01*
X139404888Y-89224000D02*
X139404888Y-90760000D01*
X140885888Y-89796000D02*
X140885888Y-90760000D01*
X140565888Y-92840000D02*
X140565888Y-94024000D01*
X140405888Y-89490000D02*
X140405888Y-90760000D01*
X139244888Y-92840000D02*
X139244888Y-94380000D01*
X140045888Y-92840000D02*
X140045888Y-94255000D01*
X140165888Y-89386000D02*
X140165888Y-90760000D01*
X140845888Y-89765000D02*
X140845888Y-90760000D01*
X141245888Y-90147000D02*
X141245888Y-90760000D01*
X139484888Y-92840000D02*
X139484888Y-94369000D01*
X140805888Y-92840000D02*
X140805888Y-93865000D01*
X140725888Y-89678000D02*
X140725888Y-90760000D01*
X141685888Y-90885000D02*
X141685888Y-92715000D01*
X139484888Y-89231000D02*
X139484888Y-90760000D01*
X141485888Y-90481000D02*
X141485888Y-93119000D01*
X140925888Y-92840000D02*
X140925888Y-93771000D01*
X140405888Y-92840000D02*
X140405888Y-94110000D01*
X140325888Y-89452000D02*
X140325888Y-90760000D01*
X140925888Y-89829000D02*
X140925888Y-90760000D01*
X140525888Y-89553000D02*
X140525888Y-90760000D01*
X139724888Y-89264000D02*
X139724888Y-90760000D01*
X140005888Y-89332000D02*
X140005888Y-90760000D01*
X141845888Y-91516000D02*
X141845888Y-92084000D01*
X141165888Y-90057000D02*
X141165888Y-90760000D01*
X141085888Y-92840000D02*
X141085888Y-93626000D01*
X139924888Y-92840000D02*
X139924888Y-94291000D01*
X139644888Y-92840000D02*
X139644888Y-94350000D01*
X140365888Y-89471000D02*
X140365888Y-90760000D01*
X140285888Y-92840000D02*
X140285888Y-94165000D01*
X140445888Y-92840000D02*
X140445888Y-94090000D01*
X139965888Y-89320000D02*
X139965888Y-90760000D01*
X139324888Y-89221000D02*
X139324888Y-90760000D01*
X140165888Y-92840000D02*
X140165888Y-94214000D01*
X139284888Y-89220000D02*
X139284888Y-90760000D01*
X141125888Y-92840000D02*
X141125888Y-93585000D01*
X141045888Y-92840000D02*
X141045888Y-93664000D01*
X139564888Y-92840000D02*
X139564888Y-94361000D01*
X140525888Y-92840000D02*
X140525888Y-94047000D01*
X141245888Y-92840000D02*
X141245888Y-93453000D01*
X141365888Y-90300000D02*
X141365888Y-93300000D01*
X140085888Y-92840000D02*
X140085888Y-94242000D01*
X140045888Y-89345000D02*
X140045888Y-90760000D01*
X139364888Y-89222000D02*
X139364888Y-90760000D01*
X139364888Y-92840000D02*
X139364888Y-94378000D01*
X141165888Y-92840000D02*
X141165888Y-93543000D01*
X141864888Y-91800000D02*
G75*
G03*
X141864888Y-91800000I-2620000J0D01*
G01*
X155960000Y-90770000D02*
X156290000Y-90770000D01*
X153880000Y-90770000D02*
X153550000Y-90770000D01*
X156290000Y-84230000D02*
X155960000Y-84230000D01*
X153550000Y-90770000D02*
X153550000Y-84230000D01*
X153550000Y-84230000D02*
X153880000Y-84230000D01*
X156290000Y-90770000D02*
X156290000Y-84230000D01*
X156420000Y-90770000D02*
X156090000Y-90770000D01*
X156090000Y-90770000D02*
X156090000Y-84230000D01*
X158500000Y-90770000D02*
X158830000Y-90770000D01*
X158830000Y-84230000D02*
X158500000Y-84230000D01*
X158830000Y-90770000D02*
X158830000Y-84230000D01*
X156090000Y-84230000D02*
X156420000Y-84230000D01*
X144390000Y-71110000D02*
X149630000Y-71110000D01*
X144390000Y-68370000D02*
X149630000Y-68370000D01*
X149630000Y-68370000D02*
X149630000Y-71110000D01*
X144390000Y-68370000D02*
X144390000Y-71110000D01*
%TO.C,C*%
X172340000Y-93194113D02*
X173500000Y-93194113D01*
X172340000Y-94555113D02*
X173880000Y-94555113D01*
X172340000Y-93915113D02*
X173801000Y-93915113D01*
X168789000Y-93955113D02*
X170260000Y-93955113D01*
X169515000Y-92674113D02*
X170260000Y-92674113D01*
X172340000Y-92674113D02*
X173085000Y-92674113D01*
X172340000Y-93434113D02*
X173629000Y-93434113D01*
X172340000Y-93474113D02*
X173648000Y-93474113D01*
X168799000Y-93915113D02*
X170260000Y-93915113D01*
X169857000Y-92394113D02*
X172743000Y-92394113D01*
X172340000Y-93154113D02*
X173475000Y-93154113D01*
X168720000Y-94555113D02*
X170260000Y-94555113D01*
X169296000Y-92914113D02*
X170260000Y-92914113D01*
X172340000Y-94475113D02*
X173879000Y-94475113D01*
X168902000Y-93594113D02*
X170260000Y-93594113D01*
X172340000Y-92794113D02*
X173201000Y-92794113D01*
X169746000Y-92474113D02*
X172854000Y-92474113D01*
X169053000Y-93274113D02*
X170260000Y-93274113D01*
X168764000Y-94075113D02*
X170260000Y-94075113D01*
X168886000Y-93634113D02*
X170260000Y-93634113D01*
X172340000Y-94235113D02*
X173861000Y-94235113D01*
X170289000Y-92154113D02*
X172311000Y-92154113D01*
X169329000Y-92874113D02*
X170260000Y-92874113D01*
X172340000Y-93114113D02*
X173449000Y-93114113D01*
X169363000Y-92834113D02*
X170260000Y-92834113D01*
X170623000Y-92034113D02*
X171977000Y-92034113D01*
X169601000Y-92594113D02*
X170260000Y-92594113D01*
X172340000Y-93674113D02*
X173728000Y-93674113D01*
X172340000Y-94035113D02*
X173828000Y-94035113D01*
X172340000Y-94355113D02*
X173873000Y-94355113D01*
X168845000Y-93754113D02*
X170260000Y-93754113D01*
X172340000Y-94115113D02*
X173843000Y-94115113D01*
X169695000Y-92514113D02*
X172905000Y-92514113D01*
X168744000Y-94195113D02*
X170260000Y-94195113D01*
X172340000Y-94395113D02*
X173876000Y-94395113D01*
X172340000Y-92874113D02*
X173271000Y-92874113D01*
X169647000Y-92554113D02*
X170260000Y-92554113D01*
X168757000Y-94115113D02*
X170260000Y-94115113D01*
X168935000Y-93514113D02*
X170260000Y-93514113D01*
X170495000Y-92074113D02*
X172105000Y-92074113D01*
X168971000Y-93434113D02*
X170260000Y-93434113D01*
X170049000Y-92274113D02*
X172551000Y-92274113D01*
X169265000Y-92954113D02*
X170260000Y-92954113D01*
X172340000Y-94275113D02*
X173865000Y-94275113D01*
X168952000Y-93474113D02*
X170260000Y-93474113D01*
X169825000Y-97359888D02*
X169825000Y-96859888D01*
X172340000Y-92914113D02*
X173304000Y-92914113D01*
X172340000Y-92954113D02*
X173335000Y-92954113D01*
X172340000Y-93274113D02*
X173547000Y-93274113D01*
X168727000Y-94355113D02*
X170260000Y-94355113D01*
X172340000Y-92634113D02*
X173043000Y-92634113D01*
X168735000Y-94275113D02*
X170260000Y-94275113D01*
X168722000Y-94435113D02*
X170260000Y-94435113D01*
X168858000Y-93714113D02*
X170260000Y-93714113D01*
X168739000Y-94235113D02*
X170260000Y-94235113D01*
X172340000Y-92834113D02*
X173237000Y-92834113D01*
X170202000Y-92194113D02*
X172398000Y-92194113D01*
X172340000Y-92554113D02*
X172953000Y-92554113D01*
X169917000Y-92354113D02*
X172683000Y-92354113D01*
X172340000Y-94515113D02*
X173880000Y-94515113D01*
X170782000Y-91994113D02*
X171818000Y-91994113D01*
X170385000Y-92114113D02*
X172215000Y-92114113D01*
X168832000Y-93794113D02*
X170260000Y-93794113D01*
X169032000Y-93314113D02*
X170260000Y-93314113D01*
X172340000Y-92994113D02*
X173365000Y-92994113D01*
X171016000Y-91954113D02*
X171584000Y-91954113D01*
X172340000Y-93394113D02*
X173610000Y-93394113D01*
X172340000Y-94315113D02*
X173869000Y-94315113D01*
X168731000Y-94315113D02*
X170260000Y-94315113D01*
X169436000Y-92754113D02*
X170260000Y-92754113D01*
X172340000Y-93314113D02*
X173568000Y-93314113D01*
X172340000Y-92594113D02*
X172999000Y-92594113D01*
X168772000Y-94035113D02*
X170260000Y-94035113D01*
X172340000Y-93875113D02*
X173791000Y-93875113D01*
X172340000Y-93794113D02*
X173768000Y-93794113D01*
X172340000Y-93234113D02*
X173524000Y-93234113D01*
X172340000Y-93554113D02*
X173682000Y-93554113D01*
X169557000Y-92634113D02*
X170260000Y-92634113D01*
X168918000Y-93554113D02*
X170260000Y-93554113D01*
X172340000Y-93955113D02*
X173811000Y-93955113D01*
X172340000Y-93074113D02*
X173422000Y-93074113D01*
X168820000Y-93834113D02*
X170260000Y-93834113D01*
X172340000Y-93034113D02*
X173395000Y-93034113D01*
X168990000Y-93394113D02*
X170260000Y-93394113D01*
X172340000Y-93834113D02*
X173780000Y-93834113D01*
X169235000Y-92994113D02*
X170260000Y-92994113D01*
X169151000Y-93114113D02*
X170260000Y-93114113D01*
X172340000Y-94075113D02*
X173836000Y-94075113D01*
X169981000Y-92314113D02*
X172619000Y-92314113D01*
X168720000Y-94515113D02*
X170260000Y-94515113D01*
X172340000Y-93754113D02*
X173755000Y-93754113D01*
X168724000Y-94395113D02*
X170260000Y-94395113D01*
X170122000Y-92234113D02*
X172478000Y-92234113D01*
X168721000Y-94475113D02*
X170260000Y-94475113D01*
X169205000Y-93034113D02*
X170260000Y-93034113D01*
X168809000Y-93875113D02*
X170260000Y-93875113D01*
X172340000Y-93995113D02*
X173820000Y-93995113D01*
X169399000Y-92794113D02*
X170260000Y-92794113D01*
X172340000Y-93714113D02*
X173742000Y-93714113D01*
X172340000Y-94435113D02*
X173878000Y-94435113D01*
X172340000Y-93354113D02*
X173590000Y-93354113D01*
X169100000Y-93194113D02*
X170260000Y-93194113D01*
X172340000Y-93594113D02*
X173698000Y-93594113D01*
X172340000Y-94195113D02*
X173856000Y-94195113D01*
X169125000Y-93154113D02*
X170260000Y-93154113D01*
X169178000Y-93074113D02*
X170260000Y-93074113D01*
X172340000Y-93634113D02*
X173714000Y-93634113D01*
X169010000Y-93354113D02*
X170260000Y-93354113D01*
X169076000Y-93234113D02*
X170260000Y-93234113D01*
X168872000Y-93674113D02*
X170260000Y-93674113D01*
X169474000Y-92714113D02*
X170260000Y-92714113D01*
X169575000Y-97109888D02*
X170075000Y-97109888D01*
X168780000Y-93995113D02*
X170260000Y-93995113D01*
X168750000Y-94155113D02*
X170260000Y-94155113D01*
X172340000Y-93514113D02*
X173665000Y-93514113D01*
X172340000Y-94155113D02*
X173850000Y-94155113D01*
X169800000Y-92434113D02*
X172800000Y-92434113D01*
X172340000Y-92754113D02*
X173164000Y-92754113D01*
X172340000Y-92714113D02*
X173126000Y-92714113D01*
X173920000Y-94555113D02*
G75*
G03*
X173920000Y-94555113I-2620000J0D01*
G01*
%TO.C,REF\u002A\u002A*%
X122740000Y-71170000D02*
X127980000Y-71170000D01*
X122740000Y-68430000D02*
X127980000Y-68430000D01*
X122740000Y-68430000D02*
X122740000Y-71170000D01*
X127980000Y-68430000D02*
X127980000Y-71170000D01*
X101170000Y-91010000D02*
X106410000Y-91010000D01*
X101170000Y-93750000D02*
X106410000Y-93750000D01*
X101170000Y-91010000D02*
X101170000Y-93750000D01*
X106410000Y-91010000D02*
X106410000Y-93750000D01*
X121650000Y-91010000D02*
X121650000Y-93750000D01*
X116410000Y-91010000D02*
X121650000Y-91010000D01*
X116410000Y-93750000D02*
X121650000Y-93750000D01*
X116410000Y-91010000D02*
X116410000Y-93750000D01*
X106316709Y-68401710D02*
X106316709Y-71141710D01*
X101076709Y-71141710D02*
X106316709Y-71141710D01*
X101076709Y-68401710D02*
X106316709Y-68401710D01*
X101076709Y-68401710D02*
X101076709Y-71141710D01*
X121485799Y-68370000D02*
X121485799Y-71110000D01*
X116245799Y-71110000D02*
X121485799Y-71110000D01*
X116245799Y-68370000D02*
X121485799Y-68370000D01*
X116245799Y-68370000D02*
X116245799Y-71110000D01*
%TD*%
M02*
