M48
; DRILL file {KiCad (6.0.6)} date Fri Jul  8 14:08:21 2022
; FORMAT={-:-/ absolute / inch / decimal}
; #@! TF.CreationDate,2022-07-08T14:08:21+08:00
; #@! TF.GenerationSoftware,Kicad,Pcbnew,(6.0.6)
; #@! TF.FileFunction,Plated,1,4,PTH
FMAT,2
INCH
; #@! TA.AperFunction,Plated,PTH,ViaDrill
T1C0.0157
; #@! TA.AperFunction,Plated,PTH,ComponentDrill
T2C0.0315
; #@! TA.AperFunction,Plated,PTH,ComponentDrill
T3C0.0394
%
G90
G05
T1
X4.4331Y-2.8346
X4.5039Y-2.7638
X4.7172Y-2.9291
X4.7382Y-2.5965
X4.815Y-3.5984
X4.8189Y-3.0945
X4.8661Y-3.0197
X4.8701Y-2.9252
X4.876Y-3.5453
X4.9449Y-3.0787
X5.0787Y-3.1102
X5.1024Y-2.815
X5.1811Y-3.6693
X5.2106Y-3.4193
X5.2185Y-3.2618
X5.2205Y-3.2598
X5.2677Y-3.3898
X5.2795Y-3.2677
X5.2795Y-3.2677
X5.2795Y-3.2677
X5.2795Y-3.2677
X5.3307Y-3.1535
X5.4213Y-3.122
X5.6378Y-3.1102
X5.6378Y-3.2598
X5.6831Y-3.2579
X5.7165Y-3.2441
X5.7165Y-3.2441
X5.7795Y-3.1063
X5.811Y-2.9882
X5.8189Y-3.1024
X5.8189Y-3.1024
X5.8425Y-3.3583
X5.8661Y-3.1063
X5.9055Y-2.8858
X5.9134Y-3.1063
X5.9134Y-3.1063
X5.9134Y-3.2559
X5.9252Y-3.5315
X5.9291Y-3.0709
X5.9331Y-2.9094
X5.9567Y-2.9409
X5.9646Y-2.8425
X5.9862Y-2.872
X6.0157Y-2.9409
X6.0197Y-2.9843
X6.1358Y-3.6909
X6.137Y-3.7803
X6.237Y-3.7764
X6.248Y-3.6732
X6.3169Y-3.7736
X6.437Y-3.7717
T2
X4.0215Y-2.7784
X4.037Y-3.637
X4.1199Y-2.7784
X4.1354Y-3.637
X4.6187Y-2.7772
X4.637Y-3.637
X4.7172Y-2.7772
X4.7354Y-3.637
X4.8744Y-2.7795
X4.9624Y-3.2362
X4.9624Y-3.5984
X4.9728Y-2.7795
X5.0411Y-3.2362
X5.0411Y-3.5984
X5.3614Y-3.3772
X5.3614Y-3.6772
X5.4614Y-3.3772
X5.4614Y-3.6772
X5.4744Y-2.7795
X5.5614Y-3.3772
X5.5614Y-3.6772
X5.5728Y-2.7795
X5.6614Y-3.3772
X5.6614Y-3.6772
X5.7268Y-2.7772
X5.8252Y-2.7772
X6.3252Y-2.7772
X6.4236Y-2.7772
T3
X4.0205Y-2.1772
X4.0205Y-2.6772
X4.0387Y-3.0372
X4.0387Y-3.5372
X4.0465Y-1.9055
X4.1205Y-2.1772
X4.1205Y-2.6772
X4.1387Y-3.0372
X4.1387Y-3.5372
X4.1465Y-1.9055
X4.2205Y-2.1772
X4.2205Y-2.6772
X4.2387Y-3.0372
X4.2387Y-3.5372
X4.2465Y-1.9055
X4.3205Y-2.1772
X4.3205Y-2.6772
X4.3387Y-3.0372
X4.3387Y-3.5372
X4.3465Y-1.9055
X4.4187Y-2.177
X4.4205Y-2.6772
X4.437Y-3.037
X4.4387Y-3.5372
X4.5205Y-2.6772
X4.5233Y-2.18
X4.5387Y-3.5372
X4.5416Y-3.04
X4.6205Y-2.1772
X4.6205Y-2.6772
X4.6387Y-3.0372
X4.6387Y-3.5372
X4.677Y-1.937
X4.685Y-3.8386
X4.7205Y-2.1772
X4.7205Y-2.2772
X4.7205Y-2.3772
X4.7205Y-2.6772
X4.7387Y-3.0372
X4.7387Y-3.1372
X4.7387Y-3.2372
X4.7387Y-3.5372
X4.777Y-1.937
X4.8661Y-3.8386
X4.8744Y-2.1795
X4.8744Y-2.6795
X4.877Y-1.937
X4.9744Y-2.1795
X4.9744Y-2.6795
X4.977Y-1.937
X5.037Y-3.837
X5.0744Y-2.1795
X5.0744Y-2.6795
X5.077Y-1.937
X5.137Y-3.837
X5.1744Y-2.1795
X5.1744Y-2.6795
X5.177Y-1.937
X5.237Y-3.837
X5.2727Y-2.1794
X5.2744Y-2.6795
X5.277Y-1.937
X5.337Y-3.837
X5.3744Y-2.6795
X5.377Y-1.937
X5.3772Y-2.1824
X5.437Y-3.837
X5.4744Y-2.1795
X5.4744Y-2.6795
X5.477Y-1.937
X5.537Y-3.837
X5.5744Y-2.1795
X5.5744Y-2.2795
X5.5744Y-2.3795
X5.5744Y-2.6795
X5.577Y-1.937
X5.637Y-3.837
X5.7252Y-2.1772
X5.7252Y-2.6772
X5.737Y-1.937
X5.737Y-3.837
X5.8252Y-2.1772
X5.8252Y-2.6772
X5.837Y-1.937
X5.9252Y-2.1772
X5.9252Y-2.6772
X5.937Y-1.937
X5.937Y-3.837
X6.0252Y-2.1772
X6.0252Y-2.6772
X6.037Y-1.937
X6.037Y-3.837
X6.0866Y-3.2677
X6.0874Y-3.378
X6.0874Y-3.4803
X6.0874Y-3.5906
X6.1235Y-2.177
X6.1252Y-2.6772
X6.137Y-1.937
X6.137Y-3.837
X6.1614Y-2.9787
X6.1614Y-3.0787
X6.1866Y-3.2677
X6.1874Y-3.378
X6.1874Y-3.4803
X6.1874Y-3.5906
X6.2252Y-2.6772
X6.228Y-2.18
X6.237Y-1.937
X6.237Y-3.837
X6.2717Y-2.978
X6.2717Y-3.078
X6.2866Y-3.2677
X6.2874Y-3.378
X6.2874Y-3.4803
X6.2874Y-3.5906
X6.3252Y-2.1772
X6.3252Y-2.6772
X6.337Y-1.937
X6.337Y-3.837
X6.374Y-2.978
X6.374Y-3.078
X6.3866Y-3.2677
X6.3874Y-3.378
X6.3874Y-3.4803
X6.3874Y-3.5906
X6.4252Y-2.1772
X6.4252Y-2.2772
X6.4252Y-2.3772
X6.4252Y-2.6772
X6.437Y-1.937
X6.437Y-3.837
X6.4843Y-2.978
X6.4843Y-3.078
T0
M30
