%TF.GenerationSoftware,KiCad,Pcbnew,(6.0.6)*%
%TF.CreationDate,2022-07-08T14:02:12+08:00*%
%TF.ProjectId,Stepper,53746570-7065-4722-9e6b-696361645f70,rev?*%
%TF.SameCoordinates,Original*%
%TF.FileFunction,Copper,L1,Top*%
%TF.FilePolarity,Positive*%
%FSLAX46Y46*%
G04 Gerber Fmt 4.6, Leading zero omitted, Abs format (unit mm)*
G04 Created by KiCad (PCBNEW (6.0.6)) date 2022-07-08 14:02:12*
%MOMM*%
%LPD*%
G01*
G04 APERTURE LIST*
%TA.AperFunction,ComponentPad*%
%ADD10R,1.700000X1.700000*%
%TD*%
%TA.AperFunction,ComponentPad*%
%ADD11O,1.700000X1.700000*%
%TD*%
%TA.AperFunction,ComponentPad*%
%ADD12C,1.600000*%
%TD*%
%TA.AperFunction,ComponentPad*%
%ADD13O,1.600000X1.600000*%
%TD*%
%TA.AperFunction,ComponentPad*%
%ADD14R,1.600000X1.600000*%
%TD*%
%TA.AperFunction,ViaPad*%
%ADD15C,0.800000*%
%TD*%
%TA.AperFunction,Conductor*%
%ADD16C,0.400000*%
%TD*%
G04 APERTURE END LIST*
D10*
%TO.P,J1,1,Pin_1*%
%TO.N,unconnected-(J1-Pad1)*%
X127940000Y-97460000D03*
D11*
%TO.P,J1,2,Pin_2*%
%TO.N,/IOREF*%
X130480000Y-97460000D03*
%TO.P,J1,3,Pin_3*%
%TO.N,/~{RESET}*%
X133020000Y-97460000D03*
%TO.P,J1,4,Pin_4*%
%TO.N,+3V3*%
X135560000Y-97460000D03*
%TO.P,J1,5,Pin_5*%
%TO.N,+5V*%
X138100000Y-97460000D03*
%TO.P,J1,6,Pin_6*%
%TO.N,GND*%
X140640000Y-97460000D03*
%TO.P,J1,7,Pin_7*%
X143180000Y-97460000D03*
%TO.P,J1,8,Pin_8*%
%TO.N,VCC*%
X145720000Y-97460000D03*
%TD*%
D10*
%TO.P,J3,1,Pin_1*%
%TO.N,/A0*%
X150800000Y-97460000D03*
D11*
%TO.P,J3,2,Pin_2*%
%TO.N,/A1*%
X153340000Y-97460000D03*
%TO.P,J3,3,Pin_3*%
%TO.N,/A2*%
X155880000Y-97460000D03*
%TO.P,J3,4,Pin_4*%
%TO.N,/A3*%
X158420000Y-97460000D03*
%TO.P,J3,5,Pin_5*%
%TO.N,/SDA{slash}A4*%
X160960000Y-97460000D03*
%TO.P,J3,6,Pin_6*%
%TO.N,/SCL{slash}A5*%
X163500000Y-97460000D03*
%TD*%
D10*
%TO.P,J2,1,Pin_1*%
%TO.N,/SCL{slash}A5*%
X118796000Y-49200000D03*
D11*
%TO.P,J2,2,Pin_2*%
%TO.N,/SDA{slash}A4*%
X121336000Y-49200000D03*
%TO.P,J2,3,Pin_3*%
%TO.N,/AREF*%
X123876000Y-49200000D03*
%TO.P,J2,4,Pin_4*%
%TO.N,GND*%
X126416000Y-49200000D03*
%TO.P,J2,5,Pin_5*%
%TO.N,/13*%
X128956000Y-49200000D03*
%TO.P,J2,6,Pin_6*%
%TO.N,/12*%
X131496000Y-49200000D03*
%TO.P,J2,7,Pin_7*%
%TO.N,/\u002A11*%
X134036000Y-49200000D03*
%TO.P,J2,8,Pin_8*%
%TO.N,/\u002A10*%
X136576000Y-49200000D03*
%TO.P,J2,9,Pin_9*%
%TO.N,/\u002A9*%
X139116000Y-49200000D03*
%TO.P,J2,10,Pin_10*%
%TO.N,/8*%
X141656000Y-49200000D03*
%TD*%
D10*
%TO.P,J4,1,Pin_1*%
%TO.N,/7*%
X145720000Y-49200000D03*
D11*
%TO.P,J4,2,Pin_2*%
%TO.N,/\u002A6*%
X148260000Y-49200000D03*
%TO.P,J4,3,Pin_3*%
%TO.N,/\u002A5*%
X150800000Y-49200000D03*
%TO.P,J4,4,Pin_4*%
%TO.N,/4*%
X153340000Y-49200000D03*
%TO.P,J4,5,Pin_5*%
%TO.N,/\u002A3*%
X155880000Y-49200000D03*
%TO.P,J4,6,Pin_6*%
%TO.N,/2*%
X158420000Y-49200000D03*
%TO.P,J4,7,Pin_7*%
%TO.N,/TX{slash}1*%
X160960000Y-49200000D03*
%TO.P,J4,8,Pin_8*%
%TO.N,/RX{slash}0*%
X163500000Y-49200000D03*
%TD*%
%TO.P,,D1,Pin_4*%
%TO.N,N/C*%
X119900000Y-57840000D03*
%TD*%
%TO.P,,D1,Pin_4*%
%TO.N,N/C*%
X133970000Y-68060000D03*
%TD*%
%TO.P,,D1,Pin_4*%
%TO.N,N/C*%
X156500000Y-75660000D03*
%TD*%
%TO.P,,D1,Pin_4*%
%TO.N,N/C*%
X133925799Y-55355827D03*
%TD*%
%TO.P,,D1,Pin_4*%
%TO.N,N/C*%
X131430000Y-68060000D03*
%TD*%
%TO.P,,D1,Pin_4*%
%TO.N,N/C*%
X104660000Y-68000000D03*
%TD*%
%TO.P,,D1,Pin_4*%
%TO.N,N/C*%
X156500000Y-78200000D03*
%TD*%
%TO.P,,D1,Pin_4*%
%TO.N,N/C*%
X117824201Y-77144173D03*
%TD*%
%TO.P,,D1,Pin_4*%
%TO.N,N/C*%
X112700000Y-77140000D03*
%TD*%
%TO.P,,D1,Pin_4*%
%TO.N,N/C*%
X158191710Y-55371710D03*
%TD*%
D12*
%TO.P,REF\u002A\u002A,1*%
%TO.N,N/C*%
X139050000Y-70600000D03*
%TO.P,REF\u002A\u002A,2*%
X141550000Y-70600000D03*
%TD*%
D11*
%TO.P,,D1,Pin_4*%
%TO.N,N/C*%
X117360000Y-68000000D03*
%TD*%
%TO.P,,D1,Pin_4*%
%TO.N,N/C*%
X147960000Y-55300000D03*
%TD*%
%TO.P,,D1,Pin_4*%
%TO.N,N/C*%
X162220000Y-83000000D03*
%TD*%
%TO.P,,D1,Pin_4*%
%TO.N,N/C*%
X147960000Y-68000000D03*
%TD*%
%TO.P,,D1,Pin_4*%
%TO.N,N/C*%
X157160000Y-91200000D03*
%TD*%
%TO.P,,D1,Pin_4*%
%TO.N,N/C*%
X105124201Y-77144173D03*
%TD*%
%TO.P,,D1,Pin_4*%
%TO.N,N/C*%
X120364201Y-82224173D03*
%TD*%
%TO.P,,D1,Pin_4*%
%TO.N,N/C*%
X139050000Y-68060000D03*
%TD*%
%TO.P,,D1,Pin_4*%
%TO.N,N/C*%
X119900000Y-55300000D03*
%TD*%
%TO.P,,D1,Pin_4*%
%TO.N,N/C*%
X150500000Y-68000000D03*
%TD*%
%TO.P,,D1,Pin_4*%
%TO.N,N/C*%
X154620000Y-91200000D03*
%TD*%
%TO.P,,D1,Pin_4*%
%TO.N,N/C*%
X157140000Y-83000000D03*
%TD*%
%TO.P,,D1,Pin_4*%
%TO.N,N/C*%
X145420000Y-68000000D03*
%TD*%
%TO.P,,D1,Pin_4*%
%TO.N,N/C*%
X163200000Y-68000000D03*
%TD*%
%TO.P,,D1,Pin_4*%
%TO.N,N/C*%
X159680000Y-83000000D03*
%TD*%
%TO.P,,D1,Pin_4*%
%TO.N,N/C*%
X150500000Y-55300000D03*
%TD*%
%TO.P,,D1,Pin_4*%
%TO.N,N/C*%
X163200000Y-60380000D03*
%TD*%
%TO.P,,D1,Pin_4*%
%TO.N,N/C*%
X123810000Y-55360000D03*
%TD*%
%TO.P,,D1,Pin_4*%
%TO.N,N/C*%
X119900000Y-60380000D03*
%TD*%
D12*
%TO.P,REF\u002A\u002A,1*%
%TO.N,N/C*%
X160660000Y-70540000D03*
%TO.P,REF\u002A\u002A,2*%
X163160000Y-70540000D03*
%TD*%
%TO.P,REF\u002A\u002A,1*%
%TO.N,N/C*%
X143800000Y-93400000D03*
D13*
%TO.P,REF\u002A\u002A,2*%
X143800000Y-85780000D03*
%TD*%
D11*
%TO.P,,D1,Pin_4*%
%TO.N,N/C*%
X126350000Y-68060000D03*
%TD*%
%TO.P,,D1,Pin_4*%
%TO.N,N/C*%
X115355911Y-77215883D03*
%TD*%
%TO.P,,D1,Pin_4*%
%TO.N,N/C*%
X109740000Y-55300000D03*
%TD*%
%TO.P,,D1,Pin_4*%
%TO.N,N/C*%
X114891710Y-55371710D03*
%TD*%
%TO.P,,D1,Pin_4*%
%TO.N,N/C*%
X141590000Y-68060000D03*
%TD*%
%TO.P,,D1,Pin_4*%
%TO.N,N/C*%
X102584201Y-77144173D03*
%TD*%
%TO.P,,D1,Pin_4*%
%TO.N,N/C*%
X164700000Y-78180000D03*
%TD*%
%TO.P,,D1,Pin_4*%
%TO.N,N/C*%
X161900000Y-78180000D03*
%TD*%
%TO.P,,D1,Pin_4*%
%TO.N,N/C*%
X157160000Y-88400000D03*
%TD*%
%TO.P,,D1,Pin_4*%
%TO.N,N/C*%
X107860000Y-48400000D03*
%TD*%
%TO.P,,D1,Pin_4*%
%TO.N,N/C*%
X159700000Y-91200000D03*
%TD*%
%TO.P,,D1,Pin_4*%
%TO.N,N/C*%
X128890000Y-68060000D03*
%TD*%
%TO.P,,D1,Pin_4*%
%TO.N,N/C*%
X102584201Y-89844173D03*
%TD*%
%TO.P,,D1,Pin_4*%
%TO.N,N/C*%
X160660000Y-68000000D03*
%TD*%
%TO.P,,D1,Pin_4*%
%TO.N,N/C*%
X131430000Y-55360000D03*
%TD*%
D12*
%TO.P,REF\u002A\u002A,1*%
%TO.N,N/C*%
X136180000Y-93400000D03*
D13*
%TO.P,REF\u002A\u002A,2*%
X136180000Y-85780000D03*
%TD*%
D11*
%TO.P,,D1,Pin_4*%
%TO.N,N/C*%
X105124201Y-89844173D03*
%TD*%
%TO.P,,D1,Pin_4*%
%TO.N,N/C*%
X157160000Y-85800000D03*
%TD*%
%TO.P,,D1,Pin_4*%
%TO.N,N/C*%
X153040000Y-68000000D03*
%TD*%
%TO.P,,D1,Pin_4*%
%TO.N,N/C*%
X141590000Y-55360000D03*
%TD*%
%TO.P,,D1,Pin_4*%
%TO.N,N/C*%
X119900000Y-68000000D03*
%TD*%
%TO.P,,D1,Pin_4*%
%TO.N,N/C*%
X117824201Y-89844173D03*
%TD*%
D14*
%TO.P,REF\u002A\u002A,1*%
%TO.N,N/C*%
X126044888Y-91400000D03*
D12*
%TO.P,REF\u002A\u002A,2*%
X128044888Y-91400000D03*
%TD*%
D11*
%TO.P,,D1,Pin_4*%
%TO.N,N/C*%
X104660000Y-55300000D03*
%TD*%
D12*
%TO.P,REF\u002A\u002A,1*%
%TO.N,N/C*%
X138720000Y-93400000D03*
D13*
%TO.P,REF\u002A\u002A,2*%
X138720000Y-85780000D03*
%TD*%
D11*
%TO.P,,D1,Pin_4*%
%TO.N,N/C*%
X161900000Y-75640000D03*
%TD*%
%TO.P,,D1,Pin_4*%
%TO.N,N/C*%
X102120000Y-55300000D03*
%TD*%
%TO.P,,D1,Pin_4*%
%TO.N,N/C*%
X163200000Y-57840000D03*
%TD*%
%TO.P,,D1,Pin_4*%
%TO.N,N/C*%
X154620000Y-85800000D03*
%TD*%
%TO.P,,D1,Pin_4*%
%TO.N,N/C*%
X162240000Y-88400000D03*
%TD*%
%TO.P,,D1,Pin_4*%
%TO.N,N/C*%
X136581710Y-55431710D03*
%TD*%
%TO.P,,D1,Pin_4*%
%TO.N,N/C*%
X155580000Y-68000000D03*
%TD*%
%TO.P,,D1,Pin_4*%
%TO.N,N/C*%
X164700000Y-75640000D03*
%TD*%
%TO.P,,D1,Pin_4*%
%TO.N,N/C*%
X141590000Y-60440000D03*
%TD*%
D12*
%TO.P,REF\u002A\u002A,1*%
%TO.N,N/C*%
X141260000Y-93400000D03*
D13*
%TO.P,REF\u002A\u002A,2*%
X141260000Y-85780000D03*
%TD*%
D11*
%TO.P,,D1,Pin_4*%
%TO.N,N/C*%
X109740000Y-68000000D03*
%TD*%
%TO.P,,D1,Pin_4*%
%TO.N,N/C*%
X136510000Y-68060000D03*
%TD*%
%TO.P,,D1,Pin_4*%
%TO.N,N/C*%
X159700000Y-85800000D03*
%TD*%
%TO.P,,D1,Pin_4*%
%TO.N,N/C*%
X154620000Y-88400000D03*
%TD*%
%TO.P,,D1,Pin_4*%
%TO.N,N/C*%
X160660000Y-55300000D03*
%TD*%
%TO.P,,D1,Pin_4*%
%TO.N,N/C*%
X114820000Y-68000000D03*
%TD*%
%TO.P,,D1,Pin_4*%
%TO.N,N/C*%
X123810000Y-68060000D03*
%TD*%
%TO.P,,D1,Pin_4*%
%TO.N,N/C*%
X120364201Y-89844173D03*
%TD*%
%TO.P,,D1,Pin_4*%
%TO.N,N/C*%
X107664201Y-89844173D03*
%TD*%
%TO.P,,D1,Pin_4*%
%TO.N,N/C*%
X128890000Y-55360000D03*
%TD*%
%TO.P,,D1,Pin_4*%
%TO.N,N/C*%
X117360000Y-55300000D03*
%TD*%
%TO.P,,D1,Pin_4*%
%TO.N,N/C*%
X155535799Y-55295827D03*
%TD*%
%TO.P,,D1,Pin_4*%
%TO.N,N/C*%
X163200000Y-55300000D03*
%TD*%
%TO.P,,D1,Pin_4*%
%TO.N,N/C*%
X159700000Y-88400000D03*
%TD*%
D12*
%TO.P,REF\u002A\u002A,1*%
%TO.N,N/C*%
X145460000Y-70540000D03*
%TO.P,REF\u002A\u002A,2*%
X147960000Y-70540000D03*
%TD*%
D11*
%TO.P,,D1,Pin_4*%
%TO.N,GND*%
X123600000Y-97500000D03*
%TD*%
%TO.P,,D1,Pin_4*%
%TO.N,N/C*%
X115284201Y-89844173D03*
%TD*%
%TO.P,,D1,Pin_4*%
%TO.N,N/C*%
X126350000Y-55360000D03*
%TD*%
D14*
%TO.P,REF\u002A\u002A,1*%
%TO.N,N/C*%
X126044888Y-82200000D03*
D12*
%TO.P,REF\u002A\u002A,2*%
X128044888Y-82200000D03*
%TD*%
D11*
%TO.P,,D1,Pin_4*%
%TO.N,N/C*%
X112280000Y-68000000D03*
%TD*%
%TO.P,,D1,Pin_4*%
%TO.N,N/C*%
X159300000Y-75640000D03*
%TD*%
D12*
%TO.P,REF\u002A\u002A,1*%
%TO.N,N/C*%
X123810000Y-70600000D03*
%TO.P,REF\u002A\u002A,2*%
X126310000Y-70600000D03*
%TD*%
D11*
%TO.P,,D1,Pin_4*%
%TO.N,N/C*%
X107200000Y-55300000D03*
%TD*%
%TO.P,,D1,Pin_4*%
%TO.N,N/C*%
X110204201Y-77144173D03*
%TD*%
%TO.P,,D1,Pin_4*%
%TO.N,N/C*%
X153040000Y-55300000D03*
%TD*%
%TO.P,,D1,Pin_4*%
%TO.N,VCC*%
X119000000Y-97500000D03*
%TD*%
%TO.P,,D1,Pin_4*%
%TO.N,N/C*%
X102120000Y-68000000D03*
%TD*%
%TO.P,,D1,Pin_4*%
%TO.N,N/C*%
X110204201Y-89844173D03*
%TD*%
D12*
%TO.P,REF\u002A\u002A,1*%
%TO.N,N/C*%
X102540000Y-92380000D03*
%TO.P,REF\u002A\u002A,2*%
X105040000Y-92380000D03*
%TD*%
D11*
%TO.P,,D1,Pin_4*%
%TO.N,N/C*%
X162240000Y-85800000D03*
%TD*%
%TO.P,,D1,Pin_4*%
%TO.N,N/C*%
X112744201Y-89844173D03*
%TD*%
%TO.P,,D1,Pin_4*%
%TO.N,N/C*%
X107200000Y-68000000D03*
%TD*%
%TO.P,,D1,Pin_4*%
%TO.N,N/C*%
X141590000Y-57900000D03*
%TD*%
%TO.P,,D1,Pin_4*%
%TO.N,N/C*%
X162240000Y-91200000D03*
%TD*%
%TO.P,,D1,Pin_4*%
%TO.N,N/C*%
X145420000Y-55300000D03*
%TD*%
%TO.P,,D1,Pin_4*%
%TO.N,N/C*%
X120364201Y-79684173D03*
%TD*%
%TO.P,,D1,Pin_4*%
%TO.N,N/C*%
X158120000Y-68000000D03*
%TD*%
D12*
%TO.P,REF\u002A\u002A,1*%
%TO.N,N/C*%
X117780000Y-92380000D03*
%TO.P,REF\u002A\u002A,2*%
X120280000Y-92380000D03*
%TD*%
%TO.P,REF\u002A\u002A,1*%
%TO.N,N/C*%
X102146709Y-70571710D03*
%TO.P,REF\u002A\u002A,2*%
X104646709Y-70571710D03*
%TD*%
D11*
%TO.P,,D1,Pin_4*%
%TO.N,N/C*%
X110400000Y-48400000D03*
%TD*%
%TO.P,,D1,Pin_4*%
%TO.N,N/C*%
X112235799Y-55295827D03*
%TD*%
%TO.P,,D1,Pin_4*%
%TO.N,N/C*%
X154600000Y-83000000D03*
%TD*%
%TO.P,,D1,Pin_4*%
%TO.N,N/C*%
X102780000Y-48400000D03*
%TD*%
%TO.P,,D1,Pin_4*%
%TO.N,N/C*%
X120364201Y-77144173D03*
%TD*%
%TO.P,,D1,Pin_4*%
%TO.N,N/C*%
X105320000Y-48400000D03*
%TD*%
%TO.P,,D1,Pin_4*%
%TO.N,N/C*%
X159300000Y-78180000D03*
%TD*%
%TO.P,,D1,Pin_4*%
%TO.N,N/C*%
X139050000Y-55360000D03*
%TD*%
%TO.P,,D1,Pin_4*%
%TO.N,N/C*%
X107664201Y-77144173D03*
%TD*%
D12*
%TO.P,REF\u002A\u002A,1*%
%TO.N,N/C*%
X117315799Y-70540000D03*
%TO.P,REF\u002A\u002A,2*%
X119815799Y-70540000D03*
%TD*%
D15*
%TO.N,*%
X152800000Y-74700000D03*
X137700000Y-79300000D03*
X150200000Y-78900000D03*
X135400000Y-80100000D03*
X150200000Y-78900000D03*
X158700000Y-93300000D03*
X131600000Y-93200000D03*
X132550000Y-82850000D03*
X134100000Y-83000000D03*
X148400000Y-85300000D03*
X151300000Y-74700000D03*
X134100000Y-83000000D03*
X150600000Y-78000000D03*
X149000000Y-78900000D03*
X134100000Y-83000000D03*
X132600000Y-82800000D03*
X150700000Y-73900000D03*
X147800000Y-78800000D03*
X145200000Y-82400000D03*
X150200000Y-82700000D03*
X143200000Y-79000000D03*
X144350000Y-82750000D03*
X150000000Y-73300000D03*
X152900000Y-75800000D03*
X134100000Y-83000000D03*
X150500000Y-89700000D03*
X143200000Y-82800000D03*
X151500000Y-72200000D03*
X123700000Y-74300000D03*
X152050000Y-72950000D03*
X146800000Y-78900000D03*
X145200000Y-82400000D03*
X147800000Y-78800000D03*
X114400000Y-70200000D03*
%TO.N,GND*%
X120350000Y-65950000D03*
X123850000Y-90050000D03*
X132350000Y-86850000D03*
X129000000Y-79000000D03*
X123600000Y-76700000D03*
X133800000Y-86100000D03*
%TO.N,+5V*%
X147600000Y-75900000D03*
X112600000Y-72000000D03*
X125600000Y-78200000D03*
%TO.N,/A2*%
X155880000Y-96020000D03*
X155850000Y-93750000D03*
%TO.N,/A3*%
X158420000Y-95920000D03*
%TO.N,/SDA{slash}A4*%
X160450000Y-95850000D03*
%TO.N,/SCL{slash}A5*%
X163500000Y-95800000D03*
%TO.N,VCC*%
X129600000Y-71500000D03*
X119815799Y-74400000D03*
X122400000Y-78600000D03*
X122300000Y-91400000D03*
%TD*%
D16*
%TO.N,*%
X113100000Y-84900000D02*
X119000000Y-84900000D01*
X116800000Y-87600000D02*
X121600000Y-87600000D01*
X162220000Y-82520000D02*
X162220000Y-83000000D01*
X132000000Y-81400000D02*
X156200000Y-81400000D01*
X144800000Y-84400000D02*
X156700000Y-84400000D01*
X156700000Y-84400000D02*
X157160000Y-84860000D01*
X134600000Y-83500000D02*
X134100000Y-83000000D01*
X158100000Y-68020000D02*
X158100000Y-69400000D01*
X139600000Y-79300000D02*
X140900000Y-80600000D01*
X157140000Y-82340000D02*
X157140000Y-83000000D01*
X155580000Y-68000000D02*
X155580000Y-69420000D01*
X157160000Y-84860000D02*
X157160000Y-85800000D01*
X115284201Y-89115799D02*
X116800000Y-87600000D01*
X134500000Y-88500000D02*
X134600000Y-88400000D01*
X140900000Y-80600000D02*
X160300000Y-80600000D01*
X158100000Y-69400000D02*
X152800000Y-74700000D01*
X135700000Y-73400000D02*
X137600000Y-73400000D01*
X137700000Y-79300000D02*
X139600000Y-79300000D01*
X143200000Y-82800000D02*
X144800000Y-84400000D01*
X110204201Y-89844173D02*
X110204201Y-87795799D01*
X122500000Y-88500000D02*
X134500000Y-88500000D01*
X153040000Y-68000000D02*
X153040000Y-70660000D01*
X152050000Y-72950000D02*
X152000000Y-73000000D01*
X137600000Y-73400000D02*
X143200000Y-79000000D01*
X110204201Y-87795799D02*
X113100000Y-84900000D01*
X153040000Y-70660000D02*
X151500000Y-72200000D01*
X115284201Y-89844173D02*
X115284201Y-89115799D01*
X155500000Y-69500000D02*
X152050000Y-72950000D01*
X128000000Y-85400000D02*
X132000000Y-81400000D01*
X115140000Y-73400000D02*
X135700000Y-73400000D01*
X121600000Y-87600000D02*
X122500000Y-88500000D01*
X134600000Y-88400000D02*
X134600000Y-83500000D01*
X119000000Y-84900000D02*
X119500000Y-85400000D01*
X109740000Y-68000000D02*
X114740000Y-73000000D01*
X114740000Y-73000000D02*
X115140000Y-73400000D01*
X119500000Y-85400000D02*
X128000000Y-85400000D01*
X158120000Y-68000000D02*
X158100000Y-68020000D01*
X160300000Y-80600000D02*
X162220000Y-82520000D01*
X155580000Y-69420000D02*
X155500000Y-69500000D01*
X156200000Y-81400000D02*
X157140000Y-82340000D01*
%TO.N,GND*%
X130600000Y-89600000D02*
X128589776Y-89600000D01*
X123600000Y-97500000D02*
X123600000Y-96600000D01*
X123300000Y-90600000D02*
X123300000Y-94000000D01*
X130600000Y-89600000D02*
X130600000Y-89500000D01*
X128589776Y-89600000D02*
X128044888Y-90144888D01*
X131600000Y-94900000D02*
X130600000Y-93900000D01*
X123600000Y-96600000D02*
X126400000Y-93800000D01*
X127500000Y-89600000D02*
X124300000Y-89600000D01*
X124300000Y-89600000D02*
X123850000Y-90050000D01*
X119400000Y-94000000D02*
X117780000Y-92380000D01*
X128044888Y-91400000D02*
X128044888Y-90144888D01*
X123600000Y-74400000D02*
X123700000Y-74300000D01*
X123850000Y-90050000D02*
X123300000Y-90600000D01*
X123300000Y-94000000D02*
X119400000Y-94000000D01*
X123600000Y-76700000D02*
X123600000Y-74400000D01*
X143180000Y-97460000D02*
X140620000Y-94900000D01*
X130600000Y-93900000D02*
X130600000Y-89600000D01*
X128044888Y-93755112D02*
X128044888Y-91400000D01*
X140620000Y-94900000D02*
X131600000Y-94900000D01*
X128044888Y-90144888D02*
X127500000Y-89600000D01*
X128000000Y-93800000D02*
X128044888Y-93755112D01*
X126400000Y-93800000D02*
X128000000Y-93800000D01*
%TO.N,+5V*%
X122500000Y-77500000D02*
X123200000Y-78200000D01*
X126000000Y-72400000D02*
X126310000Y-72090000D01*
X115200000Y-74600000D02*
X116000000Y-75400000D01*
X104646709Y-70571710D02*
X111171710Y-70571710D01*
X126310000Y-72090000D02*
X126310000Y-70600000D01*
X114400000Y-70200000D02*
X115200000Y-71000000D01*
X105040000Y-94660000D02*
X104300000Y-95400000D01*
X115200000Y-71000000D02*
X115200000Y-72400000D01*
X126000000Y-72400000D02*
X146100000Y-72400000D01*
X117500000Y-82600000D02*
X118400000Y-83500000D01*
X116000000Y-75400000D02*
X122100000Y-75400000D01*
X147600000Y-75900000D02*
X148600000Y-76900000D01*
X123200000Y-78200000D02*
X125600000Y-78200000D01*
X155260000Y-76900000D02*
X156500000Y-75660000D01*
X146100000Y-72400000D02*
X147960000Y-70540000D01*
X124400000Y-80400000D02*
X125600000Y-79200000D01*
X105040000Y-92380000D02*
X105040000Y-94660000D01*
X148600000Y-76900000D02*
X155260000Y-76900000D01*
X122100000Y-75400000D02*
X122500000Y-75800000D01*
X101000000Y-95400000D02*
X100600000Y-95000000D01*
X159300000Y-75640000D02*
X164700000Y-75640000D01*
X100700000Y-82600000D02*
X117500000Y-82600000D01*
X156500000Y-75660000D02*
X159280000Y-75660000D01*
X100600000Y-95000000D02*
X100600000Y-82700000D01*
X104300000Y-95400000D02*
X101000000Y-95400000D01*
X111171710Y-70571710D02*
X112600000Y-72000000D01*
X125600000Y-79200000D02*
X125600000Y-78200000D01*
X121300000Y-83500000D02*
X124400000Y-80400000D01*
X159280000Y-75660000D02*
X159300000Y-75640000D01*
X100600000Y-82700000D02*
X100700000Y-82600000D01*
X125700000Y-72700000D02*
X126000000Y-72400000D01*
X115200000Y-72400000D02*
X115500000Y-72700000D01*
X112600000Y-72000000D02*
X115200000Y-74600000D01*
X115500000Y-72700000D02*
X125700000Y-72700000D01*
X118400000Y-83500000D02*
X121300000Y-83500000D01*
X122500000Y-75800000D02*
X122500000Y-77500000D01*
%TO.N,/A2*%
X155880000Y-95680000D02*
X155880000Y-96020000D01*
X155500000Y-95300000D02*
X155880000Y-95680000D01*
X148600000Y-95100000D02*
X148800000Y-95300000D01*
X155880000Y-96020000D02*
X155880000Y-97460000D01*
X146900000Y-93400000D02*
X148600000Y-95100000D01*
X148800000Y-95300000D02*
X155500000Y-95300000D01*
X143800000Y-93400000D02*
X146900000Y-93400000D01*
%TO.N,/A3*%
X163800000Y-93600000D02*
X159000000Y-93600000D01*
X161900000Y-78180000D02*
X161900000Y-80200000D01*
X162800000Y-81100000D02*
X163900000Y-81100000D01*
X161900000Y-80200000D02*
X162800000Y-81100000D01*
X159000000Y-93600000D02*
X158700000Y-93300000D01*
X163900000Y-81100000D02*
X163900000Y-93500000D01*
X163900000Y-93500000D02*
X163800000Y-93600000D01*
%TO.N,/SDA{slash}A4*%
X150000000Y-94400000D02*
X150200000Y-94600000D01*
X138720000Y-93380000D02*
X140000000Y-92100000D01*
X147600000Y-92100000D02*
X147700000Y-92100000D01*
X160960000Y-96360000D02*
X160960000Y-97460000D01*
X160450000Y-95850000D02*
X160960000Y-96360000D01*
X150200000Y-94600000D02*
X159200000Y-94600000D01*
X159200000Y-94600000D02*
X160450000Y-95850000D01*
X138720000Y-93400000D02*
X138720000Y-93380000D01*
X147700000Y-92100000D02*
X150000000Y-94400000D01*
X140000000Y-92100000D02*
X147600000Y-92100000D01*
%TO.N,/4*%
X100400000Y-64600000D02*
X100800000Y-64200000D01*
X153340000Y-51160000D02*
X153340000Y-49200000D01*
X100800000Y-64200000D02*
X143300000Y-64200000D01*
X143700000Y-64000000D02*
X143700000Y-51800000D01*
X153200000Y-51300000D02*
X153340000Y-51160000D01*
X143700000Y-51800000D02*
X144200000Y-51300000D01*
X143400000Y-64300000D02*
X143700000Y-64000000D01*
X102584201Y-75984201D02*
X100400000Y-73800000D01*
X143300000Y-64200000D02*
X143400000Y-64300000D01*
X100400000Y-73800000D02*
X100400000Y-64600000D01*
X144200000Y-51300000D02*
X153200000Y-51300000D01*
X102584201Y-77144173D02*
X102584201Y-75984201D01*
%TD*%
M02*
