%TF.GenerationSoftware,KiCad,Pcbnew,(6.0.6)*%
%TF.CreationDate,2022-07-08T14:07:57+08:00*%
%TF.ProjectId,Stepper,53746570-7065-4722-9e6b-696361645f70,rev?*%
%TF.SameCoordinates,Original*%
%TF.FileFunction,Soldermask,Top*%
%TF.FilePolarity,Negative*%
%FSLAX46Y46*%
G04 Gerber Fmt 4.6, Leading zero omitted, Abs format (unit mm)*
G04 Created by KiCad (PCBNEW (6.0.6)) date 2022-07-08 14:07:57*
%MOMM*%
%LPD*%
G01*
G04 APERTURE LIST*
%ADD10R,1.700000X1.700000*%
%ADD11O,1.700000X1.700000*%
%ADD12C,1.600000*%
%ADD13O,1.600000X1.600000*%
%ADD14C,3.200000*%
%ADD15R,1.600000X1.600000*%
G04 APERTURE END LIST*
D10*
%TO.C,J1*%
X127940000Y-97460000D03*
D11*
X130480000Y-97460000D03*
X133020000Y-97460000D03*
X135560000Y-97460000D03*
X138100000Y-97460000D03*
X140640000Y-97460000D03*
X143180000Y-97460000D03*
X145720000Y-97460000D03*
%TD*%
D10*
%TO.C,J3*%
X150800000Y-97460000D03*
D11*
X153340000Y-97460000D03*
X155880000Y-97460000D03*
X158420000Y-97460000D03*
X160960000Y-97460000D03*
X163500000Y-97460000D03*
%TD*%
D10*
%TO.C,J2*%
X118796000Y-49200000D03*
D11*
X121336000Y-49200000D03*
X123876000Y-49200000D03*
X126416000Y-49200000D03*
X128956000Y-49200000D03*
X131496000Y-49200000D03*
X134036000Y-49200000D03*
X136576000Y-49200000D03*
X139116000Y-49200000D03*
X141656000Y-49200000D03*
%TD*%
D10*
%TO.C,J4*%
X145720000Y-49200000D03*
D11*
X148260000Y-49200000D03*
X150800000Y-49200000D03*
X153340000Y-49200000D03*
X155880000Y-49200000D03*
X158420000Y-49200000D03*
X160960000Y-49200000D03*
X163500000Y-49200000D03*
%TD*%
%TO.C,*%
X119900000Y-57840000D03*
%TD*%
%TO.C,*%
X133970000Y-68060000D03*
%TD*%
%TO.C,*%
X156500000Y-75660000D03*
%TD*%
%TO.C,*%
X133925799Y-55355827D03*
%TD*%
%TO.C,*%
X131430000Y-68060000D03*
%TD*%
%TO.C,*%
X104660000Y-68000000D03*
%TD*%
%TO.C,*%
X156500000Y-78200000D03*
%TD*%
%TO.C,*%
X117824201Y-77144173D03*
%TD*%
%TO.C,*%
X112700000Y-77140000D03*
%TD*%
%TO.C,*%
X158191710Y-55371710D03*
%TD*%
D12*
%TO.C,REF\u002A\u002A*%
X139050000Y-70600000D03*
X141550000Y-70600000D03*
%TD*%
D11*
%TO.C,*%
X117360000Y-68000000D03*
%TD*%
%TO.C,*%
X147960000Y-55300000D03*
%TD*%
%TO.C,*%
X162220000Y-83000000D03*
%TD*%
%TO.C,*%
X147960000Y-68000000D03*
%TD*%
%TO.C,*%
X157160000Y-91200000D03*
%TD*%
%TO.C,*%
X105124201Y-77144173D03*
%TD*%
%TO.C,*%
X120364201Y-82224173D03*
%TD*%
%TO.C,*%
X139050000Y-68060000D03*
%TD*%
%TO.C,*%
X119900000Y-55300000D03*
%TD*%
%TO.C,*%
X150500000Y-68000000D03*
%TD*%
%TO.C,*%
X154620000Y-91200000D03*
%TD*%
%TO.C,*%
X157140000Y-83000000D03*
%TD*%
%TO.C,*%
X145420000Y-68000000D03*
%TD*%
%TO.C,*%
X163200000Y-68000000D03*
%TD*%
%TO.C,*%
X159680000Y-83000000D03*
%TD*%
%TO.C,*%
X150500000Y-55300000D03*
%TD*%
%TO.C,*%
X163200000Y-60380000D03*
%TD*%
%TO.C,*%
X123810000Y-55360000D03*
%TD*%
%TO.C,*%
X119900000Y-60380000D03*
%TD*%
D12*
%TO.C,REF\u002A\u002A*%
X160660000Y-70540000D03*
X163160000Y-70540000D03*
%TD*%
%TO.C,REF\u002A\u002A*%
X143800000Y-93400000D03*
D13*
X143800000Y-85780000D03*
%TD*%
D11*
%TO.C,*%
X126350000Y-68060000D03*
%TD*%
%TO.C,*%
X115355911Y-77215883D03*
%TD*%
%TO.C,*%
X109740000Y-55300000D03*
%TD*%
%TO.C,*%
X114891710Y-55371710D03*
%TD*%
%TO.C,*%
X141590000Y-68060000D03*
%TD*%
%TO.C,*%
X102584201Y-77144173D03*
%TD*%
%TO.C,*%
X164700000Y-78180000D03*
%TD*%
%TO.C,*%
X161900000Y-78180000D03*
%TD*%
%TO.C,*%
X157160000Y-88400000D03*
%TD*%
%TO.C,*%
X107860000Y-48400000D03*
%TD*%
%TO.C,*%
X159700000Y-91200000D03*
%TD*%
%TO.C,*%
X128890000Y-68060000D03*
%TD*%
%TO.C,*%
X102584201Y-89844173D03*
%TD*%
%TO.C,*%
X160660000Y-68000000D03*
%TD*%
%TO.C,*%
X131430000Y-55360000D03*
%TD*%
D12*
%TO.C,REF\u002A\u002A*%
X136180000Y-93400000D03*
D13*
X136180000Y-85780000D03*
%TD*%
D11*
%TO.C,*%
X105124201Y-89844173D03*
%TD*%
%TO.C,*%
X157160000Y-85800000D03*
%TD*%
%TO.C,*%
X153040000Y-68000000D03*
%TD*%
%TO.C,*%
X141590000Y-55360000D03*
%TD*%
D14*
%TO.C,MH1*%
X115240000Y-49200000D03*
%TD*%
D11*
%TO.C,*%
X119900000Y-68000000D03*
%TD*%
%TO.C,*%
X117824201Y-89844173D03*
%TD*%
D15*
%TO.C,REF\u002A\u002A*%
X126044888Y-91400000D03*
D12*
X128044888Y-91400000D03*
%TD*%
D11*
%TO.C,*%
X104660000Y-55300000D03*
%TD*%
D12*
%TO.C,REF\u002A\u002A*%
X138720000Y-93400000D03*
D13*
X138720000Y-85780000D03*
%TD*%
D11*
%TO.C,*%
X161900000Y-75640000D03*
%TD*%
%TO.C,*%
X102120000Y-55300000D03*
%TD*%
%TO.C,*%
X163200000Y-57840000D03*
%TD*%
%TO.C,*%
X154620000Y-85800000D03*
%TD*%
%TO.C,*%
X162240000Y-88400000D03*
%TD*%
%TO.C,*%
X136581710Y-55431710D03*
%TD*%
%TO.C,*%
X155580000Y-68000000D03*
%TD*%
%TO.C,*%
X164700000Y-75640000D03*
%TD*%
%TO.C,*%
X141590000Y-60440000D03*
%TD*%
D12*
%TO.C,REF\u002A\u002A*%
X141260000Y-93400000D03*
D13*
X141260000Y-85780000D03*
%TD*%
D11*
%TO.C,*%
X109740000Y-68000000D03*
%TD*%
%TO.C,*%
X136510000Y-68060000D03*
%TD*%
%TO.C,*%
X159700000Y-85800000D03*
%TD*%
%TO.C,*%
X154620000Y-88400000D03*
%TD*%
%TO.C,*%
X160660000Y-55300000D03*
%TD*%
%TO.C,*%
X114820000Y-68000000D03*
%TD*%
%TO.C,*%
X123810000Y-68060000D03*
%TD*%
%TO.C,*%
X120364201Y-89844173D03*
%TD*%
%TO.C,*%
X107664201Y-89844173D03*
%TD*%
%TO.C,*%
X128890000Y-55360000D03*
%TD*%
%TO.C,*%
X117360000Y-55300000D03*
%TD*%
%TO.C,*%
X155535799Y-55295827D03*
%TD*%
%TO.C,*%
X163200000Y-55300000D03*
%TD*%
%TO.C,*%
X159700000Y-88400000D03*
%TD*%
D12*
%TO.C,REF\u002A\u002A*%
X145460000Y-70540000D03*
X147960000Y-70540000D03*
%TD*%
D11*
%TO.C,*%
X123600000Y-97500000D03*
%TD*%
%TO.C,*%
X115284201Y-89844173D03*
%TD*%
%TO.C,*%
X126350000Y-55360000D03*
%TD*%
D15*
%TO.C,REF\u002A\u002A*%
X126044888Y-82200000D03*
D12*
X128044888Y-82200000D03*
%TD*%
D11*
%TO.C,*%
X112280000Y-68000000D03*
%TD*%
%TO.C,*%
X159300000Y-75640000D03*
%TD*%
D12*
%TO.C,REF\u002A\u002A*%
X123810000Y-70600000D03*
X126310000Y-70600000D03*
%TD*%
D11*
%TO.C,*%
X107200000Y-55300000D03*
%TD*%
%TO.C,*%
X110204201Y-77144173D03*
%TD*%
%TO.C,*%
X153040000Y-55300000D03*
%TD*%
%TO.C,*%
X119000000Y-97500000D03*
%TD*%
%TO.C,*%
X102120000Y-68000000D03*
%TD*%
%TO.C,*%
X110204201Y-89844173D03*
%TD*%
D12*
%TO.C,REF\u002A\u002A*%
X102540000Y-92380000D03*
X105040000Y-92380000D03*
%TD*%
D11*
%TO.C,*%
X162240000Y-85800000D03*
%TD*%
%TO.C,*%
X112744201Y-89844173D03*
%TD*%
%TO.C,*%
X107200000Y-68000000D03*
%TD*%
%TO.C,*%
X141590000Y-57900000D03*
%TD*%
%TO.C,*%
X162240000Y-91200000D03*
%TD*%
%TO.C,*%
X145420000Y-55300000D03*
%TD*%
%TO.C,*%
X120364201Y-79684173D03*
%TD*%
%TO.C,*%
X158120000Y-68000000D03*
%TD*%
D12*
%TO.C,REF\u002A\u002A*%
X117780000Y-92380000D03*
X120280000Y-92380000D03*
%TD*%
%TO.C,REF\u002A\u002A*%
X102146709Y-70571710D03*
X104646709Y-70571710D03*
%TD*%
D11*
%TO.C,*%
X110400000Y-48400000D03*
%TD*%
D14*
%TO.C,MH2*%
X113970000Y-97460000D03*
%TD*%
%TO.C,MH3*%
X166040000Y-64440000D03*
%TD*%
%TO.C,MH4*%
X166040000Y-92380000D03*
%TD*%
D11*
%TO.C,*%
X112235799Y-55295827D03*
%TD*%
%TO.C,*%
X154600000Y-83000000D03*
%TD*%
%TO.C,*%
X102780000Y-48400000D03*
%TD*%
%TO.C,*%
X120364201Y-77144173D03*
%TD*%
%TO.C,*%
X105320000Y-48400000D03*
%TD*%
%TO.C,*%
X159300000Y-78180000D03*
%TD*%
%TO.C,*%
X139050000Y-55360000D03*
%TD*%
%TO.C,*%
X107664201Y-77144173D03*
%TD*%
D12*
%TO.C,REF\u002A\u002A*%
X117315799Y-70540000D03*
X119815799Y-70540000D03*
%TD*%
M02*
