%TF.GenerationSoftware,KiCad,Pcbnew,(6.0.6)*%
%TF.CreationDate,2022-07-08T14:02:12+08:00*%
%TF.ProjectId,Stepper,53746570-7065-4722-9e6b-696361645f70,rev?*%
%TF.SameCoordinates,Original*%
%TF.FileFunction,Legend,Top*%
%TF.FilePolarity,Positive*%
%FSLAX46Y46*%
G04 Gerber Fmt 4.6, Leading zero omitted, Abs format (unit mm)*
G04 Created by KiCad (PCBNEW (6.0.6)) date 2022-07-08 14:02:12*
%MOMM*%
%LPD*%
G01*
G04 APERTURE LIST*
%ADD10C,0.150000*%
%ADD11C,0.120000*%
G04 APERTURE END LIST*
D10*
%TO.C,*%
%TO.C,REF\u002A\u002A*%
X138966666Y-68552380D02*
X138633333Y-68076190D01*
X138395238Y-68552380D02*
X138395238Y-67552380D01*
X138776190Y-67552380D01*
X138871428Y-67600000D01*
X138919047Y-67647619D01*
X138966666Y-67742857D01*
X138966666Y-67885714D01*
X138919047Y-67980952D01*
X138871428Y-68028571D01*
X138776190Y-68076190D01*
X138395238Y-68076190D01*
X139395238Y-68028571D02*
X139728571Y-68028571D01*
X139871428Y-68552380D02*
X139395238Y-68552380D01*
X139395238Y-67552380D01*
X139871428Y-67552380D01*
X140633333Y-68028571D02*
X140300000Y-68028571D01*
X140300000Y-68552380D02*
X140300000Y-67552380D01*
X140776190Y-67552380D01*
X141300000Y-67552380D02*
X141300000Y-67790476D01*
X141061904Y-67695238D02*
X141300000Y-67790476D01*
X141538095Y-67695238D01*
X141157142Y-67980952D02*
X141300000Y-67790476D01*
X141442857Y-67980952D01*
X142061904Y-67552380D02*
X142061904Y-67790476D01*
X141823809Y-67695238D02*
X142061904Y-67790476D01*
X142300000Y-67695238D01*
X141919047Y-67980952D02*
X142061904Y-67790476D01*
X142204761Y-67980952D01*
%TO.C,*%
%TO.C,REF\u002A\u002A*%
X160576666Y-68492380D02*
X160243333Y-68016190D01*
X160005238Y-68492380D02*
X160005238Y-67492380D01*
X160386190Y-67492380D01*
X160481428Y-67540000D01*
X160529047Y-67587619D01*
X160576666Y-67682857D01*
X160576666Y-67825714D01*
X160529047Y-67920952D01*
X160481428Y-67968571D01*
X160386190Y-68016190D01*
X160005238Y-68016190D01*
X161005238Y-67968571D02*
X161338571Y-67968571D01*
X161481428Y-68492380D02*
X161005238Y-68492380D01*
X161005238Y-67492380D01*
X161481428Y-67492380D01*
X162243333Y-67968571D02*
X161910000Y-67968571D01*
X161910000Y-68492380D02*
X161910000Y-67492380D01*
X162386190Y-67492380D01*
X162910000Y-67492380D02*
X162910000Y-67730476D01*
X162671904Y-67635238D02*
X162910000Y-67730476D01*
X163148095Y-67635238D01*
X162767142Y-67920952D02*
X162910000Y-67730476D01*
X163052857Y-67920952D01*
X163671904Y-67492380D02*
X163671904Y-67730476D01*
X163433809Y-67635238D02*
X163671904Y-67730476D01*
X163910000Y-67635238D01*
X163529047Y-67920952D02*
X163671904Y-67730476D01*
X163814761Y-67920952D01*
X141882380Y-90923333D02*
X141406190Y-91256666D01*
X141882380Y-91494761D02*
X140882380Y-91494761D01*
X140882380Y-91113809D01*
X140930000Y-91018571D01*
X140977619Y-90970952D01*
X141072857Y-90923333D01*
X141215714Y-90923333D01*
X141310952Y-90970952D01*
X141358571Y-91018571D01*
X141406190Y-91113809D01*
X141406190Y-91494761D01*
X141358571Y-90494761D02*
X141358571Y-90161428D01*
X141882380Y-90018571D02*
X141882380Y-90494761D01*
X140882380Y-90494761D01*
X140882380Y-90018571D01*
X141358571Y-89256666D02*
X141358571Y-89590000D01*
X141882380Y-89590000D02*
X140882380Y-89590000D01*
X140882380Y-89113809D01*
X140882380Y-88590000D02*
X141120476Y-88590000D01*
X141025238Y-88828095D02*
X141120476Y-88590000D01*
X141025238Y-88351904D01*
X141310952Y-88732857D02*
X141120476Y-88590000D01*
X141310952Y-88447142D01*
X140882380Y-87828095D02*
X141120476Y-87828095D01*
X141025238Y-88066190D02*
X141120476Y-87828095D01*
X141025238Y-87590000D01*
X141310952Y-87970952D02*
X141120476Y-87828095D01*
X141310952Y-87685238D01*
%TO.C,*%
%TO.C,REF\u002A\u002A*%
X134092380Y-90923333D02*
X133616190Y-91256666D01*
X134092380Y-91494761D02*
X133092380Y-91494761D01*
X133092380Y-91113809D01*
X133140000Y-91018571D01*
X133187619Y-90970952D01*
X133282857Y-90923333D01*
X133425714Y-90923333D01*
X133520952Y-90970952D01*
X133568571Y-91018571D01*
X133616190Y-91113809D01*
X133616190Y-91494761D01*
X133568571Y-90494761D02*
X133568571Y-90161428D01*
X134092380Y-90018571D02*
X134092380Y-90494761D01*
X133092380Y-90494761D01*
X133092380Y-90018571D01*
X133568571Y-89256666D02*
X133568571Y-89590000D01*
X134092380Y-89590000D02*
X133092380Y-89590000D01*
X133092380Y-89113809D01*
X133092380Y-88590000D02*
X133330476Y-88590000D01*
X133235238Y-88828095D02*
X133330476Y-88590000D01*
X133235238Y-88351904D01*
X133520952Y-88732857D02*
X133330476Y-88590000D01*
X133520952Y-88447142D01*
X133092380Y-87828095D02*
X133330476Y-87828095D01*
X133235238Y-88066190D02*
X133330476Y-87828095D01*
X133235238Y-87590000D01*
X133520952Y-87970952D02*
X133330476Y-87828095D01*
X133520952Y-87685238D01*
%TO.C,*%
%TO.C,REF\u002A\u002A*%
X125711554Y-88102380D02*
X125378221Y-87626190D01*
X125140126Y-88102380D02*
X125140126Y-87102380D01*
X125521078Y-87102380D01*
X125616316Y-87150000D01*
X125663935Y-87197619D01*
X125711554Y-87292857D01*
X125711554Y-87435714D01*
X125663935Y-87530952D01*
X125616316Y-87578571D01*
X125521078Y-87626190D01*
X125140126Y-87626190D01*
X126140126Y-87578571D02*
X126473459Y-87578571D01*
X126616316Y-88102380D02*
X126140126Y-88102380D01*
X126140126Y-87102380D01*
X126616316Y-87102380D01*
X127378221Y-87578571D02*
X127044888Y-87578571D01*
X127044888Y-88102380D02*
X127044888Y-87102380D01*
X127521078Y-87102380D01*
X128044888Y-87102380D02*
X128044888Y-87340476D01*
X127806792Y-87245238D02*
X128044888Y-87340476D01*
X128282983Y-87245238D01*
X127902030Y-87530952D02*
X128044888Y-87340476D01*
X128187745Y-87530952D01*
X128806792Y-87102380D02*
X128806792Y-87340476D01*
X128568697Y-87245238D02*
X128806792Y-87340476D01*
X129044888Y-87245238D01*
X128663935Y-87530952D02*
X128806792Y-87340476D01*
X128949649Y-87530952D01*
%TO.C,*%
%TO.C,REF\u002A\u002A*%
X136802380Y-90923333D02*
X136326190Y-91256666D01*
X136802380Y-91494761D02*
X135802380Y-91494761D01*
X135802380Y-91113809D01*
X135850000Y-91018571D01*
X135897619Y-90970952D01*
X135992857Y-90923333D01*
X136135714Y-90923333D01*
X136230952Y-90970952D01*
X136278571Y-91018571D01*
X136326190Y-91113809D01*
X136326190Y-91494761D01*
X136278571Y-90494761D02*
X136278571Y-90161428D01*
X136802380Y-90018571D02*
X136802380Y-90494761D01*
X135802380Y-90494761D01*
X135802380Y-90018571D01*
X136278571Y-89256666D02*
X136278571Y-89590000D01*
X136802380Y-89590000D02*
X135802380Y-89590000D01*
X135802380Y-89113809D01*
X135802380Y-88590000D02*
X136040476Y-88590000D01*
X135945238Y-88828095D02*
X136040476Y-88590000D01*
X135945238Y-88351904D01*
X136230952Y-88732857D02*
X136040476Y-88590000D01*
X136230952Y-88447142D01*
X135802380Y-87828095D02*
X136040476Y-87828095D01*
X135945238Y-88066190D02*
X136040476Y-87828095D01*
X135945238Y-87590000D01*
X136230952Y-87970952D02*
X136040476Y-87828095D01*
X136230952Y-87685238D01*
%TO.C,*%
%TO.C,REF\u002A\u002A*%
X139342380Y-90923333D02*
X138866190Y-91256666D01*
X139342380Y-91494761D02*
X138342380Y-91494761D01*
X138342380Y-91113809D01*
X138390000Y-91018571D01*
X138437619Y-90970952D01*
X138532857Y-90923333D01*
X138675714Y-90923333D01*
X138770952Y-90970952D01*
X138818571Y-91018571D01*
X138866190Y-91113809D01*
X138866190Y-91494761D01*
X138818571Y-90494761D02*
X138818571Y-90161428D01*
X139342380Y-90018571D02*
X139342380Y-90494761D01*
X138342380Y-90494761D01*
X138342380Y-90018571D01*
X138818571Y-89256666D02*
X138818571Y-89590000D01*
X139342380Y-89590000D02*
X138342380Y-89590000D01*
X138342380Y-89113809D01*
X138342380Y-88590000D02*
X138580476Y-88590000D01*
X138485238Y-88828095D02*
X138580476Y-88590000D01*
X138485238Y-88351904D01*
X138770952Y-88732857D02*
X138580476Y-88590000D01*
X138770952Y-88447142D01*
X138342380Y-87828095D02*
X138580476Y-87828095D01*
X138485238Y-88066190D02*
X138580476Y-87828095D01*
X138485238Y-87590000D01*
X138770952Y-87970952D02*
X138580476Y-87828095D01*
X138770952Y-87685238D01*
%TO.C,*%
%TO.C,REF\u002A\u002A*%
X145376666Y-68492380D02*
X145043333Y-68016190D01*
X144805238Y-68492380D02*
X144805238Y-67492380D01*
X145186190Y-67492380D01*
X145281428Y-67540000D01*
X145329047Y-67587619D01*
X145376666Y-67682857D01*
X145376666Y-67825714D01*
X145329047Y-67920952D01*
X145281428Y-67968571D01*
X145186190Y-68016190D01*
X144805238Y-68016190D01*
X145805238Y-67968571D02*
X146138571Y-67968571D01*
X146281428Y-68492380D02*
X145805238Y-68492380D01*
X145805238Y-67492380D01*
X146281428Y-67492380D01*
X147043333Y-67968571D02*
X146710000Y-67968571D01*
X146710000Y-68492380D02*
X146710000Y-67492380D01*
X147186190Y-67492380D01*
X147710000Y-67492380D02*
X147710000Y-67730476D01*
X147471904Y-67635238D02*
X147710000Y-67730476D01*
X147948095Y-67635238D01*
X147567142Y-67920952D02*
X147710000Y-67730476D01*
X147852857Y-67920952D01*
X148471904Y-67492380D02*
X148471904Y-67730476D01*
X148233809Y-67635238D02*
X148471904Y-67730476D01*
X148710000Y-67635238D01*
X148329047Y-67920952D02*
X148471904Y-67730476D01*
X148614761Y-67920952D01*
%TO.C,*%
%TO.C,REF\u002A\u002A*%
X125711554Y-78902380D02*
X125378221Y-78426190D01*
X125140126Y-78902380D02*
X125140126Y-77902380D01*
X125521078Y-77902380D01*
X125616316Y-77950000D01*
X125663935Y-77997619D01*
X125711554Y-78092857D01*
X125711554Y-78235714D01*
X125663935Y-78330952D01*
X125616316Y-78378571D01*
X125521078Y-78426190D01*
X125140126Y-78426190D01*
X126140126Y-78378571D02*
X126473459Y-78378571D01*
X126616316Y-78902380D02*
X126140126Y-78902380D01*
X126140126Y-77902380D01*
X126616316Y-77902380D01*
X127378221Y-78378571D02*
X127044888Y-78378571D01*
X127044888Y-78902380D02*
X127044888Y-77902380D01*
X127521078Y-77902380D01*
X128044888Y-77902380D02*
X128044888Y-78140476D01*
X127806792Y-78045238D02*
X128044888Y-78140476D01*
X128282983Y-78045238D01*
X127902030Y-78330952D02*
X128044888Y-78140476D01*
X128187745Y-78330952D01*
X128806792Y-77902380D02*
X128806792Y-78140476D01*
X128568697Y-78045238D02*
X128806792Y-78140476D01*
X129044888Y-78045238D01*
X128663935Y-78330952D02*
X128806792Y-78140476D01*
X128949649Y-78330952D01*
%TO.C,*%
%TO.C,REF\u002A\u002A*%
X123726666Y-68552380D02*
X123393333Y-68076190D01*
X123155238Y-68552380D02*
X123155238Y-67552380D01*
X123536190Y-67552380D01*
X123631428Y-67600000D01*
X123679047Y-67647619D01*
X123726666Y-67742857D01*
X123726666Y-67885714D01*
X123679047Y-67980952D01*
X123631428Y-68028571D01*
X123536190Y-68076190D01*
X123155238Y-68076190D01*
X124155238Y-68028571D02*
X124488571Y-68028571D01*
X124631428Y-68552380D02*
X124155238Y-68552380D01*
X124155238Y-67552380D01*
X124631428Y-67552380D01*
X125393333Y-68028571D02*
X125060000Y-68028571D01*
X125060000Y-68552380D02*
X125060000Y-67552380D01*
X125536190Y-67552380D01*
X126060000Y-67552380D02*
X126060000Y-67790476D01*
X125821904Y-67695238D02*
X126060000Y-67790476D01*
X126298095Y-67695238D01*
X125917142Y-67980952D02*
X126060000Y-67790476D01*
X126202857Y-67980952D01*
X126821904Y-67552380D02*
X126821904Y-67790476D01*
X126583809Y-67695238D02*
X126821904Y-67790476D01*
X127060000Y-67695238D01*
X126679047Y-67980952D02*
X126821904Y-67790476D01*
X126964761Y-67980952D01*
%TO.C,*%
%TO.C,REF\u002A\u002A*%
X102456666Y-90332380D02*
X102123333Y-89856190D01*
X101885238Y-90332380D02*
X101885238Y-89332380D01*
X102266190Y-89332380D01*
X102361428Y-89380000D01*
X102409047Y-89427619D01*
X102456666Y-89522857D01*
X102456666Y-89665714D01*
X102409047Y-89760952D01*
X102361428Y-89808571D01*
X102266190Y-89856190D01*
X101885238Y-89856190D01*
X102885238Y-89808571D02*
X103218571Y-89808571D01*
X103361428Y-90332380D02*
X102885238Y-90332380D01*
X102885238Y-89332380D01*
X103361428Y-89332380D01*
X104123333Y-89808571D02*
X103790000Y-89808571D01*
X103790000Y-90332380D02*
X103790000Y-89332380D01*
X104266190Y-89332380D01*
X104790000Y-89332380D02*
X104790000Y-89570476D01*
X104551904Y-89475238D02*
X104790000Y-89570476D01*
X105028095Y-89475238D01*
X104647142Y-89760952D02*
X104790000Y-89570476D01*
X104932857Y-89760952D01*
X105551904Y-89332380D02*
X105551904Y-89570476D01*
X105313809Y-89475238D02*
X105551904Y-89570476D01*
X105790000Y-89475238D01*
X105409047Y-89760952D02*
X105551904Y-89570476D01*
X105694761Y-89760952D01*
%TO.C,*%
%TO.C,REF\u002A\u002A*%
X117696666Y-90332380D02*
X117363333Y-89856190D01*
X117125238Y-90332380D02*
X117125238Y-89332380D01*
X117506190Y-89332380D01*
X117601428Y-89380000D01*
X117649047Y-89427619D01*
X117696666Y-89522857D01*
X117696666Y-89665714D01*
X117649047Y-89760952D01*
X117601428Y-89808571D01*
X117506190Y-89856190D01*
X117125238Y-89856190D01*
X118125238Y-89808571D02*
X118458571Y-89808571D01*
X118601428Y-90332380D02*
X118125238Y-90332380D01*
X118125238Y-89332380D01*
X118601428Y-89332380D01*
X119363333Y-89808571D02*
X119030000Y-89808571D01*
X119030000Y-90332380D02*
X119030000Y-89332380D01*
X119506190Y-89332380D01*
X120030000Y-89332380D02*
X120030000Y-89570476D01*
X119791904Y-89475238D02*
X120030000Y-89570476D01*
X120268095Y-89475238D01*
X119887142Y-89760952D02*
X120030000Y-89570476D01*
X120172857Y-89760952D01*
X120791904Y-89332380D02*
X120791904Y-89570476D01*
X120553809Y-89475238D02*
X120791904Y-89570476D01*
X121030000Y-89475238D01*
X120649047Y-89760952D02*
X120791904Y-89570476D01*
X120934761Y-89760952D01*
X102102465Y-67132380D02*
X101769132Y-66656190D01*
X101531037Y-67132380D02*
X101531037Y-66132380D01*
X101911989Y-66132380D01*
X102007227Y-66180000D01*
X102054846Y-66227619D01*
X102102465Y-66322857D01*
X102102465Y-66465714D01*
X102054846Y-66560952D01*
X102007227Y-66608571D01*
X101911989Y-66656190D01*
X101531037Y-66656190D01*
X102531037Y-66608571D02*
X102864370Y-66608571D01*
X103007227Y-67132380D02*
X102531037Y-67132380D01*
X102531037Y-66132380D01*
X103007227Y-66132380D01*
X103769132Y-66608571D02*
X103435799Y-66608571D01*
X103435799Y-67132380D02*
X103435799Y-66132380D01*
X103911989Y-66132380D01*
X104435799Y-66132380D02*
X104435799Y-66370476D01*
X104197703Y-66275238D02*
X104435799Y-66370476D01*
X104673894Y-66275238D01*
X104292941Y-66560952D02*
X104435799Y-66370476D01*
X104578656Y-66560952D01*
X105197703Y-66132380D02*
X105197703Y-66370476D01*
X104959608Y-66275238D02*
X105197703Y-66370476D01*
X105435799Y-66275238D01*
X105054846Y-66560952D02*
X105197703Y-66370476D01*
X105340560Y-66560952D01*
%TO.C,*%
%TO.C,REF\u002A\u002A*%
X117232465Y-68492380D02*
X116899132Y-68016190D01*
X116661037Y-68492380D02*
X116661037Y-67492380D01*
X117041989Y-67492380D01*
X117137227Y-67540000D01*
X117184846Y-67587619D01*
X117232465Y-67682857D01*
X117232465Y-67825714D01*
X117184846Y-67920952D01*
X117137227Y-67968571D01*
X117041989Y-68016190D01*
X116661037Y-68016190D01*
X117661037Y-67968571D02*
X117994370Y-67968571D01*
X118137227Y-68492380D02*
X117661037Y-68492380D01*
X117661037Y-67492380D01*
X118137227Y-67492380D01*
X118899132Y-67968571D02*
X118565799Y-67968571D01*
X118565799Y-68492380D02*
X118565799Y-67492380D01*
X119041989Y-67492380D01*
X119565799Y-67492380D02*
X119565799Y-67730476D01*
X119327703Y-67635238D02*
X119565799Y-67730476D01*
X119803894Y-67635238D01*
X119422941Y-67920952D02*
X119565799Y-67730476D01*
X119708656Y-67920952D01*
X120327703Y-67492380D02*
X120327703Y-67730476D01*
X120089608Y-67635238D02*
X120327703Y-67730476D01*
X120565799Y-67635238D01*
X120184846Y-67920952D02*
X120327703Y-67730476D01*
X120470560Y-67920952D01*
D11*
%TO.C,J1*%
X147050000Y-98790000D02*
X147050000Y-96130000D01*
X129210000Y-96130000D02*
X147050000Y-96130000D01*
X129210000Y-98790000D02*
X129210000Y-96130000D01*
X126610000Y-97460000D02*
X126610000Y-96130000D01*
X126610000Y-96130000D02*
X127940000Y-96130000D01*
X129210000Y-98790000D02*
X147050000Y-98790000D01*
%TO.C,J3*%
X152070000Y-96130000D02*
X164830000Y-96130000D01*
X149470000Y-97460000D02*
X149470000Y-96130000D01*
X152070000Y-98790000D02*
X152070000Y-96130000D01*
X152070000Y-98790000D02*
X164830000Y-98790000D01*
X164830000Y-98790000D02*
X164830000Y-96130000D01*
X149470000Y-96130000D02*
X150800000Y-96130000D01*
%TO.C,J2*%
X142986000Y-50530000D02*
X142986000Y-47870000D01*
X120066000Y-50530000D02*
X142986000Y-50530000D01*
X117466000Y-47870000D02*
X118796000Y-47870000D01*
X117466000Y-49200000D02*
X117466000Y-47870000D01*
X120066000Y-47870000D02*
X142986000Y-47870000D01*
X120066000Y-50530000D02*
X120066000Y-47870000D01*
%TO.C,J4*%
X164830000Y-50530000D02*
X164830000Y-47870000D01*
X146990000Y-50530000D02*
X164830000Y-50530000D01*
X144390000Y-49200000D02*
X144390000Y-47870000D01*
X146990000Y-50530000D02*
X146990000Y-47870000D01*
X144390000Y-47870000D02*
X145720000Y-47870000D01*
X146990000Y-47870000D02*
X164830000Y-47870000D01*
%TO.C,REF\u002A\u002A*%
X142920000Y-69230000D02*
X142920000Y-71970000D01*
X137680000Y-69230000D02*
X142920000Y-69230000D01*
X137680000Y-71970000D02*
X142920000Y-71970000D01*
X137680000Y-69230000D02*
X137680000Y-71970000D01*
X164530000Y-69170000D02*
X164530000Y-71910000D01*
X159290000Y-71910000D02*
X164530000Y-71910000D01*
X159290000Y-69170000D02*
X164530000Y-69170000D01*
X159290000Y-69170000D02*
X159290000Y-71910000D01*
X142760000Y-92860000D02*
X142430000Y-92860000D01*
X145170000Y-92860000D02*
X145170000Y-86320000D01*
X144840000Y-92860000D02*
X145170000Y-92860000D01*
X142430000Y-86320000D02*
X142760000Y-86320000D01*
X142430000Y-92860000D02*
X142430000Y-86320000D01*
X145170000Y-86320000D02*
X144840000Y-86320000D01*
X135140000Y-92860000D02*
X134810000Y-92860000D01*
X137550000Y-92860000D02*
X137550000Y-86320000D01*
X137220000Y-92860000D02*
X137550000Y-92860000D01*
X134810000Y-86320000D02*
X135140000Y-86320000D01*
X134810000Y-92860000D02*
X134810000Y-86320000D01*
X137550000Y-86320000D02*
X137220000Y-86320000D01*
X129205888Y-89957000D02*
X129205888Y-92843000D01*
X127324888Y-88835000D02*
X127324888Y-90360000D01*
X128885888Y-89574000D02*
X128885888Y-90360000D01*
X124490113Y-89675000D02*
X124490113Y-90175000D01*
X128405888Y-92440000D02*
X128405888Y-93600000D01*
X127484888Y-92440000D02*
X127484888Y-93943000D01*
X129005888Y-92440000D02*
X129005888Y-93099000D01*
X128285888Y-89132000D02*
X128285888Y-90360000D01*
X129525888Y-90595000D02*
X129525888Y-92205000D01*
X129445888Y-90389000D02*
X129445888Y-92411000D01*
X127244888Y-92440000D02*
X127244888Y-93973000D01*
X124240113Y-89925000D02*
X124740113Y-89925000D01*
X128765888Y-89463000D02*
X128765888Y-90360000D01*
X127404888Y-92440000D02*
X127404888Y-93956000D01*
X127124888Y-92440000D02*
X127124888Y-93979000D01*
X128805888Y-92440000D02*
X128805888Y-93301000D01*
X127244888Y-88827000D02*
X127244888Y-90360000D01*
X127604888Y-92440000D02*
X127604888Y-93920000D01*
X127765888Y-92440000D02*
X127765888Y-93880000D01*
X128245888Y-89110000D02*
X128245888Y-90360000D01*
X128485888Y-89251000D02*
X128485888Y-90360000D01*
X128045888Y-92440000D02*
X128045888Y-93782000D01*
X127724888Y-88909000D02*
X127724888Y-90360000D01*
X127564888Y-88872000D02*
X127564888Y-90360000D01*
X127925888Y-88972000D02*
X127925888Y-90360000D01*
X128045888Y-89018000D02*
X128045888Y-90360000D01*
X129245888Y-90017000D02*
X129245888Y-92783000D01*
X127684888Y-92440000D02*
X127684888Y-93901000D01*
X127925888Y-92440000D02*
X127925888Y-93828000D01*
X128525888Y-92440000D02*
X128525888Y-93522000D01*
X128405888Y-89200000D02*
X128405888Y-90360000D01*
X127604888Y-88880000D02*
X127604888Y-90360000D01*
X127444888Y-88850000D02*
X127444888Y-90360000D01*
X128605888Y-89335000D02*
X128605888Y-90360000D01*
X127524888Y-92440000D02*
X127524888Y-93936000D01*
X129405888Y-90302000D02*
X129405888Y-92498000D01*
X128125888Y-92440000D02*
X128125888Y-93748000D01*
X128365888Y-89176000D02*
X128365888Y-90360000D01*
X127644888Y-88889000D02*
X127644888Y-90360000D01*
X128445888Y-92440000D02*
X128445888Y-93575000D01*
X127404888Y-88844000D02*
X127404888Y-90360000D01*
X128005888Y-92440000D02*
X128005888Y-93798000D01*
X128285888Y-92440000D02*
X128285888Y-93668000D01*
X128165888Y-92440000D02*
X128165888Y-93729000D01*
X128765888Y-92440000D02*
X128765888Y-93337000D01*
X128565888Y-92440000D02*
X128565888Y-93495000D01*
X129125888Y-89846000D02*
X129125888Y-92954000D01*
X127364888Y-88839000D02*
X127364888Y-90360000D01*
X128565888Y-89305000D02*
X128565888Y-90360000D01*
X127324888Y-92440000D02*
X127324888Y-93965000D01*
X128685888Y-92440000D02*
X128685888Y-93404000D01*
X128485888Y-92440000D02*
X128485888Y-93549000D01*
X129325888Y-90149000D02*
X129325888Y-92651000D01*
X127564888Y-92440000D02*
X127564888Y-93928000D01*
X127044888Y-88820000D02*
X127044888Y-90360000D01*
X127084888Y-92440000D02*
X127084888Y-93980000D01*
X129085888Y-89795000D02*
X129085888Y-93005000D01*
X129605888Y-90882000D02*
X129605888Y-91918000D01*
X127805888Y-92440000D02*
X127805888Y-93868000D01*
X129365888Y-90222000D02*
X129365888Y-92578000D01*
X127885888Y-88958000D02*
X127885888Y-90360000D01*
X127204888Y-92440000D02*
X127204888Y-93976000D01*
X127644888Y-92440000D02*
X127644888Y-93911000D01*
X128845888Y-89536000D02*
X128845888Y-90360000D01*
X128085888Y-89035000D02*
X128085888Y-90360000D01*
X127684888Y-88899000D02*
X127684888Y-90360000D01*
X128925888Y-89615000D02*
X128925888Y-90360000D01*
X128005888Y-89002000D02*
X128005888Y-90360000D01*
X127484888Y-88857000D02*
X127484888Y-90360000D01*
X128645888Y-92440000D02*
X128645888Y-93435000D01*
X129565888Y-90723000D02*
X129565888Y-92077000D01*
X129005888Y-89701000D02*
X129005888Y-90360000D01*
X128445888Y-89225000D02*
X128445888Y-90360000D01*
X128805888Y-89499000D02*
X128805888Y-90360000D01*
X127204888Y-88824000D02*
X127204888Y-90360000D01*
X128685888Y-89396000D02*
X128685888Y-90360000D01*
X128365888Y-92440000D02*
X128365888Y-93624000D01*
X128205888Y-89090000D02*
X128205888Y-90360000D01*
X127044888Y-92440000D02*
X127044888Y-93980000D01*
X127845888Y-92440000D02*
X127845888Y-93855000D01*
X127965888Y-88986000D02*
X127965888Y-90360000D01*
X128645888Y-89365000D02*
X128645888Y-90360000D01*
X129045888Y-89747000D02*
X129045888Y-90360000D01*
X127284888Y-92440000D02*
X127284888Y-93969000D01*
X128605888Y-92440000D02*
X128605888Y-93465000D01*
X128525888Y-89278000D02*
X128525888Y-90360000D01*
X129485888Y-90485000D02*
X129485888Y-92315000D01*
X127284888Y-88831000D02*
X127284888Y-90360000D01*
X129285888Y-90081000D02*
X129285888Y-92719000D01*
X128725888Y-92440000D02*
X128725888Y-93371000D01*
X128205888Y-92440000D02*
X128205888Y-93710000D01*
X128125888Y-89052000D02*
X128125888Y-90360000D01*
X128725888Y-89429000D02*
X128725888Y-90360000D01*
X128325888Y-89153000D02*
X128325888Y-90360000D01*
X127524888Y-88864000D02*
X127524888Y-90360000D01*
X127805888Y-88932000D02*
X127805888Y-90360000D01*
X129645888Y-91116000D02*
X129645888Y-91684000D01*
X128965888Y-89657000D02*
X128965888Y-90360000D01*
X128885888Y-92440000D02*
X128885888Y-93226000D01*
X127724888Y-92440000D02*
X127724888Y-93891000D01*
X127444888Y-92440000D02*
X127444888Y-93950000D01*
X128165888Y-89071000D02*
X128165888Y-90360000D01*
X128085888Y-92440000D02*
X128085888Y-93765000D01*
X128245888Y-92440000D02*
X128245888Y-93690000D01*
X127765888Y-88920000D02*
X127765888Y-90360000D01*
X127124888Y-88821000D02*
X127124888Y-90360000D01*
X127965888Y-92440000D02*
X127965888Y-93814000D01*
X127084888Y-88820000D02*
X127084888Y-90360000D01*
X128925888Y-92440000D02*
X128925888Y-93185000D01*
X128845888Y-92440000D02*
X128845888Y-93264000D01*
X127364888Y-92440000D02*
X127364888Y-93961000D01*
X128325888Y-92440000D02*
X128325888Y-93647000D01*
X129045888Y-92440000D02*
X129045888Y-93053000D01*
X129165888Y-89900000D02*
X129165888Y-92900000D01*
X127885888Y-92440000D02*
X127885888Y-93842000D01*
X127845888Y-88945000D02*
X127845888Y-90360000D01*
X127164888Y-88822000D02*
X127164888Y-90360000D01*
X127164888Y-92440000D02*
X127164888Y-93978000D01*
X128965888Y-92440000D02*
X128965888Y-93143000D01*
X129664888Y-91400000D02*
G75*
G03*
X129664888Y-91400000I-2620000J0D01*
G01*
X137680000Y-92860000D02*
X137350000Y-92860000D01*
X140090000Y-92860000D02*
X140090000Y-86320000D01*
X139760000Y-92860000D02*
X140090000Y-92860000D01*
X137350000Y-86320000D02*
X137680000Y-86320000D01*
X137350000Y-92860000D02*
X137350000Y-86320000D01*
X140090000Y-86320000D02*
X139760000Y-86320000D01*
X140220000Y-92860000D02*
X139890000Y-92860000D01*
X142630000Y-92860000D02*
X142630000Y-86320000D01*
X142300000Y-92860000D02*
X142630000Y-92860000D01*
X139890000Y-86320000D02*
X140220000Y-86320000D01*
X139890000Y-92860000D02*
X139890000Y-86320000D01*
X142630000Y-86320000D02*
X142300000Y-86320000D01*
X144090000Y-71910000D02*
X149330000Y-71910000D01*
X144090000Y-69170000D02*
X149330000Y-69170000D01*
X149330000Y-69170000D02*
X149330000Y-71910000D01*
X144090000Y-69170000D02*
X144090000Y-71910000D01*
X129205888Y-80757000D02*
X129205888Y-83643000D01*
X127324888Y-79635000D02*
X127324888Y-81160000D01*
X128885888Y-80374000D02*
X128885888Y-81160000D01*
X124490113Y-80475000D02*
X124490113Y-80975000D01*
X128405888Y-83240000D02*
X128405888Y-84400000D01*
X127484888Y-83240000D02*
X127484888Y-84743000D01*
X129005888Y-83240000D02*
X129005888Y-83899000D01*
X128285888Y-79932000D02*
X128285888Y-81160000D01*
X129525888Y-81395000D02*
X129525888Y-83005000D01*
X129445888Y-81189000D02*
X129445888Y-83211000D01*
X127244888Y-83240000D02*
X127244888Y-84773000D01*
X124240113Y-80725000D02*
X124740113Y-80725000D01*
X128765888Y-80263000D02*
X128765888Y-81160000D01*
X127404888Y-83240000D02*
X127404888Y-84756000D01*
X127124888Y-83240000D02*
X127124888Y-84779000D01*
X128805888Y-83240000D02*
X128805888Y-84101000D01*
X127244888Y-79627000D02*
X127244888Y-81160000D01*
X127604888Y-83240000D02*
X127604888Y-84720000D01*
X127765888Y-83240000D02*
X127765888Y-84680000D01*
X128245888Y-79910000D02*
X128245888Y-81160000D01*
X128485888Y-80051000D02*
X128485888Y-81160000D01*
X128045888Y-83240000D02*
X128045888Y-84582000D01*
X127724888Y-79709000D02*
X127724888Y-81160000D01*
X127564888Y-79672000D02*
X127564888Y-81160000D01*
X127925888Y-79772000D02*
X127925888Y-81160000D01*
X128045888Y-79818000D02*
X128045888Y-81160000D01*
X129245888Y-80817000D02*
X129245888Y-83583000D01*
X127684888Y-83240000D02*
X127684888Y-84701000D01*
X127925888Y-83240000D02*
X127925888Y-84628000D01*
X128525888Y-83240000D02*
X128525888Y-84322000D01*
X128405888Y-80000000D02*
X128405888Y-81160000D01*
X127604888Y-79680000D02*
X127604888Y-81160000D01*
X127444888Y-79650000D02*
X127444888Y-81160000D01*
X128605888Y-80135000D02*
X128605888Y-81160000D01*
X127524888Y-83240000D02*
X127524888Y-84736000D01*
X129405888Y-81102000D02*
X129405888Y-83298000D01*
X128125888Y-83240000D02*
X128125888Y-84548000D01*
X128365888Y-79976000D02*
X128365888Y-81160000D01*
X127644888Y-79689000D02*
X127644888Y-81160000D01*
X128445888Y-83240000D02*
X128445888Y-84375000D01*
X127404888Y-79644000D02*
X127404888Y-81160000D01*
X128005888Y-83240000D02*
X128005888Y-84598000D01*
X128285888Y-83240000D02*
X128285888Y-84468000D01*
X128165888Y-83240000D02*
X128165888Y-84529000D01*
X128765888Y-83240000D02*
X128765888Y-84137000D01*
X128565888Y-83240000D02*
X128565888Y-84295000D01*
X129125888Y-80646000D02*
X129125888Y-83754000D01*
X127364888Y-79639000D02*
X127364888Y-81160000D01*
X128565888Y-80105000D02*
X128565888Y-81160000D01*
X127324888Y-83240000D02*
X127324888Y-84765000D01*
X128685888Y-83240000D02*
X128685888Y-84204000D01*
X128485888Y-83240000D02*
X128485888Y-84349000D01*
X129325888Y-80949000D02*
X129325888Y-83451000D01*
X127564888Y-83240000D02*
X127564888Y-84728000D01*
X127044888Y-79620000D02*
X127044888Y-81160000D01*
X127084888Y-83240000D02*
X127084888Y-84780000D01*
X129085888Y-80595000D02*
X129085888Y-83805000D01*
X129605888Y-81682000D02*
X129605888Y-82718000D01*
X127805888Y-83240000D02*
X127805888Y-84668000D01*
X129365888Y-81022000D02*
X129365888Y-83378000D01*
X127885888Y-79758000D02*
X127885888Y-81160000D01*
X127204888Y-83240000D02*
X127204888Y-84776000D01*
X127644888Y-83240000D02*
X127644888Y-84711000D01*
X128845888Y-80336000D02*
X128845888Y-81160000D01*
X128085888Y-79835000D02*
X128085888Y-81160000D01*
X127684888Y-79699000D02*
X127684888Y-81160000D01*
X128925888Y-80415000D02*
X128925888Y-81160000D01*
X128005888Y-79802000D02*
X128005888Y-81160000D01*
X127484888Y-79657000D02*
X127484888Y-81160000D01*
X128645888Y-83240000D02*
X128645888Y-84235000D01*
X129565888Y-81523000D02*
X129565888Y-82877000D01*
X129005888Y-80501000D02*
X129005888Y-81160000D01*
X128445888Y-80025000D02*
X128445888Y-81160000D01*
X128805888Y-80299000D02*
X128805888Y-81160000D01*
X127204888Y-79624000D02*
X127204888Y-81160000D01*
X128685888Y-80196000D02*
X128685888Y-81160000D01*
X128365888Y-83240000D02*
X128365888Y-84424000D01*
X128205888Y-79890000D02*
X128205888Y-81160000D01*
X127044888Y-83240000D02*
X127044888Y-84780000D01*
X127845888Y-83240000D02*
X127845888Y-84655000D01*
X127965888Y-79786000D02*
X127965888Y-81160000D01*
X128645888Y-80165000D02*
X128645888Y-81160000D01*
X129045888Y-80547000D02*
X129045888Y-81160000D01*
X127284888Y-83240000D02*
X127284888Y-84769000D01*
X128605888Y-83240000D02*
X128605888Y-84265000D01*
X128525888Y-80078000D02*
X128525888Y-81160000D01*
X129485888Y-81285000D02*
X129485888Y-83115000D01*
X127284888Y-79631000D02*
X127284888Y-81160000D01*
X129285888Y-80881000D02*
X129285888Y-83519000D01*
X128725888Y-83240000D02*
X128725888Y-84171000D01*
X128205888Y-83240000D02*
X128205888Y-84510000D01*
X128125888Y-79852000D02*
X128125888Y-81160000D01*
X128725888Y-80229000D02*
X128725888Y-81160000D01*
X128325888Y-79953000D02*
X128325888Y-81160000D01*
X127524888Y-79664000D02*
X127524888Y-81160000D01*
X127805888Y-79732000D02*
X127805888Y-81160000D01*
X129645888Y-81916000D02*
X129645888Y-82484000D01*
X128965888Y-80457000D02*
X128965888Y-81160000D01*
X128885888Y-83240000D02*
X128885888Y-84026000D01*
X127724888Y-83240000D02*
X127724888Y-84691000D01*
X127444888Y-83240000D02*
X127444888Y-84750000D01*
X128165888Y-79871000D02*
X128165888Y-81160000D01*
X128085888Y-83240000D02*
X128085888Y-84565000D01*
X128245888Y-83240000D02*
X128245888Y-84490000D01*
X127765888Y-79720000D02*
X127765888Y-81160000D01*
X127124888Y-79621000D02*
X127124888Y-81160000D01*
X127965888Y-83240000D02*
X127965888Y-84614000D01*
X127084888Y-79620000D02*
X127084888Y-81160000D01*
X128925888Y-83240000D02*
X128925888Y-83985000D01*
X128845888Y-83240000D02*
X128845888Y-84064000D01*
X127364888Y-83240000D02*
X127364888Y-84761000D01*
X128325888Y-83240000D02*
X128325888Y-84447000D01*
X129045888Y-83240000D02*
X129045888Y-83853000D01*
X129165888Y-80700000D02*
X129165888Y-83700000D01*
X127885888Y-83240000D02*
X127885888Y-84642000D01*
X127845888Y-79745000D02*
X127845888Y-81160000D01*
X127164888Y-79622000D02*
X127164888Y-81160000D01*
X127164888Y-83240000D02*
X127164888Y-84778000D01*
X128965888Y-83240000D02*
X128965888Y-83943000D01*
X129664888Y-82200000D02*
G75*
G03*
X129664888Y-82200000I-2620000J0D01*
G01*
X122440000Y-71970000D02*
X127680000Y-71970000D01*
X122440000Y-69230000D02*
X127680000Y-69230000D01*
X122440000Y-69230000D02*
X122440000Y-71970000D01*
X127680000Y-69230000D02*
X127680000Y-71970000D01*
X101170000Y-91010000D02*
X106410000Y-91010000D01*
X101170000Y-93750000D02*
X106410000Y-93750000D01*
X101170000Y-91010000D02*
X101170000Y-93750000D01*
X106410000Y-91010000D02*
X106410000Y-93750000D01*
X121650000Y-91010000D02*
X121650000Y-93750000D01*
X116410000Y-91010000D02*
X121650000Y-91010000D01*
X116410000Y-93750000D02*
X121650000Y-93750000D01*
X116410000Y-91010000D02*
X116410000Y-93750000D01*
X106016709Y-69201710D02*
X106016709Y-71941710D01*
X100776709Y-71941710D02*
X106016709Y-71941710D01*
X100776709Y-69201710D02*
X106016709Y-69201710D01*
X100776709Y-69201710D02*
X100776709Y-71941710D01*
X121185799Y-69170000D02*
X121185799Y-71910000D01*
X115945799Y-71910000D02*
X121185799Y-71910000D01*
X115945799Y-69170000D02*
X121185799Y-69170000D01*
X115945799Y-69170000D02*
X115945799Y-71910000D01*
%TD*%
M02*
